<svg xmlns="http://www.w3.org/2000/svg" xmlns:xlink="http://www.w3.org/1999/xlink" viewBox="0 0 925.23 767.86"><defs><style>.cls-1{fill:none;}.cls-2{fill:#51c9ff;}.cls-3{clip-path:url(#clip-path);}.cls-4{fill:#fff;}.cls-5{fill:#98e1ff;}</style><clipPath id="clip-path"><path class="cls-1" d="M306.51,281v1.25c7,78.56,18.63,159.89,38.65,241.18,77.59,314.89,547.48,247.71,544.61-76.61v-1.37h0c-7-78.52-18.64-159.8-38.66-241.06C773.54-110.48,303.64-43.3,306.51,281Z"/></clipPath></defs><g id="Capa_2" data-name="Capa 2"><g id="Capa_1-2" data-name="Capa 1"><path class="cls-2" d="M306.51,281v1.25c7,78.56,18.63,159.89,38.65,241.18,77.59,314.89,547.48,247.71,544.61-76.61v-1.37h0c-7-78.52-18.64-159.8-38.66-241.06C773.54-110.48,303.64-43.3,306.51,281Z"/><g class="cls-3"><path class="cls-4" d="M681.18,540.43l-5,12.89,3.42,4.23-1.81,7.05h-7.65l-3.22-4.23h-4.23L658,558l-7.66-4.23-3.62-.2s-2-.4-2-1.41-.41-3.82-.41-3.82v-3.43h3c1.21.61,1.61,1.41,2.22.81s1.81-1.61,1.81-1.61l1.41-1.61,2.82,1,2.62,2.42h5.43l4.23-1,5.24-3,2.21.81,2.22-.81Z"/><path class="cls-4" d="M603.05,496.94l-4.83-1a8.22,8.22,0,0,1-.6-2,15,15,0,0,0-.41-2.22l.41-1.81-1.41-1.21-.4-1.61.2-6.64s2.21-1.61,2.82-2.22a15.2,15.2,0,0,1,2.81-1.61l1.82.61.6-3.83,2.22.6v6.45s.4,3,.4,3.82-1,8.26-1,8.26Z"/><path class="cls-4" d="M591.78,504.79l-.61,4.23,4.23,6.85s-.6,1.61-.2,2.21a24,24,0,0,1,1.21,2.82s-2.62,3.83-2.22,5.24,1.21,7,1.21,7,1.81.41,2.82.61,2.62.6,2.62.6l.4-3.62h4.23s.4,1,1,0,2.41-8.86,2.62-9.67,1.4-6,1-6.64a23.79,23.79,0,0,1-1.21-3l.41-2.22-2-5L603.66,500l-8.86,6.24Z"/><path class="cls-4" d="M419.82,317.53s-4.63-3.63-4.43-2.82a13.74,13.74,0,0,1,.2,2.41s2,0,2.41.61,1.21,1.41.61,1.61,1.81.2-.61.2-3,.4-3,.4-.8-.2,0,.81,1.41,1.61,1.41,1.61l1,.81,1.21,1.2-1.41.81,1.81.6h1.61l-1,1.61.81.61h10.47l1.61-1.21a11.14,11.14,0,0,0,2.62,0c.6-.2,6.64-3.83,6.64-3.83s8.26,1.21,9.07.61,7.85-8.86,7.85-9.47-.2-8.86-.2-9.66.2-6,.2-6l.4-2.62h2l1.61-1.41,2-1.21,2-.8.81-2.82-3.22-2.42v-2.41l-1.41-3.83-1-2.21-3.22-.21-5.24,1.21.81-2.41-3.22.6-1.41,1-.61-2.22-4.22.2-2.62,3.63L440,281.69l-.2,1.41,3,2s2,.6.2,1.21-4.23,1.2-4.23,1.2l-.2,1.41-2.82,1-1.2-.8-2.62,1.2-.81-3.22a14.37,14.37,0,0,0-2.82-.4h-3.42l1,1.61s-1.82-.2-2,.6-.4,1.41-.4,1.41l.6,1,1.62.4s1.41.41,1.61,1.21a16.66,16.66,0,0,0,.6,1.81,17.28,17.28,0,0,0-3.22,1.41c-.81.61-2,1.61-2,1.61l.8,1.82.4,1.61,1.61-.61h1.62l.8,2.22,4,.4.2,2a1.06,1.06,0,0,0-1.41,0,5,5,0,0,1-1.81.81l-1.21-.2-1.81,4.63-1.61.4-1.41.61a4.92,4.92,0,0,0,2,.8c.81,0,5-.2,5-.2l2,.6s0,1.41-1.81,1.41h-4.23l-1.82-.6-1.81,1Z"/><path class="cls-4" d="M453,355l1,1.41,1.61.4,1,1.82.8.2,1.41-2.62s1.41-2.22,2.62-2.22,1.61-.4,2.62-.4,7.24,3.22,7.24,3.22l3-1,.2-3.63h5.84c.6,0,6.64,1.61,6.64,1.61l3-.6a5,5,0,0,1,2.82-.61c2,0,8.66.41,8.66.41l5.64-.61s2.21.61,3.22.81,6.24,0,6.84-.4,6.45-1.62,6.45-3,.2-4.23.2-4.23l-3.83-1-4.43-.81v-1l3.43-.4.4-1.62-.6-1.61,3-.6,2.82-2,2.21-1.82,1.41-6.64-2.42-4.43s-1.61-1.81-2.41-1.81-4.23-.21-4.23-.21l-4.63,1.82-.61-2.62,1.82-3.42a1.66,1.66,0,0,0,0-2c-.81-1-2-2.21-2.22-3s-3.62-2.62-3.62-2.62.2-1.4.8-1.4,1.41-.21,2,.2,2.42,1.81,2.42,1.2v-2.41l-1.41-2.42-1-3.22-3.62-5.44-2.42-.6L505.39,292l-2.81-12.88-6.65-7.25-3,.6-1.81.61-2.62-.61s-1.81-1.61-1.21-1.61a26,26,0,0,0,3-.6l4.63-1.41,1.82-1-.41-1.61-1.2-.4,4-2.42s3.83-8.66,4.63-9.26,2.42-2.42,2.42-3a10.93,10.93,0,0,0-.81-2.42l-6-2-6-1.21a16,16,0,0,1-3.62,2,27.87,27.87,0,0,1-4.23.61s-.81-.2,0-.81a12.27,12.27,0,0,1,1.61-1l1.81-1.61.41-.81s-1,0-1-.6a2.44,2.44,0,0,1,1.21-1.82,12.24,12.24,0,0,1,2.61-1.2l3.43-3.43,1.61-3.42-.61-1.21-.8-.2a5.23,5.23,0,0,1-2.22.8c-1.41.21-6,.21-6,.21l-2.21-.81-1.41-1.61-1.61.4-.4,4.84-2.22.2s-.6-.61-.81,0-.6,1.61-.6,1.61l.6,2.62s.61,1,0,1-4.63.2-4.63.2l-.4,3.83h-1.61l.6,1,1.21,1.81v2.41s.2.81-.6.81-1-.4-1.61-.81a9.85,9.85,0,0,1-1.61-1.81L469,247.45v-3.62h-1.61v1.81h-2v1.61l2,1.61,1.21,1.21.4,1.61,1.61.81,2,1.21L471,256.52h-2.41a.76.76,0,0,0,0,1c.4.61,2,2.62,2,2.62h2.21l.21,1.41-.81,3.22-4.63,11.88,2.62.2,2.41-7.65s0,.81,1.61.81a4.3,4.3,0,0,0,2.22-.41,9.71,9.71,0,0,1-.2,3.83l-.61,2,1.21,1.41-6.44,9.67,1.21,2.41,1.2-1.41,2.22,1.82s.8,1.41,1.41.6-.2-2.42.8-2.42a17.1,17.1,0,0,1,3.43.81,2.47,2.47,0,0,0,1.81.4c1-.2,3.42-2.21,3.42-2.21l2.62.8-.6,2-4.23,3,2.41,8.86,5-2.62-2,4-.6,1v4l-2.21.2-.41,3.22-.4,2.22-2.62-1.21s.2-.2-1.21-.2a29.37,29.37,0,0,1-4.22,0,36.31,36.31,0,0,1-4.43-2.62l-1.21,1,1.61,2.41s1,2.22,0,2.22-1.81-.4-2.42.4-1.41,2-1.41,2l2,.2h2.82l.6.8v2l-.6,5.23L461.7,331v1.81a4.59,4.59,0,0,0,.8,1l.61.6,3.82.2,4.23-1.41a3.25,3.25,0,0,1-.2,1.82l-.4.8,2.42,1.61a7.14,7.14,0,0,1,2,.2l.6,1.61,2.42,1.62a3.86,3.86,0,0,0,2.21,0c.81-.41,2.62-1.62,2.62-1.62l3-2,.2,1-1.61,1.61-1.81,3.22s1,.81-2.82,0a54.47,54.47,0,0,0-6.64-1.21h-2.82l-.4,1.81s1,2.22,0,2.22h-4.43s-1,3.83-1.82,4,.2.6-2.21,1.41a11.26,11.26,0,0,0-4.43,3.42Z"/><path class="cls-4" d="M607.62,284.17l-3.09.8-.67.81s-.27,2.15.13,2.68a32.77,32.77,0,0,0,2.42,2.29l4.43,2,.94-2.95s1.61-.27,0-2.82-2-3.09-2-3.09Z"/><path class="cls-4" d="M618.63,277.59l-1.61.67v1.61l-1.62,1.35-2.95.4s.27,1.61.67,1.74,2.15.94,2.15.94l.27,3.49,2.68,1.35,2.29,1.88,2,1.34s1.74.53,1.74-.14a15.27,15.27,0,0,0-.8-2.82l2.15-1.2s.94-.14.94-.94a3.16,3.16,0,0,0-.41-1.48l-1.2-1.21.4-2,1.34-1.21-.4-4.83a8.24,8.24,0,0,1-2.15-.41c-.4-.26-2.68-.8-2.68-.26s-.27,3.75-.27,4.29.67,2,0,2-1.61,0-1.61-.68.13.54,0-.67A17,17,0,0,0,618.63,277.59Z"/><path class="cls-4" d="M663.06,253l-1.34,1.34-1.21,8.86-1.34,7s1.21.4,1.47-.14,1.48-4.43,1.48-4.43,1.61-6.31,1.61-6.84S663.06,253,663.06,253Z"/><path class="cls-4" d="M674.34,243.36l-1.75,2.55s-1.74,1.75-1.74,2.15.67,3.49.67,3.49l.8,3.49,2.42,1.61s2.42-4,2.42-4.56-.14-2.42-.27-3.36-.14-3.89-.14-4.3,1.08-1.2,1.08-1.2l-3-1.75Z"/><path class="cls-4" d="M708.3,227.25l-1.88-1.07h-2l-1.75.67-4,2-.53,1.08s.13,1.74.67,1.88,2.15.67,2.15.67.8,0,.8.4v1.48l-.94,2.55s1.21.53,1.48.13a5.12,5.12,0,0,0,.53-1.88c.14-.8.54-2.68.54-2.68l3.09-1.61s.8-2.29,1.48-2.29,1.61.41,1.88-.13.8-.67.4-1.07-1.21-1.48-1.21-1.48Z"/><polygon class="cls-4" points="521.71 522.31 522.91 524.53 526.74 524.53 529.56 526.94 533.99 522.31 532.17 520.7 531.57 517.68 521.71 522.31"/><polygon class="cls-4" points="540.43 516.87 539.63 518.49 544.86 520.9 546.88 519.69 544.46 516.67 540.43 516.87"/><path class="cls-4" d="M510,528.75l-3,1.62-.61,2.21s.2,1.81,1,1.81,5.84-4.63,5.84-4.63Z"/><path class="cls-4" d="M787.5,565.6l-.6,1.21-2.62.4V571l11.88-.4,4.23.2.4,1.61,15.91-3.83,1.81-.2,1.61-4.83H817.5l-.8.81-4.23,1.41s-.4,2.41-1,1.2a19.76,19.76,0,0,0-1-1.81l-4.23.4-5.44.81-6.44,1.21-3-.81Z"/><path class="cls-4" d="M386,90.46a12.66,12.66,0,0,0,1.61,2.42l8.32.26,2.82,4.57-.67,1.48-2,1.07a1.66,1.66,0,0,1,1.07.54c.54.53,1.48,1.34,1.48,1.34l-.41,1.48-.53.67-.94.13-3.36-.94-3.89-2-5.37-1.88s-.54,2.41-.14,2.82a11,11,0,0,0,2.29,1.07l3.08.54,3,3s1.34,7.38,1.34,7.92a1.78,1.78,0,0,1-1.75,1.34h-7.11l-.27,2.15s11.55,4.3,11.55,4.7.26,3.22.26,3.62.94,1.62.94,1.62l5.11,1.07s2.28,4.3,2.81,4.56a36,36,0,0,0,5.11.27l2.95-1.88,9.93.94,6.18-4.16,4.29-.8s2,1.88,2.42,1.88,4.43-4.17,5.64-4.7,6.17-2.42,6.17-2.42l.27-5s1.08-.67,1.08-1.47a5.89,5.89,0,0,0-1.35-3.22c-.8-.94-2.41-2.69-2.41-2.69l-.14-1.34v-2l-.27-.94s-1.34.81.14-1.61.8-1.47.8-1.47l1.08-1.61-5-.27s.13-2.15-.27-2.55-2.28-2-2.28-2l-2.69-.13-1.34,4.43-1.47.13-1.75-1.61a21.56,21.56,0,0,0-2.15.94,7.68,7.68,0,0,1-1.74.54l-.4-1.75L426.8,96.9l-1.21-.13-.54,3.22-.8,4.3a1.43,1.43,0,0,1-.54-.81l-1.88-7.78-3.36.53-1.74,3.09-.94-.13-1.75-5s-.26-1.34-.67-1.08-1.47.81-1.47.81l-2.69,6.71h-.67l-.94-2.15-5.23,4.7s-.68-7.25-.14-7.51,2.82-.54,2.82-1.08a40.89,40.89,0,0,1,1.75-4.56l-4.3-7.65L400.89,82l.4,7-6-4.7-1.61,2,.13,4.56-2-.67-1.34-2.68L389.48,89a.83.83,0,0,1-.94.94A9.24,9.24,0,0,0,386,90.46Z"/><path class="cls-4" d="M886.17,378.14a26.68,26.68,0,0,1-2.82,1l-1.61.21-1.61,2-.81.6-2.21,2.22-.61.6-.91.73a9.17,9.17,0,0,0-1.3-.73l-2-1-1.81-2.22-.8-1s1.41.41-1.21-.4-2,0-2.62-.8l-.6-.81-4.84-.4h-2.21l-2.22-.81s-.6-.8,0-.8h9.27l1-.41a4.69,4.69,0,0,0,1.21-2.21l.2-1.21,2.22-3.83c-.61-1.2-1.41-2.61-1.41-2.61l1-1.21,2.42,1.21,1.21-1v-1.61l1.81-1.61s5.84-2.42,5.84-3,2.62-2.82,3.83-3.83a15.87,15.87,0,0,0,2-2s1.21.6,1.21-.61a22,22,0,0,0-.2-2.61l4.63-2-1.21.53V342.3c0-1.21,3.62-5.24,3.62-5.24s1.62-2.82,1.62-4,3.62-3.62,3.62-4.83a14.37,14.37,0,0,1,.4-2.82l-4.43-9.26,2-3.63.4-4L897,306.05h-9.66l-2.82,2.82h-6.85l-4,.8-4.43,1.21-5.64-2-2.41,2.42-14.1-.81a7.77,7.77,0,0,1-1.61-2.42,21.53,21.53,0,0,0-2.82-4l-4-.81-6,.81a25.92,25.92,0,0,1-1.21-2.82C831,300,829,292.36,829,292.36l-.8-1.61-4.43-1.21-3.63,2-2.82,1.21-.8,2-4.43.41a29.63,29.63,0,0,1-.41,4.83c-.4,2-5.23-1.21-5.23-1.21l-6.31,3.49.87,8.79,2.42,5.24-2.42.6s-5.23-1-5.84-1a12.2,12.2,0,0,0-2.82,1.41l-3.82.4-1-2.42-1-.2-1.41.4v1.41c-.6.61-3.42.61-3.42.61a19.18,19.18,0,0,0-2.82-.2,20.71,20.71,0,0,0-4.63,1v1l-1,2-1.81-.8-4-2.62-5.23-.81-3.83.81h-1.81l-3.82-.2-1.82.6-2,1.41L741.19,323l-1.41,2.82L737,326l1.21,4.23,3.82,4.84s1.82,7.25,1.82,7.85a6.11,6.11,0,0,1-1,2l-3.22,2L736,352.56l-1.61,5.64v3.43l2,3,1,2-3,.81-2.62.4.81,10.47,4.83,3h2.82c1.61,0,4.43.2,6.24,0s5.44-.4,5.44-.4l5.24-.81,2.41,1.61s1.61,1,2.22.4a12,12,0,0,0,1.61-1.61,35.37,35.37,0,0,1,2.82-2.82l1.81-1h3.42l2.59-.49c.16-.4.36-.9.63-1.53l2.42-5.63,7.25-3.23,9.06,1,2.22.61,4.63-.81,3,1,2,2.61,1.41,4.84,1,1,2.61.81,4.64,6.64L817.5,385l1,.81h2.06l2.22,2.21.8,1,.81-3.42v-1.41s-2.82.4.81-.81-.21.2,3.62-1.21l3.83-1.41,1.2-3.82.2-1.21,1.82-2.82.4,2.42.4,1,4.63.81s1.21.81.61,1.21.6,0-.61.4a6,6,0,0,1-2.61.4,36.32,36.32,0,0,0-3.83.41v.8l3.62.4.41,1.82,1.61.6,3,.4,4.63-.2s-.6-.2,1.81-1.41l2.42-1.21,1.81-.2s1.81-1.2,1.81,0,1-1.61,0,1.21l-1,2.82-7.25,8.86.8,1h2.82l1-.61,1.81-.8,1.21.8,1.61.2h1.21l2.41,1s1.62-4.23,1,1.61-2,5.24-.6,5.84c3.62,1.21,1.81,1.21,3.62,1.21s2.62-2.22,3.42-2.82,2-1.61,2-1.61l.6-2.62s1.81-2,2.62-2.21,2,0,2.62-.81l.6-.8.2-2,.61-1.61,1.41-1,.8-1.41a13.08,13.08,0,0,1,2-.21l3-.8,2.61-1.61a11.77,11.77,0,0,0,.41-2.62,5,5,0,0,0,.8-2v-1.41A3.77,3.77,0,0,0,886.17,378.14Z"/><polygon class="cls-4" points="898.85 381.96 899.63 382.82 899.63 382.82 898.85 381.96"/><path class="cls-4" d="M739.47,185.41l-.1.08Z"/><path class="cls-4" d="M740.65,184.55l-.07,0Z"/><path class="cls-4" d="M740.9,184.44l0,0Z"/><path class="cls-4" d="M740.49,184.65l-.07,0Z"/><path class="cls-4" d="M740.78,184.49l0,0Z"/><path class="cls-4" d="M739.71,185.22l-.11.08Z"/><path class="cls-4" d="M739.93,185.05l-.1.07Z"/><path class="cls-4" d="M740.13,184.89,740,185Z"/><polygon class="cls-4" points="744.27 187.91 744.27 187.91 744.27 187.91 744.27 187.91"/><path class="cls-4" d="M740.32,184.76l-.08.06Z"/><path class="cls-4" d="M738,186.66l.09-.08Z"/><path class="cls-4" d="M738.32,186.38l.13-.11Z"/><path class="cls-4" d="M737.66,187l.12-.09Z"/><path class="cls-4" d="M738.6,186.14l.11-.09Z"/><path class="cls-4" d="M739.12,185.7l.11-.09Z"/><path class="cls-4" d="M743.81,186.61a1,1,0,0,0,0-.1Z"/><path class="cls-4" d="M737.48,187.12l13-35.31s-2.42-7.65-3.62-7.65-5.64-4.84-5.64-4.84l-6-4.83v-4.43s-3.22-6.44-6.85-9.26L724.68,118v-7.25L713,96.23l1.21-11.68s-7.66-7.25-10.48-8.45-2.41-4.43-2.41-4.43l.4-4.84-2.82-3.62.2-5.64-4.23-1.21-3-3-3,2.62-4.22,2.42-.41,4.43L682.39,67,684,69.45l-.2,6L682,79.32l-3-2-4.63-1.61-.41,1.82a1,1,0,0,1-1,1.2,31.86,31.86,0,0,1-3.63.61c-.8,0-2,.8-2.41,0a37.91,37.91,0,0,0-2-4c-.6-.8-2.82-3.42-2.82-3.42l-3.22.8-.8,1.41,1.41,1.21.4,3,1,2.42,10.48,4,4.43,1.82,1.41,9.26,1.4.4.61,5a8.11,8.11,0,0,0,1.21,2.21,35.81,35.81,0,0,1,2.41,4v6.84l4.13,5.81a1.11,1.11,0,0,0,.3-.17l.81-.6,3.22-1s1.21.2,1.41.81-.2,1,.6,1.21a9,9,0,0,1,1.61.6l1.41.6.81,2.62v3.22a6.23,6.23,0,0,1,0,2c-.2.8-1.81,1.81-1.81,1.81l-.81,1.41,1.21,3.62-1.21,3.83-2.62,5.64s-2.61,5.23-3.42,5.64-3.82,1.4-4.23,2a3,3,0,0,0-.4,2.21,6.25,6.25,0,0,0,1.21,1.61v1.41l-1.21,2-2.21.4-2.42,2v3.83l3.62,8.05,2.42,6.25,2.42,1.2L686,190.47l1,5,2.62,4h4l5.43,1a14.75,14.75,0,0,0-1.41,3c-.4,1.41-1.41,1.21-.4,1.41a26.45,26.45,0,0,0,3.42.2l3-.4.61,1.41c1.21-.21,3-.41,3-.41l2.62-1.21,1.41-2.21,2-1.41,3.83-.81,2.41-3.22,1.41-2a21.18,21.18,0,0,0,3.22-.81c2.82-.8,6-3.62,6-3.62a8.13,8.13,0,0,0,3.83-.6,34.33,34.33,0,0,0,3.36-2.77Z"/><path class="cls-4" d="M743.71,186.34c0-.1-.07-.2-.11-.3C743.64,186.14,743.68,186.24,743.71,186.34Z"/><path class="cls-4" d="M738.86,185.92l.11-.1Z"/><path class="cls-4" d="M701.72,66.83l1.21-3.22L701.32,60l4.43-4V51.53h-4.83s-.81,2.82-2,1.61-5.64-5.23-5.64-5.23l6.85-2.82s-.4-2.82-2.42-3.22-6.84-2.82-9.66-3.23-.81-2.82-4-.8l-3.22,2s1.81,1.81,1.81,2.42a49.85,49.85,0,0,1-1.41,4.83l-1.21.6-1.41-1.81-.8,1.61s-.4,2.42-.6,3.43.2,2.21-.61,2.21-2,2-2.42,0a16.91,16.91,0,0,1-.4-2.82V45.09l.2-2-1.61-.2-1.21.4-1.81,1.82v4l-.8,2.42s-2.82.2-3.43-.2-1.2-1.21-2-1.21a18,18,0,0,0-3.42,1s-1,1-.41,1.41a6,6,0,0,0,1.82.6l1.61.61,2,.6a3.93,3.93,0,0,0,.2,2,7.16,7.16,0,0,1,.4,2.42s-.6.8-1.2.8h-1.82a17.78,17.78,0,0,1-2.81-.4h-1.82l-.4,1V62l2.42,2s-2.22-.6-2.82-.2-2.42.81-2.42,1.61a12.71,12.71,0,0,1-.6,2.62h-1.41l-.61-3.42c-1.41.2-2.82,0-2.82.6s.61,1.61,0,1.61-1.4.61-2.21-.2l-1.41-1.41-.2-.8s-1.21.4-1.21,1.21a6.38,6.38,0,0,0,.81,2.21s2,1.61,1.41,1.61-1,.2-2,.2-3.22-.4-3.22.2a8.79,8.79,0,0,0,1.21,2.42l3,2.22a6.64,6.64,0,0,1-2.82.8c-1.41,0-4.63-.4-4.63-.4s-1.41-.61-1.41.2a32.94,32.94,0,0,1-.61,3.62s-.2,1,.41,1a13.77,13.77,0,0,1,2.41.6s.21,2.22.21,2.82a2.51,2.51,0,0,1-.41,1.21h-3.62a18.64,18.64,0,0,1-1.61-1.81c-.41-.6-2-.81-2.82-.81h-3.83s1.41,1.62,2.22,1.62h2l1,.6-2.82,2.21h-6.65L625,88.58s.41-1.41.81.4,1.81,1.82,1.81,1.82L629,90l3-1.61.6-1.21,4.23-.2,3.43,1-1,1.81L636.68,91l-3.62.8s1,4.43.2,4.63-4.63.81-5,1.41-1,1.82-1,1.82l.8,1,2.82-.2-.8,1v1.81l-4.23,2.22s-.4,2.21,0,2.81,1.61.61,1.61.61c.6,1,2.62,2,.6,2.41a23.77,23.77,0,0,0-4.23,1.41L620.37,116s-2.62,3-2.62,3.62a3.1,3.1,0,0,0,.41,2.22,15.64,15.64,0,0,1,1.2,2s2.22-.4-1.2.6-3.43,2.62-3.43,2.62l1.82,2.22v2.61l-1.41,2.42v2.21l1,1.62s3.83.4.41,1.61-5.84,1.81-5.84,1.81l-2.42,1.81v1.41l1.21,1-.61,3.22-1,2.82-2.22.2-1.61-.4-2.21,3.62-.81,3.63s1,1.41-.6,1.81l-1.61.4s-2.62-.6-.21,1,3.43,2.21,3.43,2.21l3.62-.4s.2,1.41-.8,1.81-3.63,1.21-3.63,1.21H600l-1.81-1.61-.2-1.21-3-.2-.2,2.21-1,1.62H593l-1.41-.21-2,1.21s-.2.2-.2,1-.4,3.82-.4,3.82a8.77,8.77,0,0,1-2.42,0c-.6,0-1.41-.2-2.41-.2h-1.61l-2.62.41-.81,1.2.61,2,2,1,.4,1.62-.2,1.2h-2.62l-1.61.21h-2l-.81,1.2.21,2.82-1,1.21h-2l-4.22-.4-1.82-.4-.8.6v1.81l1.41,1,2.21,1.61-3.22.6-.4,2.42v.8l.8,1.41.41,1.41-3.43.41.41,2.41,3.82.61L569,203h-4.83v2a5,5,0,0,1-.8,2.21l-.2,1.61,1.2.41,2.22-.61.4,1.61-1.41,1-.4,1.81.4,1.21a12.63,12.63,0,0,1,2.22,1c1,.6-.81-.61,1,.6l1.82,1.21s2-2.42,2.21-1.81a6.5,6.5,0,0,1,.2,1.61l-1.21.6-1.41,1-1,1.21-.2.8.2.81v1.21l-.81.8-3.22,1.21v3.62l.81.81,2.61-.2,3.63-.61v5.24L572,235l-4.22-1-2-1,.2,3.22,1.21,2,2.22,1.61,2.41,2,1.61,1.61.61,2.41s-1.41.61,0,.81a17.72,17.72,0,0,0,3.22.4,14.77,14.77,0,0,1,3,.4l2.42.21a6.07,6.07,0,0,0,2.82-.41c1.81-.6,3.62-1.41,3.62-1.41l3.42-3.42s2.42-7,3.63-7.45,2.21-1.21,4.23-1.61,5.43-1.41,5.43-1.41v-8.86l1-.4s1.81,1.21,2,2.41.41,3.83.41,3.83l1,1.41c.81.8,1.41.4,1.61,1.21l2,.6,1.61,1.41,2.62-3.42-1.21-3-.4-4.63s1.2-2.62,1.41-3.23,1.61-1.41,1.61-1.41,2.61-8,2.21-8.65-2-3.63-2-3.63l-1.41-3.42h2.41l1.21-5.24v-2.82l-5.23-3.42,1.21-2.62-3.23-16.71,1-5.44.6-4.83,1.41-2.62,3-1.41H629a39.29,39.29,0,0,0,.2-5.43c-.2-1.21-2-1.61-2-1.61l-1.81-3.43,4.43-9.26-2.62-10.87,4-1.61s1.62-.61,2.22-.81,0-1.61,0-1.61L632.05,121l.2-2.42,3.42-3.22a19.74,19.74,0,0,0,1.41-3.42,9.12,9.12,0,0,0-.2-2.22c-.2-.8-1.61-5-1.61-5l3-7.85,3.83-1.21a21,21,0,0,0,3.22-.2c.6-.2,0-1.21,0-1.21v-4s.6-1.81,1-3,3,0,3,0l5.23.81,1.21-.81-.4-4-1.61-2.82L653,77.1l4.83-.6,2,1.81-.4-3L658,74.08l.8-1.41,3.22-.8s2.22,2.62,2.82,3.42a37.91,37.91,0,0,1,2,4c.4.8,1.61,0,2.41,0a31.86,31.86,0,0,0,3.63-.61,1,1,0,0,0,1-1.2l.41-1.82L679,77.3l3,2,1.81-3.83.2-6L682.39,67l1.81-4.23.41-4.43L688.83,56l3-2.62,3,3,4.23,1.21-.2,5.64Z"/><path class="cls-4" d="M701.32,60l1.61,3.62-1.21,3.22-.4,4.84s-.4,3.22,2.41,4.43,10.48,8.45,10.48,8.45L713,96.23l11.68,14.5V118l3.62,2.82c3.63,2.82,6.85,9.26,6.85,9.26v4.43l6,4.83s4.43,4.84,5.64,4.84,3.62,7.65,3.62,7.65l-13,35.31c1.54-1.36,3.07-2.69,3.51-2.69A2.36,2.36,0,0,1,743.6,186c.61,1.61.61,2.21,1.41,2.82s-.4.6.81.6h7.65c.6,0,2.62,1.61,2.62,1.61-1,.81-7.05,2.62-7.05,2.62l-5.64,2.42-2,3-2,1.81.4,2.21,4.23.61v2l-3.22,3.63-1.62,8.86,7.66,8.86-.81,5.23,2.82,2.42v6l2.42.8,2.81.41s-1.2,0,0,4.43l1.21,4.43,4,1.61,2.82-1.21,1.61.4,2,1.21,1.21-2.42s.81-1.2,2,0l3.22,3.23,4-3.23,5.64.81,2.42,1.21-2,4,1.61,2.81.4,3.23,5.23,2,2,4.83,3.62,1.21,2,2.82,2,2.42,2,.4,2.42-1.61s4,.4,4,2v4L804,282.29l-3.22,1.21.81,6.84,4.83,8.46s4.83,3.22,5.23,1.21a29.63,29.63,0,0,0,.41-4.83l4.43-.41.8-2,2.82-1.21,3.63-2,4.43,1.21.8,1.61s2,7.65,2.42,8.86a25.92,25.92,0,0,0,1.21,2.82l6-.81,4,.81a21.53,21.53,0,0,1,2.82,4,7.77,7.77,0,0,0,1.61,2.42l14.1.81,2.41-2.42,5.64,2,4.43-1.21,4-.8h6.85l2.82-2.82H897l1.21,2.42-.4,4-2,3.63,4.43,9.26a14.37,14.37,0,0,0-.4,2.82c0,1.21-3.62,3.62-3.62,4.83s-1.62,4-1.62,4-3.62,4-3.62,5.24v6.16l1.21-.53,7.25-4,1-2.62,2.62-.81.81.61a1.51,1.51,0,0,1,.6,1.21c0,.8.81,0,0,.8s.61.4-.8.81-5,6.24-5,6.24l.61,2-3,.61-2,.4L893,354.58l.61,1.61,2,1.81,1.61.2,1.41-.4,2.62.6,2,.61v.8l-1.61,1h-3.22l-1.41,2,.81,1,.2,1.81-.41,8.66a3.26,3.26,0,0,1-2.21,1,27.21,27.21,0,0,0-4,1c-1,.61-1.81,1-1.81,1.62l1,.6s1,.4.4,1.21l-.6.8.6,1.21,1.41.2h6.44l1.82,2,2.61.6a2.19,2.19,0,0,1,1.61-.8c1,0,2.82.2,2.82.2s-.6.4.2.8a8.8,8.8,0,0,0,2.82.81c.61,0,2.42-.61,3.23-.61a10.69,10.69,0,0,1,3.62,0c1.61.41,7.63,4.44,7.63,4.44l0-360.23H807.09L811.93,33l-3.49,3.75,4.3,9.13-3.09,2-2.42,2h-2l-6.85.4A3.89,3.89,0,0,1,796,47.91l-.4-3.23s-2.82,0,0-3.22l2.81-3.22-8.45-8L785.08,33l-2.41,3.22-6.85.8,2.42,1.61,4.43.41,3.62,7.65,4,6.84,2,.81,4,.4,2.42,2.82L802,64l.4,2.42v4l-2,.4-3.63-2v-2l-9.66-.4.8,1.61v2.82a3.54,3.54,0,0,1,.81,2.42c0,1.61-2,4.83-2,4.83l-2.42,5.24-3.22,6.84,3.22,3.22,7.65,1.21,2.42,3.22,2.41,3.23a27.47,27.47,0,0,1-4.83,1.2c-1.21,0-12.89,1.21-12.89,1.21l-10.87-3.62-.4,2.41a2.25,2.25,0,0,0,0,2c1.21,2.41,6,5.63,6,5.63l4-1.2h4.83l1.21,5.23s.4,2.82-.81,3.63,1.21,2.82-2.82,2.82H771L769.78,116h-3.62l-2.82.4-5.64-8.46-4.83-3.22.8-6.85L750.45,95l-6.85-.4s-4.83-.8-6.44-2-6-5.64-6-5.64-2.42-2.82-.81-2.82h8.06s-2.42,1.21,0,2.42,6,3.62,7.65,2.82,3.62-2,6-2h9.67l10.87-1.21,8-6.84,1.21-16.11-5.23-4-4-4.83-10.87.4-8.86-.4-8.46-5.24h-14.5l-4.83,2.42-8.86.81s-1.61-.81-1.61-2a31.26,31.26,0,0,1,.4-3.62h-5.64v2s1.61,2.82,0,2.82h-3.62V56Z"/><path class="cls-4" d="M603,232.75l-.34.09Z"/><path class="cls-4" d="M603.42,232.63l-.31.09Z"/><path class="cls-4" d="M603.86,232.52l-.35.09Z"/><polygon class="cls-4" points="602.58 232.86 602.58 232.86 602.58 232.86 602.58 232.86"/><path class="cls-4" d="M604.24,232.41l-.25.07Z"/><path class="cls-4" d="M605.87,232h0Z"/><path class="cls-4" d="M605.83,232l-.09,0Z"/><path class="cls-4" d="M605.72,232l-.15,0Z"/><path class="cls-4" d="M605.51,232.06l-.16,0Z"/><path class="cls-4" d="M605,232.21l-.19.06Z"/><path class="cls-4" d="M605.29,232.12l-.24.07Z"/><path class="cls-4" d="M604.65,232.3l-.31.09Z"/><path class="cls-4" d="M664.75,75.14a1.31,1.31,0,0,1,.12.15A1.31,1.31,0,0,0,664.75,75.14Z"/><path class="cls-4" d="M664.39,74.68l.17.21Z"/><polygon class="cls-4" points="673.99 77.25 673.93 77.51 673.99 77.25 673.99 77.25"/><path class="cls-4" d="M664.6,74.94l.11.14Z"/><path class="cls-4" d="M691.27,118.39h0Z"/><path class="cls-4" d="M687.22,120a1.11,1.11,0,0,1-.3.17A1.11,1.11,0,0,0,687.22,120Z"/><path class="cls-4" d="M691.33,118.4a3.06,3.06,0,0,1,.75.25A3.06,3.06,0,0,0,691.33,118.4Z"/><path class="cls-4" d="M691.25,118.38h0Z"/><path class="cls-4" d="M662.57,72.48l-.14-.16h0Z"/><path class="cls-4" d="M664.2,74.45l.17.21Z"/><path class="cls-4" d="M662.63,72.55l.12.14Z"/><path class="cls-4" d="M676.35,122.21c0-.81-3.42-1.41,1-2s2.21-1.2,4.43-.6a14.11,14.11,0,0,0,3.22.6,3.31,3.31,0,0,0,1.91,0l-4.13-5.81v-6.84a35.81,35.81,0,0,0-2.41-4,8.11,8.11,0,0,1-1.21-2.21l-.61-5-1.4-.4-1.41-9.26-4.43-1.82-10.48-4-1-2.42-2-1.81-4.83.6.81,3.22,1.61,2.82.4,4L654.6,88l-5.23-.81s-2.62-1.21-3,0-1,3-1,3v4s.6,1,0,1.21a21,21,0,0,1-3.22.2l-3.83,1.21-3,7.85s1.41,4.23,1.61,5a9.12,9.12,0,0,1,.2,2.22,19.74,19.74,0,0,1-1.41,3.42l-3.42,3.22-.2,2.42,1.41,1.41s.6,1.41,0,1.61-2.22.81-2.22.81l-4,1.61,2.62,10.87-4.43,9.26,1.81,3.43s1.81.4,2,1.61A39.29,39.29,0,0,1,629,157h-8.26l-3,1.41-1.41,2.62-.6,4.83-1,5.44L618,188.05l-1.21,2.62,5.23,3.42v2.82l-1.21,5.24h-2.41l1.41,3.42s1.61,3,2,3.63-2.21,8.65-2.21,8.65-1.41.81-1.61,1.41-1.41,3.23-1.41,3.23l.4,4.63,1.21,3-2.62,3.42-1.61-1.41-2-.6c.21.8.81,2.82.81,2.82l1,7.65h3l3.22-.41-1.81,9.07.6,1.61,2.82,1.41-.4,2v1.21l2.41,1.61s1.61,4.43,2,5.23,3.82,2.62,3.82,2.62v2.42a12.59,12.59,0,0,1-1.21,3.42s-2.81,0-2.81.81a7.85,7.85,0,0,0,.6,2.21,12.69,12.69,0,0,1,2.62,1.81c.4.61,4.23,3.43,4.23,4s-3.23,2.62-1.62,3.22,9.07,1,9.07,1,2.82-.81,2.82-1.61.4-.81,0-2a24.25,24.25,0,0,0-1.41-3l.4-2.22,2-1.21,1.21-2,.4-1.41,2.42-1.21H654s1.81,3.63,1.81,2a51.61,51.61,0,0,1,2.22-9.26c.4-.8,2-7.65,1.81-8.66s-1-4.63-1-4.63-.6-7-.6-7.65-.2-7.25-.2-7.25l-.21-2.21,4.64-3,1.81-2.22,1.61.6a10.72,10.72,0,0,0,1.41-1.2l2.21-2.22.61-1v-2l-3-.2a13.84,13.84,0,0,1-2,1.41,17.54,17.54,0,0,1-3,.81,7.55,7.55,0,0,1-1.61.2l-1.61-1.82-1.41-.2-5-.6h-2s-.4-1.61.61-1.61h9.66s2-3,2.62-3a.9.9,0,0,1,.81.6l.6,2.82,6.44-4.23.81-2-1.81-4-3.22-.8-1.62-1.41-1.2-1.41-4.43-2-3-1-.81-1.61-1-12.29v-3.22l-.2-1.21,1.21-1.61-1-1.61s-.2,0-1-1.21-1.21-1-1.21-1.81a23.33,23.33,0,0,1,.6-3.22h2.22l2.21-.2.41-7.86,3-1,.6-1.21.6-3.22,4-.61s2.42-8.66,3.42-9.26,4.23-1.61,4.84-3.42,1-3.43,1-3.43l.41-5s-3.63-1.61-3.63-2.21.41-2.82.41-2.82l1-3.63.2-2.62,2.22-2s2-.2,1.81-1S676.35,123,676.35,122.21Z"/><path class="cls-4" d="M663,73l.21.25Z"/><path class="cls-4" d="M662.83,72.79,663,73Z"/><path class="cls-4" d="M663.72,73.86l.21.26Z"/><path class="cls-4" d="M664,74.18l.15.19Z"/><path class="cls-4" d="M663.5,73.6l.19.23Z"/><path class="cls-4" d="M663.27,73.32l.17.2Z"/><polygon class="cls-4" points="826.55 290.3 823.75 289.54 826.55 290.3 826.55 290.3"/><path class="cls-4" d="M733.94,318.67l1.21,6.31,1.81,1,2.82-.2,1.41-2.82,7.65-3.22,2-1.41,1.82-.6,3.82.2h1.81l3.83-.81,5.23.81,4,2.62,1.81.8,1-2v-1a20.71,20.71,0,0,1,4.63-1,19.18,19.18,0,0,1,2.82.2s2.82,0,3.42-.61v-1.41l1.41-.4,1,.2,1,2.42,3.82-.4a12.2,12.2,0,0,1,2.82-1.41c.61,0,5.84,1,5.84,1l2.42-.6L801,311.08l-.87-8.79,6.31-3.49-4.83-8.46-.81-6.84,3.22-1.21,3.63-1.61v-4c0-1.61-4-2-4-2l-2.42,1.61-2-.4-2-2.42-2-2.82-3.62-1.21-2-4.83-5.23-2-.4-3.23-1.61-2.81,2-4-2.42-1.21-5.64-.81-4,3.23L769,250.47c-1.21-1.2-2,0-2,0l-1.21,2.42-2-1.21-1.61-.4-2.82,1.21-1.46-.58-2.3,1.79-.54,2.68v1.21l-2.81-.67-1.75,1.74-3.62,3.9.4,3.08,1.07.67,1.21.54v1.48l-5.5,7.11.13,7.66s2.28.13,2.28.53a27.53,27.53,0,0,1-1.88,3.49s-1.34-1.34-1.88-1.74a7.85,7.85,0,0,0-1.61-.81l-4.43,7.79-2.41-.14-2.42-.13-1.61.67-2.55.27-.81,1.34,3,5.51,3.62,3.75,2,6.85s-4.3,3.22-4.3,3.62-.4,2.82-.4,2.82.67,1.35,1.07,1.48A19.39,19.39,0,0,0,733.94,318.67Z"/><path class="cls-4" d="M739.17,218.26l1.62-8.86,3.22-3.63v-1.24l-.61-.86-3.62-.52-2.22,1.62-5.43-.21-4.84-.2s-5-.4-5,.2,1,1.62-.2,2.22-2.82,1.41-3.83,1.81-2.82,1-2.82,1a5.65,5.65,0,0,1-.6,2.62,9.71,9.71,0,0,1-2.82,2.21,4.06,4.06,0,0,0-1.81,1.21c-.4.6-2.62,2.82-2.62,2.82l2.22,4,2,3.62,2.21,2.62h3.23l1.81-1.21.8,1.41.41,6.24v1.48l3.62-3.9,3-1.61h6.85l1.81,2.82,2,.2,8.46-1.81.81-5.23Z"/><path class="cls-4" d="M730.85,252.76l3.63,4,2.81.14,1.62-1.08,1.88,1.48,3,2.55,3.09,2.69,3.62-3.9,1.75-1.74,2.81.67v-1.21l.54-2.68,2.3-1.79-2.57-1-1.21-4.43c-1.2-4.43,0-4.43,0-4.43l-2.81-.41-2.42-.8v-6L746,232.35l-8.46,1.81-2-.2-1.81-2.82h-6.85l-3,1.61-3.62,3.9v1.14l.8,1.21,1.21,2.61s-1,4.23-1,4.84,0,2-1,2-4.43.2-4.43.2a5.6,5.6,0,0,1-1.21-.6c-.61-.4-.61-.4-.81-1.21s-.2-3.22-.8-3.42a17.76,17.76,0,0,0-1.82-.41H709l-2-2.61-2.22-1-4,2.82-1.41,3.22-2,10.27.2,6.44,2.22,4.84.2.39,4.9-6.84,15.44-3.49s1.2,2,1.61,2,5.1-1.88,5.1-1.88Z"/><path class="cls-4" d="M730.18,292.76l1.61-.67,2.42.13,2.41.14,4.43-7.79a7.85,7.85,0,0,1,1.61.81c.54.4,1.88,1.74,1.88,1.74a27.53,27.53,0,0,0,1.88-3.49c0-.4-2.28-.53-2.28-.53l-.13-7.66,5.5-7.11v-1.48l-1.21-.54-1.07-.67-.4-3.08-3.09-2.69-3-2.55-1.88-1.48-1.62,1.08-2.81-.14-3.63-4L727,257.19s-4.7,1.88-5.1,1.88-1.61-2-1.61-2l-15.44,3.49-4.9,6.84h0a24.39,24.39,0,0,1,1.81,4c0,.6.2,4.22.2,4.22l1.41,1.62v.2h.93l5.77,2c.41.13,5.64.13,5.64.13s1.34-.53,1.88-.13a6.21,6.21,0,0,1,1.08,2.15s-.41,1.21-.54,1.61a18.77,18.77,0,0,0-.27,2.28l1.88,1.48A7.26,7.26,0,0,0,722,288.6c.81.13,4.57,1.48,4.57,1.48a15.91,15.91,0,0,0,1.26,2.93Z"/><path class="cls-4" d="M701.91,275.33v0Z"/><path class="cls-4" d="M701.89,275.09v0Z"/><path class="cls-4" d="M701.88,274.91v0Z"/><path class="cls-4" d="M722,288.6a7.26,7.26,0,0,1-2.28-1.61l-1.88-1.48a18.77,18.77,0,0,1,.27-2.28c.13-.4.54-1.61.54-1.61a6.21,6.21,0,0,0-1.08-2.15c-.54-.4-1.88.13-1.88.13s-5.23,0-5.64-.13l-5.77-2h-.93l.19,5.23h-1.41a44.35,44.35,0,0,1-7-.4l-.61,1.21-1.41,1,.61,3,1.61,1.21a20.11,20.11,0,0,1-2.17,3.88l1.9,1,17.45-1.48,6.18-1.61a19.39,19.39,0,0,0,4-1.71C722.37,288.69,722.13,288.62,722,288.6Z"/><polygon class="cls-4" points="464.32 284.71 462.91 280.88 461.9 278.67 458.68 278.46 455.11 279.29 454.32 280.28 448.95 282.42 447.6 285.64 446.26 288.06 447.87 292.36 449.21 292.63 452.17 292.36 457.27 295.31 458.97 296.52 459.08 295.78 461.1 295.78 462.71 294.37 464.72 293.16 466.73 292.36 467.54 289.54 464.32 287.12 464.32 284.71"/><path class="cls-4" d="M738.17,330.21,737,326l-1.81-1-1.21-6.31a19.39,19.39,0,0,1-2.15-.27c-.4-.13-1.07-1.48-1.07-1.48s.4-2.41.4-2.82,4.3-3.62,4.3-3.62l-2-6.85-3.62-3.75-3-5.51.81-1.34.19,0a15.91,15.91,0,0,1-1.26-2.93s-3.76-1.35-4.57-1.48a7.26,7.26,0,0,1-2.28-1.61l-1.88-1.48a18.77,18.77,0,0,1,.27-2.28c.13-.4.54-1.61.54-1.61a6.21,6.21,0,0,0-1.08-2.15c-.54-.4-1.88.13-1.88.13s-5.23,0-5.64-.13l-5.77-2h-.93l.19,5.23h-1.41a44.35,44.35,0,0,1-7-.4l-.61,1.21-1.41,1,.61,3,1.61,1.21a28.42,28.42,0,0,1-2.82,4.84s-1.81,2-2.42,2a15.78,15.78,0,0,1-1.81-.2s1.41-.61-.81-.61a28.87,28.87,0,0,1-4.83-.2,12.48,12.48,0,0,1-2.21-1l.2-1.82,1.21-1.61.2-.8-.81-.2-5-.41-5,1.21-6.24,4.63S654.6,304,652.79,304s-4.23,2.21-4.23,2.21l-.4,3.22s-.2,1.82-1.41,1.41l-1.71-.59.25,2.69,2.18,3.45-.18,2.36-2.36,2.54v1.81l3.08,2,2.54,1.45.91,5.44s.55,2.91.73,3.45.36,4,.36,4l2.54,2.73,1.09,1.27-1.27,8,1.63.18.18-1.27,2.18-.18,1.27,2.91,10.35.72v.91s-2.18.91-1.46,1.63,3.63,3.09,3.63,3.09.91,1.81,1.64,1.63,2.54.36,2.54-.91a4.8,4.8,0,0,0-.36-2L674.69,356l2.18-.18,2.18.54,1.63,2,1.45-.55,2,.55.36,1.63s-1.45,1.27,1.09,1.45.54.73,2.54.18l2-.54,2.36.36,1.81.18.54,2.73L698.1,368l2.54.18,1.82-3.27,3.81,2.18.72,2.72h2.18l3.45-3.63,10.89-1.27,4.35-1.09,4,4,2.43-.37,3-.81-1-2-2-3V358.2l1.61-5.64,3.63-5.63,3.22-2a6.11,6.11,0,0,0,1-2c0-.6-1.82-7.85-1.82-7.85Z"/><path class="cls-4" d="M805.15,407.74l3.59,1.71,3.58-3.74,6.23-3.11,1.84.89c-.18-.66-.27-1.19-.27-1.19l-3-1.61v-3.62l.81-.61,1.81-.4,2.82-4s.8-.4,0-1.21l-1.41-1.41-2.82-1.61-4.43,2.64-4.36-.31-1.09,1.25v4.67l-.78,4.37-.94,4.36Z"/><path class="cls-4" d="M826.16,383l.07,0Z"/><path class="cls-4" d="M826.32,383l.06,0Z"/><path class="cls-4" d="M814.89,383.57l-4.64-6.64-2.61-.81-1-1-1.41-4.84-2-2.61-3-1-4.63.81-2.22-.61-9.06-1L777,369.08l-.13.29,4.28.12,11,13.61a9.86,9.86,0,0,0,2.45,1.08c.59,0,3.23.1,3.23.1l3.62,19.78,1,2.55,2.72,1.13,1.56-3,.94-4.36.78-4.37v-4.67l1.09-1.25,4.36.31,4.43-2.64v-2h.15l-1-.81Z"/><path class="cls-4" d="M825.43,383.28l.1,0Z"/><path class="cls-4" d="M826,383.1l.06,0Z"/><path class="cls-4" d="M825.69,383.2l.09,0Z"/><path class="cls-4" d="M820.13,402.33h0Z"/><path class="cls-4" d="M820.39,403.49h0l-1.84-.89-6.23,3.11-3.58,3.74-3.59-1.71-2.72-1.13-1-2.55-3.62-19.78s-2.64-.1-3.23-.1a9.86,9.86,0,0,1-2.45-1.08l-11-13.61-4.28-.12.13-.29c0,.07-.28.64-2.42,5.63-.27.63-.47,1.13-.63,1.53l-2.59.49H768l-1.81,1a35.37,35.37,0,0,0-2.82,2.82,12,12,0,0,1-1.61,1.61c-.61.61-2.22-.4-2.22-.4l-2.41-1.61-5.24.81s-3.62.2-5.44.4-4.63,0-6.24,0h-2.82l2.42,5-6.85,4,.61,1.81-.61,3.63-5.23,16.71-4,1-1.21,1a11.86,11.86,0,0,1-1,.81,4.43,4.43,0,0,0-1.2,1.41l3.82,3.22,2.62.81,1.21,3.82,3.82,1.61,3,3.22s0,3.83.81,4.23,5.44,2.42,5.44,2.42h2l2.82-2.62,2.21-.2.61,1-.81,1-.8,1.21,1.81,2.62,4,1V442s4.83,1.61,7.25,1.61,10.47-1.21,10.47-1.21a15.41,15.41,0,0,1,6.64-1.21,59.24,59.24,0,0,1,6,.61l1.61-1,2.82-4.83a10,10,0,0,1,4.63-4.43c3.23-1.41,5.84-3,7.45-3s6,1.61,7.66,2.21c1.32.5,6,.86,7.68,1a4,4,0,0,0-.44-1.17c-.6-1-.4-1-.8-2.62s-1-6.44-1-6.44V417.2l-.2-4.43.6-1.81c1-.2,2.22-.2,2.22.4v1.81l.81.61,4.22-2v-4.63c0-1,.61-1.61.21-2.61A8.85,8.85,0,0,1,820.39,403.49Z"/><path class="cls-4" d="M777,369.08Z"/><path class="cls-4" d="M813.66,426.82l0,.15Z"/><path class="cls-4" d="M813.71,427.06l0,.14Z"/><path class="cls-4" d="M813.61,426.55l0,.17Z"/><path class="cls-4" d="M813.56,426.26a1.77,1.77,0,0,1,0,.2A1.77,1.77,0,0,0,813.56,426.26Z"/><path class="cls-4" d="M813.51,425.92c0,.09,0,.18,0,.27C813.54,426.1,813.52,426,813.51,425.92Z"/><path class="cls-4" d="M813.84,427.7c0,.06,0,.12,0,.17S813.85,427.76,813.84,427.7Z"/><path class="cls-4" d="M813.15,423.49h0c0,.28.08.57.12.87C813.23,424.06,813.18,423.77,813.15,423.49Z"/><path class="cls-4" d="M813.75,427.29l0,.14Z"/><path class="cls-4" d="M813.79,427.51l0,.12Z"/><path class="cls-4" d="M813.28,424.43l0,.21Z"/><path class="cls-4" d="M815,431.07a5.72,5.72,0,0,1,.17.59A5.72,5.72,0,0,0,815,431.07Z"/><path class="cls-4" d="M813.46,425.63a1.55,1.55,0,0,0,0,.21A1.55,1.55,0,0,1,813.46,425.63Z"/><path class="cls-4" d="M814.68,430.49a2,2,0,0,1,.13.25A2,2,0,0,0,814.68,430.49Z"/><path class="cls-4" d="M812.47,437.74l1.61-.4,1.21-4.23a7.46,7.46,0,0,0-.17-1.45c-1.65-.11-6.36-.47-7.68-1-1.62-.6-6.05-2.21-7.66-2.21s-4.22,1.61-7.45,3a10,10,0,0,0-4.63,4.43l-2.82,4.83-1.61,1a59.24,59.24,0,0,0-6-.61,15.41,15.41,0,0,0-6.64,1.21s-8.06,1.21-10.47,1.21-7.25-1.61-7.25-1.61v-1.81l-4-1-.16-.23-.57,5.24-.66,2,1.16,2a9.07,9.07,0,0,1,1.15,2c.16.66,3.13,3,3.13,3l4,1.49L752.06,462l-.82,4.11s.17,3.46.82,4a43.24,43.24,0,0,0,4.62,2l2.47,1.49,2,8.72,9.88-2.14,3.13-4.28h3.79l1.81,2h4.61l3.79.33s3.79-.66,4.61-1.32,4.12-1.81,4.12-2.8v-4.12l2.8-3.29s.5-3.95,1.65-4.28,5.6-2,5.6-2l1.64.66h2.31l3.66-2.31a15.91,15.91,0,0,0-2-3c-.6-.4-2-2-2.82-2.21a6.22,6.22,0,0,0-1.41-.21s1.21-2.81,1.61-3.62-.2-6-.2-6v-3.42Z"/><path class="cls-4" d="M814.84,430.81a1.47,1.47,0,0,1,.1.22A1.47,1.47,0,0,0,814.84,430.81Z"/><path class="cls-4" d="M813.33,424.75l0,.18Z"/><path class="cls-4" d="M813.42,425.34l0,.19Z"/><path class="cls-4" d="M813.37,425.05l0,.18Z"/><path class="cls-4" d="M814.13,458l-.06-.11Z"/><path class="cls-4" d="M814.23,458.16l.16.27Z"/><path class="cls-4" d="M814.41,458.47l.11.18Z"/><path class="cls-4" d="M808.41,452.85c-.1.24-.17.39-.17.39s.07-.15.17-.39Z"/><path class="cls-4" d="M813.89,457.61l.05.08Z"/><path class="cls-4" d="M812.58,455.76l0,0Z"/><path class="cls-4" d="M813.3,456.68Z"/><path class="cls-4" d="M812.73,455.91l0,0Z"/><path class="cls-4" d="M828.58,465.53l-6.24-.2s-2.82-2.22-3.63-2.82-3.82-3.22-3.82-3.22l-.37-.64L810.86,461h-2.31l-1.64-.66s-4.45,1.65-5.6,2-1.65,4.28-1.65,4.28l-.93,1.09,1.93,1.23.13,2.15-2.28,2.69.4,3.08s-.87,2.75-1.59,5.14c.11.19.69,1.17,1,1.17s1.35.54,2,.54a17.41,17.41,0,0,0,2.41-.4l2.69-.67,1.21-.27s1.61,1.07-.41,1.47-2,0-2.41.68-.54.94-.81,1.34-2.68,4.16-2.68,4.16l1.47,1.74s3.23-6,3.76-6.17a37.27,37.27,0,0,0,3.9-2.69l1.74-2.41,1.08-4,.4-.94,7.58-3.49a17.48,17.48,0,0,1,3-1,30,30,0,0,0,4.23.21,2,2,0,0,0,1.41-1.82C829,468.35,828.58,465.53,828.58,465.53Z"/><path class="cls-4" d="M812.91,456.14l0,0Z"/><path class="cls-4" d="M813.68,457.26l0,.07Z"/><path class="cls-4" d="M813.08,456.37l0,.06Z"/><path class="cls-4" d="M813.48,457l0,.07Z"/><path class="cls-4" d="M797.41,482.1v0Z"/><path class="cls-4" d="M797.47,482.19h0Z"/><path class="cls-4" d="M797.37,482l0,0Z"/><path class="cls-4" d="M797.78,482.64v0Z"/><path class="cls-4" d="M797.34,482l0,0Z"/><path class="cls-4" d="M797.69,482.51Z"/><path class="cls-4" d="M798.22,483.06h0Z"/><path class="cls-4" d="M797.87,482.75l0,0Z"/><path class="cls-4" d="M798.55,483.14h0Z"/><path class="cls-4" d="M798.3,483.1h0Z"/><path class="cls-4" d="M798,482.85l0,0Z"/><path class="cls-4" d="M798.14,483l0,0Z"/><path class="cls-4" d="M798,482.91l0,0Z"/><path class="cls-4" d="M800.66,468.88l-1.93-1.23-1.87,2.2V474c0,1-3.29,2.14-4.12,2.8s-4.61,1.32-4.61,1.32l-3.79-.33h-4.61l-1.81-2h-3.79L771,480.06l-9.88,2.14-2.48,1.72-.54,1.61-3.22,1.74-3.49-.26-2.68,2.55s-.68,2.68-1.21,2.82-3.49.26-3.49.26L740.52,494l.13,4.16-1.07,5.23-.54,2.29-2.15,1.07-3.14,7.09a3,3,0,0,0,.32.43c.41.4,5.1,4.7,5.1,4.7l4.7,1.34,1.61-.41s2,1.21,2,1.62.4.8-.14.8H743.2l-.8.54s-1.35.94.13,1.47l1.48.54s2,1.34,2.14,1.88,1.35,3.09,1.35,3.09l1.21.4s1.47-1.34,2.41-1.34,3,.13,3.49.13,3.09.41,3.36,0a8.91,8.91,0,0,0,.53-.94l1.48-.4,1.61.27,1.34-.4.54-.81,2.69-.13,3.35.94,1.34.13.94,1.21-.53.54-1.21.4.4,1.07.14.67-1.08.94-1.07.27L764,532l-3.09-1.35a4,4,0,0,0-1.21-.4c-.4,0-2.14-.13-2.14-.13s-.27-.67-.94,0-.68,1.21-1.62,1.74-1.07.81-1.61.81-2.95-.4-2.95,0-.4,3.89-.4,3.89l-.94.13-1.08.81,6.45,2.28.67,3.36,1.61,2.68-.4,2.55s-1.21,0,.27,1.35a23.38,23.38,0,0,0,3.62,2.55s.27.53.67,0a2,2,0,0,0,.54-1.61v-2.82l2.55.27s-.14,1.61.4,1.87,2,1.08,2,1.08-.4,4,.14,4.29,2.28,2.15,2.28,1.08v-4.57l.94-1.88,1.34.14.81,1.21s.4,1.61,1.48,1.88,3.35,1.47,2.81.8a1.77,1.77,0,0,1-.4-1.34l-.4-3.89a28.67,28.67,0,0,0-2.42-3.9,41.17,41.17,0,0,1-3.89-4.83c-.13-.4.81-2.28.81-2.28l2.41,1.07s1.21-.27,1.34.67a11.18,11.18,0,0,1,.14,1.48l2.28-.54,3.36-1.88-2.29-1.74-1.07.4s.54.54-.13.54a5.52,5.52,0,0,1-1.48-.27s-.27,0-.27-.54a7.24,7.24,0,0,0-.67-1.88V534l-1.61-.27V532l2.68-1.35,1.48-.94,2.55,1.08s-.13,1.07,1.21,1.34,2.55.4,2.95.54a7,7,0,0,1,1.08.53l-1.21-2.55-1.34-2.55.53-1.88-2-1.2L778,523.92v0l3.3-.78,2,4.43,3.83.6,1.81-.4-.4-1.41-3.83-1-1.81-6-1.81-1.21s-5.64-.4-6.45-.6,0-1.41,0-1.41l-4.23-.4-2.41,3s2,.2,2.62.2,5.43,2.62,6.24,2.82c.43.11.46.79.39,1.41h-3.41l-1.34-1.48-.81-.54-.67.81h-1.07a9.51,9.51,0,0,1-.68-1.34s-.13-.27-.67-.27-3.62.27-3.62.27l-1.88-.41s-.4-.67,0-.8a28.9,28.9,0,0,0,2.68-2l1.08-.94a11.37,11.37,0,0,0-.54-2.41c-.27-.4-1.21-.94-.27-1.75a8.52,8.52,0,0,1,1.48-1.07,1.62,1.62,0,0,1,1.21.27,3.23,3.23,0,0,1,.53,1.47l-.13,1.08a1,1,0,0,0,.67,0,8.24,8.24,0,0,0,1.48-1.21l-.94-2.42s-1.75-.8-2.55-1.07-4.7-3.76-4.7-3.76l-3.36-3.76.41-7.38s1.2-2.15,1.74-2.15h.54l.67,1.21s-1.48,1.21-1.08,1.61.68.67,1.21.67a28.32,28.32,0,0,1,3.63,1.21s2.41,3.62,2.95,3.76,2.69.27,2.69.27l1.2.13-.67-.8-2.15-1.08-.8-.27-1.34-1.47.27-1.21.94-.4,2.14.4,1.48,1.07,1.74,1.88.81-.54s.81,0,.27-.93a4.67,4.67,0,0,0-1.61-1.88c-.54-.27-1.75-1.08-1.75-1.08s-.27-.94.54-.94A6.88,6.88,0,0,1,776,494c.53.26,1.88,1.07,2.68,1.61s1.21,1.07,1.48.67a4.8,4.8,0,0,0,.4-1.48,1.3,1.3,0,0,0-.67-.67,3.11,3.11,0,0,1-.94-.8l-2.82-.94-2.28-.54-1.75-1.21-.8-1.74L771,488l3.89.26,2.42-2.95,2.68-1.61s.67.94,1.08.94a13,13,0,0,0,1.61-.27s2.68-2.55,3.35-2.55l11.28.13,0,0c.72-2.39,1.59-5.14,1.59-5.14l-.4-3.08,2.28-2.69Z"/><path class="cls-4" d="M756.68,472a43.24,43.24,0,0,1-4.62-2,2,2,0,0,1-.43-.93l-1.45.87H747.9l-1.75-.81-2,.81-1.07,2.68-4.3,1.88-.8,2.55-.81,2.15-4.16.67-.27,2.42.81,2.68.67,3.49A9,9,0,0,0,735,491c.26.27,3.37,1.89,5.51,3v0l3.49-1.35s3-.13,3.49-.26,1.21-2.82,1.21-2.82l2.68-2.55,3.49.26,3.22-1.74.54-1.61,2.48-1.72-2-8.72Z"/><polygon class="cls-4" points="761.12 482.2 765.29 481.3 765.29 481.3 761.12 482.2"/><path class="cls-4" d="M735.7,515.77l.1.09Z"/><path class="cls-4" d="M735.46,515.55l0,.05Z"/><path class="cls-4" d="M735.14,515.25l.14.13Z"/><path class="cls-4" d="M736,516l.08.07Z"/><path class="cls-4" d="M733.75,513.83l3.14-7.09,2.15-1.07.54-2.29,1.07-5.23-.13-4.12c-2.14-1.11-5.25-2.73-5.51-3a9,9,0,0,1-.8-2.55l-.67-3.49-.81-2.68.27-2.42,0-2.58-.9-2.32-3.93-2.41L726.39,470l-3.12,1.1-1.41-.4-.71-1.21-.8,3.23-1.51,2,.1,2-.28,3.83c.84.36,1.85.84,1.85.84.68.27,1.88,2.55,1.88,2.55a5.3,5.3,0,0,0-.53,1.74v2l.4,1.07.54.54.53,1.88-.94,2.28v1.07l.41,1.35v.67l-1.48,2.82s.4,1.34.81,1.47a5.35,5.35,0,0,1,1.07.67s1.48.81.54,1.21-.41-.13-.94.4-.94-.13-.54.54a7.13,7.13,0,0,0,1.48,1.48l1.47.13,3.23.94.93,1.08,2.42,4,.4,1.21H733a12.63,12.63,0,0,0,.92,1.56A2.49,2.49,0,0,1,733.75,513.83Z"/><path class="cls-4" d="M736.21,516.24l.19.17Z"/><path class="cls-4" d="M734.07,514.26l-.15-.18Z"/><path class="cls-4" d="M736.88,516.85l0,0Z"/><path class="cls-4" d="M734.94,515.07l.06,0Z"/><path class="cls-4" d="M734.73,514.87l.06.06Z"/><path class="cls-4" d="M734.14,514.32l0,0Z"/><path class="cls-4" d="M737.28,517.22l-.21-.2Z"/><path class="cls-4" d="M737.72,517.62l0,0h0Z"/><path class="cls-4" d="M734.55,514.7l.05.06Z"/><path class="cls-4" d="M734.23,514.41l0,0Z"/><path class="cls-4" d="M734.37,514.54l0,0Z"/><path class="cls-4" d="M765.63,443.06l-.39,0Z"/><path class="cls-4" d="M764.72,443.17l-.33,0Z"/><path class="cls-4" d="M765.17,443.11l-.35.05Z"/><path class="cls-4" d="M763,443.37l-.25,0Z"/><path class="cls-4" d="M764.28,443.22l-.32,0Z"/><path class="cls-4" d="M763.41,443.32l-.28,0Z"/><path class="cls-4" d="M766.07,443l-.41.05Z"/><path class="cls-4" d="M763.84,443.27l-.3,0Z"/><path class="cls-4" d="M761.58,443.5h0Z"/><path class="cls-4" d="M760.62,443.57h0Z"/><path class="cls-4" d="M760.35,443.58h0Z"/><path class="cls-4" d="M762.33,443.44l.23,0Z"/><path class="cls-4" d="M762,443.47l.21,0Z"/><path class="cls-4" d="M760.92,443.55h0Z"/><path class="cls-4" d="M761.24,443.53h0Z"/><path class="cls-4" d="M731.93,457.67l4.93,5.54,6.14,2.72.3,1.31-1.81,4.13-.13,2,1.71-.75,1.07-2.68,2-.81,1.75.81h2.28l1.45-.87a19.48,19.48,0,0,1-.39-3l.82-4.11,4.78-7.41-4-1.49s-3-2.3-3.13-3a9.07,9.07,0,0,0-1.15-2l-1.16-2,.66-2,.57-5.24.16.23L747,436.53l.8-1.21.81-1-.61-1-2.21.2L743,436.13h-2s-4.63-2-5.44-2.42-.81-4.23-.81-4.23l-3-3.22-3.82-1.61-1.21-3.82-2.62-.81-3.82-3.22-8.26-.91-1.11,1.71-2.82.91L705.55,422s1.41,5.34,1.61,5.94,1.21.91,1.21.91a28.8,28.8,0,0,1,2.92,1.51c.3.3,0,.4,0,.7s-1.11.51-1.51.81.4,2.52.4,2.52a17.33,17.33,0,0,1,1.71,2.31,7.31,7.31,0,0,1,0,1.51l-.91,1.31-1,3,1.61.61,2.92,2.71.2,2.22-.4.81-.51.1-1.21-.41-1.3.1L712,451l.71,2.32-1.11.7v1.11l10.87,8.25,6,.91,2.12-2.82-1.21-1.31,1-1.21Z"/><path class="cls-4" d="M751.92,469.84s0,0,0,0S751.93,469.85,751.92,469.84Z"/><path class="cls-4" d="M751.72,469.38v0Z"/><path class="cls-4" d="M751.81,469.63l0,0Z"/><polygon class="cls-4" points="732.73 482.31 732.84 482.68 732.84 482.68 732.73 482.31"/><polygon class="cls-4" points="741.49 471.37 743.3 467.24 743 465.93 736.86 463.21 731.92 457.67 730.41 458.98 729.41 460.19 730.62 461.5 728.5 464.32 728 465.73 727.19 466.84 725.58 467.44 724.88 467.74 725.23 470.37 726.39 469.96 728.2 472.57 732.13 474.99 733.03 477.31 733 479.89 737.16 479.22 737.97 477.07 738.77 474.52 743.07 472.64 741.36 473.39 741.49 471.37"/><path class="cls-4" d="M726.39,470l-1.17.41-.34-2.63.7-.3,1.61-.6.81-1.11.5-1.41-6-.91-10.07-7.64-1.91-.31-2.92-.81-1,1.51,1,3.33,2.22,2.72.1,1.61-1.31.7-.1,2.42.7,1.41-2.72,3,.3,2.24,3.16.37,1.48,1.08,3.22,3.49a29.77,29.77,0,0,0,3.09,1.61c.53.13,2.81,1.21,2.81,1.21.47.18,1.19,1.34,1.59,2l6.3-5,2.6-4.11-2.8-1.72Z"/><path class="cls-4" d="M710.48,455.46l1.91.31-.8-.61v-1.11l1.11-.7L712,451l-.7-2.32,1.3-.1,1.21.41.51-.1.4-.81-.2-2.22-2.92-2.71-1.61-.61,1-3,.91-1.31a7.31,7.31,0,0,0,0-1.51,12.67,12.67,0,0,0-1.38-1.92l-4,2.39-1.34-2.41-8.72-.67-1.08,1.47-5.5-.8-4.16-.67h-2.29l-1.2,1.2-2,.27-1.88,1.75-1.47-1.21-1.61-.54-1.08,5.64,2.28,2.28,3.36,5.91,10.34,9.8h2.28l2.55,2,3.36,2.55-.14,2s-.27,1.07,1.21,1.47,2.68.14,3.89.94a21.27,21.27,0,0,1,3.12,3.16l2.72-3-.7-1.41.1-2.42,1.31-.7-.1-1.61-2.22-2.72-1-3.33,1-1.51Z"/><polygon class="cls-4" points="714.09 457.05 718.04 460.05 718.04 460.05 714.09 457.05"/><path class="cls-4" d="M711.93,437.06v0Z"/><path class="cls-4" d="M711.89,436.73a.51.51,0,0,1,0,.13A.51.51,0,0,0,711.89,436.73Z"/><path class="cls-4" d="M711.89,436.73l0-.12Z"/><path class="cls-4" d="M711.93,437.45v0Z"/><path class="cls-4" d="M711.9,438.11h0c0-.07,0-.17,0-.28C711.91,437.94,711.91,438,711.9,438.11Z"/><path class="cls-4" d="M711.93,437.63c0,.06,0,.11,0,.17S711.93,437.69,711.93,437.63Z"/><path class="cls-4" d="M711.93,437.24v0Z"/><path class="cls-4" d="M711.92,436.89a.71.71,0,0,0,0,.14A.71.71,0,0,1,711.92,436.89Z"/><path class="cls-4" d="M703.33,468.21c-1.21-.8-2.41-.53-3.89-.94s-1.21-1.47-1.21-1.47l.14-2L695,461.23l-2.55-2h-2.28l-10.34-9.8-3.36-5.91-2.28-2.28,1.08-5.64,1.61.54,1.47,1.21,1.88-1.75,2-.27,1.2-1.2h2.29l4.16.67,5.5.8,1.08-1.47,8.72.67,1.34,2.41,4-2.39-.33-.39s-.81-2.22-.4-2.52,1.51-.5,1.51-.81.3-.4,0-.7a28.8,28.8,0,0,0-2.92-1.51s-1-.3-1.21-.91-1.61-5.94-1.61-5.94l-2.76.14-2,2.28-8.32-1.07L691.38,422l-4.69.27L678.63,416h-1.47L676,418.14l-3.36,1.21-.54,6.17-2.68,1.08-.4,4-1.08,1.2h-4.43l-2.15-.53-.4-1.21-2.15.94L657,432.5l-8.47,1.29c-.3.4-.7,1-.52,1.4.26.54,1.07,2.42,1.07,2.42s2,3.35,2.28,3.75.27,1.48.81,1.48h.53s1.75.27,2-.27a3.25,3.25,0,0,0,.53-1.47,21.69,21.69,0,0,1,.41-2.42v-3.36s-.41-1.61,1.34-.67,4.7,3.09,4.7,3.09l2.82,1.88s-.94,2.15-.54,3.22,2.68,3.36,2.82,3.76,1.34,2.55,1.34,2.55h1.34l.81,1.21-1.07,1.48-.41,2.28,1.61,1.07,2.82,1.48c.54.27,3.36,1.61,3.36,1.61l.4,1.48.81.93,1.47.14,2.42-.54a18.29,18.29,0,0,1,3.89,0l.81.27s5.23,3.63,6,3.89a24.89,24.89,0,0,1,2.95,1.61l1.88,1.62.4,1.07,1.88.54,2.15.8,2.95,2.42,1.88,1.07.2,0-.3-2.24A21.27,21.27,0,0,0,703.33,468.21Z"/><path class="cls-4" d="M711.81,436.56l-.08-.14Z"/><path class="cls-4" d="M710.51,434.82l.38.47Z"/><path class="cls-4" d="M711.51,436.11l-.13-.19Z"/><path class="cls-4" d="M711.33,435.86c-.06-.09-.13-.17-.19-.25C711.2,435.69,711.27,435.77,711.33,435.86Z"/><path class="cls-4" d="M711.7,436.38l-.14-.21Z"/><path class="cls-4" d="M711.11,435.57l-.18-.22Z"/><path class="cls-4" d="M648.43,424.58l-.27,1.62,1.8,3.35h.35l.53,1.61s.41.14,0,.67a12.47,12.47,0,0,1-2,1.61l-.28.35L657,432.5l1.74-1.47,2.15-.94.4,1.21,2.15.53h4.43l1.08-1.2.4-4,2.68-1.08.54-6.17,3.36-1.21,1.21-2.15h1.47v-1.07l-3.22-3.76h-2.68v1.61l.4.67-1.75.54h-1.74L668,415.59l-5.78-.13-3.89,3.89-5.23-.4-3.9-.27L646.15,423l2,.81Z"/><path class="cls-4" d="M740.5,381.36h0Z"/><polygon class="cls-4" points="676.88 416.49 676.88 416.49 677.15 415.99 676.88 416.49"/><path class="cls-4" d="M739.78,386.39l-2.42-5-4.83-3L728.17,380,726,377.2l-4,1.88h-5.1l-1.61-.41s-3.76,7.66-4.3,7.39a4.67,4.67,0,0,0-1.61-.27l-1.74-1.21-.67.4-.94,3.9-5.51.53-2.14,3.49-6,1.61-3.08.81-4.3-3.36-3.76-.13.81,5.5h-4.16l-.94,1.35,1.74.94-1.21,1.61-1.07,1.61,1.48,3.62v1.48L675.14,409l-.58,2.15h.85l3.22,3.76V416l8.06,6.31,4.69-.27,1.08,1.35,8.32,1.07,2-2.28,2.76-.14,2.51-3.52,2.82-.91,1.11-1.71,8.26.91a4.43,4.43,0,0,1,1.2-1.41,11.86,11.86,0,0,0,1-.81l1.21-1,4-1,5.23-16.71.61-3.63-.61-1.81Z"/><path class="cls-4" d="M684.94,392l4.3,3.36,3.08-.81,6-1.61,2.14-3.49,5.51-.53L707,385l.67-.4,1.74,1.21a4.67,4.67,0,0,1,1.61.27c.54.27,4.3-7.39,4.3-7.39l1.61.41H722l4-1.88,2.15,2.82,4.36-1.68-.81-10.47,2.52-.39-2.33.36-4-4-4.35,1.09-10.89,1.27-3.45,3.63H707l-.72-2.72-3.81-2.18-1.82,3.27L698.1,368l-2.2-2.45h0l-2.62,3L689.88,371l-1.4,6.28-7.31,3-1.68,1.87-.1,5.43,2.26,4.32Z"/><path class="cls-4" d="M679.49,382.1l1.68-1.87,7.31-3,1.4-6.28,3.37-2.43,2.62-3h0l-1.07-1.18-.54-2.73-1.81-.18-2.36-.36-2,.54c-2,.55,0,0-2.54-.18s-1.09-1.45-1.09-1.45l-.36-1.63-2-.55-1.45.55-1.63-2-2.18-.54-2.18.18,1.82,2.18a4.8,4.8,0,0,1,.36,2c0,1.27-1.82.73-2.54.91s-1.64-1.63-1.64-1.63-2.9-2.36-3.63-3.09,1.46-1.63,1.46-1.63v-.91l-10.35-.72-1.27-2.91-2.18.18-.18,1.27-1.63-.18-.7.82-1.85.46-.23-1.26v-.93l-3.45.58.11.92a.72.72,0,0,1-.11.81,19.3,19.3,0,0,1-2.54,1.84s-1.73,0-1.73.35a5.13,5.13,0,0,1-.69,1.38l-1.61,1.15h-1.62a8.72,8.72,0,0,0-.8.93,7.2,7.2,0,0,1-1.5,1l-1.85.46s.23,1.39-.23,1.39h-3.57a8.49,8.49,0,0,0-1,1.38c-.11.35-.69,1.61-.69,1.61l-1.27-.8-.92-.46-.46,1.61,2,2.19,1.27,1.27,1,2.19-.35,1.5,2.07,4.38,2.89.8,2.65,1,1.49,2.88,3.46,1.38,3.57,2.19s2.31,2.77,2.77,2.77h6.69l2.07-5,.81-1.61,7.26.35,2.65,1.61s1.5-.23,2.65-.46a14.75,14.75,0,0,1,2.42-.35c.37,0,2.54.51,4,.84Z"/><path class="cls-4" d="M682,397.33l-.81-5.5.47,0-2.26-4.32.09-4.8c-1.41-.33-3.58-.84-4-.84a14.75,14.75,0,0,0-2.42.35c-1.15.23-2.65.46-2.65.46l-2.65-1.61-7.26-.35-.81,1.61-2.07,5H651c-.46,0-2.77-2.77-2.77-2.77l-.78-.48-.88,4.75-1.81-.6-.81-.41-1.61.61.2,3.22L638.7,393l-1,2.41,3.42,3.43,1.81,2.61-2.21,1.82-3.22-2h-4.43l-1.41,2.22-4.83,2.21-7.46,1.61-.8-2-6.24-.2-.41,2.62a19.44,19.44,0,0,1-2.81-1.82,14.42,14.42,0,0,1-1.41-1.81l-3.43.61.41,2.61.4,3.23a2.23,2.23,0,0,0-.2,1.41,13.62,13.62,0,0,0,2.21,2.41l3.63,1,2.82-1.21,1.2,1.61,3.83,1,2.21-1.41s1.41-2.42,2-2.42h4l5.23-2.41v2l2,2.62,3.43,2.41,11.74,1.08,3.9.27,5.23.4,3.89-3.89,5.78.13,1.61-1.61h1.74l1.75-.54-.4-.67v-1.61h1.83l.58-2.15,2.69-1.07v-1.48l-1.48-3.62,1.07-1.61,1.21-1.61-1.74-.94.94-1.35Z"/><polygon class="cls-4" points="651.46 418.83 649.23 418.68 651.46 418.83 651.46 418.83"/><path class="cls-4" d="M711.65,506.34,710.18,505l-5.64-3.49a36.29,36.29,0,0,0-3.76-2.41c-.54-.14-8.32-2.42-8.32-2.42l-7.92-2.95-3.22-1.88-1.21-1.48,1.74-1.74s.81-.67.81-1.21a12.09,12.09,0,0,0-.54-2.15l-4.7-.54h-4.16l-1.61.27a7.53,7.53,0,0,1-1.34.27,42.16,42.16,0,0,1-4-1.61L658.9,478l-5.1-11.41-3.63-4.83-14.09-8.06s-.81-6-.67-6.71-.14-2.82.53-2.82h1.21l.14-1.34-.14-1.34-2.68-4.43,1.34-2,1.07-.67.27,1.48h.94s0-.4,1.21-1.21,3.09-2,3.09-2l1.74-1.75v-.8H646l1.48.27.54-.81H650l-1.8-3.35.27-1.62-.27-.8-2-.81,3.08-4.29-11.74-1.08-3.43-2.41-2-2.62v-2L626.82,413h-4c-.61,0-2,2.42-2,2.42l-2.21,1.41-3.83-1-.44,2.09.75,1.44a2.77,2.77,0,0,1-1,.9c-.53.23-1.66.68-1.66.68v-1.74l-1.06.84-1.05.9,1.13,2.42.3,1.36-.6.37-.91-.3-.68-1.28-1.66-.23-2,1.06-2.34.07V422h-1.82l-.45,2.94-1.59,3.1.23,1.66.23.91s-1.51,1-1.89.6a27.07,27.07,0,0,1-1.59-2.26s.08-1.29-.22-1.44-2.72-1.58-2.72-1.58l-.45-3.48-2.5.83-.9,1.81.38,2-2.65,3h-2l-1.36-.15-2.27.83-4.38-.46L576.15,433l3.18,6.12-1.44,2.27-4.08.45.08,1.21,3.47,4.53.08,3.55-1.06,2.34,3.1,2.87,6.19-.08v2l-1.12,3.87a4.26,4.26,0,0,1,.58,0,11.88,11.88,0,0,0,3.43-.8l3.22-2.22-.2-2.81,2.41-.81s1.82-3.22,2.62-3.22a9.46,9.46,0,0,1,2.42,0,19,19,0,0,1,3.42,1l4,3,3.22.8,2,.4,2.22,3.22v3.23l2.41,3.42,1.41,4,1,4s3.63,2.62,3.83,3.23-.2,3.42,1,3.42,3.23.2,3.23.2l16.1,12.28s3,2.62,4.64,2.62,5-1.41,7-.4,5.44,4.43,5.44,4.43l2.62,1.81s1.61-.4,1.21,2l-.41,2.42a5.5,5.5,0,0,0,2.62,0,17.47,17.47,0,0,0,2.62-2.21l2.62,2,.6,1.21-.6,2,.06,1.54,3.9,2.42,2.81-.67,2.42,1.21,2,3.35,3.63,4.84,1.88,7v3.22l-1.34.27-1.61.94-.14,4.16-2.15,1.48.41,3.22,1.2,1.34,2.82.27.81-3.36,3.49-3.62s2.28-.54,2-2-1.21-4.29-1.21-4.29l1.21-2.28,2-1.21,2-.27h1.21l.53-.27-.4-1.61-.4-1.61-.13-1.75v-1.07l-3.5-2.42-3.49-1.2a6.36,6.36,0,0,1-.53-2.56,24.94,24.94,0,0,1,.4-3.62l2.28-5.91,2.55-1.34h3.09l-1.61.81v.8h.54l1.88.14,3.22.13,2.41.27a2.29,2.29,0,0,1,1.21,1.48c.27,1.07,0,1.34.27,1.88s0,1.34.4,1.47,1.88,1.61,2.55,1.88,1.88.94,1.88.94,1.08,1.21,1.08,0,.13-4.43.13-4.43Z"/><path class="cls-4" d="M602.25,295.78a17.21,17.21,0,0,1-.2-2.62l-2-2,.81-1.41.8-.81s-.2.21,0-2a8.34,8.34,0,0,0,0-2.82s3.43-3.62,3.83-4.83a20.31,20.31,0,0,0,.81-4c0-.6,1.2-1.21,1.81-1.21s2.41,2.42,2.41,1.21.41-4,.41-4l.2-1.2-2.22-1.21-1.81-1.41-1-2.62.61-1.61,1.41-1.81-.4-2.22.4-3.82,1-2.62.2-1.21h-2.22s.81,1.41,0,1.81,1.61.2-.8.41a9.17,9.17,0,0,0-3.23.6,5,5,0,0,0-1.41,1l-.8,1.81-3.22,4.43a12.83,12.83,0,0,1-3.43.6h-2.81l-.61.81a36.33,36.33,0,0,0-2,4.83v4l-1,5.84v3.42s-.4,2.22-.4,2.82,3.22,2.42,3.22,2.42a5.92,5.92,0,0,1,2,1.81l-.17,5.94,3.13.84L601,296h1.55Z"/><path class="cls-4" d="M738.17,330.21,737,326l-1.81-1-1.21-6.31a19.39,19.39,0,0,1-2.15-.27c-.4-.13-1.07-1.48-1.07-1.48s.4-2.41.4-2.82,4.3-3.62,4.3-3.62l-2-6.85-3.62-3.75-3-5.51.81-1.34.19,0a15.91,15.91,0,0,1-1.26-2.93s-3.76-1.35-4.57-1.48a7.26,7.26,0,0,1-2.28-1.61l-1.88-1.48a18.77,18.77,0,0,1,.27-2.28c.13-.4.54-1.61.54-1.61a6.21,6.21,0,0,0-1.08-2.15c-.54-.4-1.88.13-1.88.13s-5.23,0-5.64-.13l-5.77-2h-.93l.19,5.23h-1.41a44.35,44.35,0,0,1-7-.4l-.61,1.21-1.41,1,.61,3,1.61,1.21a28.42,28.42,0,0,1-2.82,4.84s-1.81,2-2.42,2a15.78,15.78,0,0,1-1.81-.2s1.41-.61-.81-.61a28.87,28.87,0,0,1-4.83-.2,12.48,12.48,0,0,1-2.21-1l.2-1.82,1.21-1.61.2-.8-.81-.2-5-.41-5,1.21-6.24,4.63S654.6,304,652.79,304s-4.23,2.21-4.23,2.21l-.4,3.22s-.2,1.82-1.41,1.41l-1.71-.59.25,2.69,2.18,3.45-.18,2.36-2.36,2.54v1.81l3.08,2,2.54,1.45.91,5.44s.55,2.91.73,3.45.36,4,.36,4l2.54,2.73,1.09,1.27-1.27,8,1.63.18.18-1.27,2.18-.18,1.27,2.91,10.35.72v.91s-2.18.91-1.46,1.63,3.63,3.09,3.63,3.09.91,1.81,1.64,1.63,2.54.36,2.54-.91a4.8,4.8,0,0,0-.36-2L674.69,356l2.18-.18,2.18.54,1.63,2,1.45-.55,2,.55.36,1.63s-1.45,1.27,1.09,1.45.54.73,2.54.18l2-.54,2.36.36,1.81.18.54,2.73L698.1,368l2.54.18,1.82-3.27,3.81,2.18.72,2.72h2.18l3.45-3.63,10.89-1.27,4.35-1.09,4,4,2.43-.37,3-.81-1-2-2-3V358.2l1.61-5.64,3.63-5.63,3.22-2a6.11,6.11,0,0,0,1-2c0-.6-1.82-7.85-1.82-7.85Z"/><path class="cls-4" d="M679.49,382.1l1.68-1.87,7.31-3,1.4-6.28,3.37-2.43,2.62-3h0l-1.07-1.18-.54-2.73-1.81-.18-2.36-.36-2,.54c-2,.55,0,0-2.54-.18s-1.09-1.45-1.09-1.45l-.36-1.63-2-.55-1.45.55-1.63-2-2.18-.54-2.18.18,1.82,2.18a4.8,4.8,0,0,1,.36,2c0,1.27-1.82.73-2.54.91s-1.64-1.63-1.64-1.63-2.9-2.36-3.63-3.09,1.46-1.63,1.46-1.63v-.91l-10.35-.72-1.27-2.91-2.18.18-.18,1.27-1.63-.18-.7.82-1.85.46-.23-1.26v-.93l-3.45.58.11.92a.72.72,0,0,1-.11.81,19.3,19.3,0,0,1-2.54,1.84s-1.73,0-1.73.35a5.13,5.13,0,0,1-.69,1.38l-1.61,1.15h-1.62a8.72,8.72,0,0,0-.8.93,7.2,7.2,0,0,1-1.5,1l-1.85.46s.23,1.39-.23,1.39h-3.57a8.49,8.49,0,0,0-1,1.38c-.11.35-.69,1.61-.69,1.61l-1.27-.8-.92-.46-.46,1.61,2,2.19,1.27,1.27,1,2.19-.35,1.5,2.07,4.38,2.89.8,2.65,1,1.49,2.88,3.46,1.38,3.57,2.19s2.31,2.77,2.77,2.77h6.69l2.07-5,.81-1.61,7.26.35,2.65,1.61s1.5-.23,2.65-.46a14.75,14.75,0,0,1,2.42-.35c.37,0,2.54.51,4,.84Z"/><polygon class="cls-4" points="600.17 290.91 600.03 291.15 600.17 290.91 600.17 290.91"/><path class="cls-4" d="M655.84,302.26l.21-.15Z"/><path class="cls-4" d="M654.48,303.23l.12-.08Z"/><path class="cls-4" d="M655,302.88l.09-.07Z"/><path class="cls-4" d="M655.41,302.58a1.92,1.92,0,0,0,.17-.13A1.92,1.92,0,0,1,655.41,302.58Z"/><path class="cls-4" d="M657.73,300.78a2.11,2.11,0,0,0,.23-.19A2.11,2.11,0,0,1,657.73,300.78Z"/><path class="cls-4" d="M657.24,301.17l.23-.18Z"/><path class="cls-4" d="M656.3,301.92l.21-.17Z"/><path class="cls-4" d="M656.77,301.55l.22-.17Z"/><path class="cls-4" d="M653,304l.07,0Z"/><path class="cls-4" d="M645.48,310.45h0Z"/><path class="cls-4" d="M645.92,310.6h0Z"/><path class="cls-4" d="M646.33,310.74l.07,0Z"/><path class="cls-4" d="M653.2,303.94l.1,0Z"/><path class="cls-4" d="M654.1,303.47l.13-.08Z"/><path class="cls-4" d="M653.76,303.67l.13-.08Z"/><path class="cls-4" d="M653.46,303.82l.12-.05Z"/><path class="cls-4" d="M669,356.2a.65.65,0,0,0,.1.15A.65.65,0,0,1,669,356.2Z"/><path class="cls-4" d="M669.06,356.35l.17.16Z"/><path class="cls-4" d="M668.94,355.9s0,.06,0,.09S668.93,355.93,668.94,355.9Z"/><path class="cls-4" d="M669.06,355.69l.07-.09Z"/><path class="cls-4" d="M669,355.75l0,.09Z"/><path class="cls-4" d="M668.92,356.05a.3.3,0,0,0,0,.1A.3.3,0,0,1,668.92,356.05Z"/><path class="cls-4" d="M669.44,356.7l-.17-.15Z"/><path class="cls-4" d="M669.69,356.92l.27.24h0Z"/><path class="cls-4" d="M669.69,356.92l-.23-.2Z"/><path class="cls-4" d="M644.64,382.35,641.18,381l-1.49-2.88-2.65-1-2.89-.8-2.07-4.38.35-1.5-1-2.19-1.27-1.27-2-2.19.46-1.61.92.46,1.27.8s.58-1.26.69-1.61a8.49,8.49,0,0,1,1-1.38h3.57c.46,0,.23-1.39.23-1.39l1.85-.46a7.2,7.2,0,0,0,1.5-1,8.72,8.72,0,0,1,.8-.93h1.62l1.61-1.15a5.13,5.13,0,0,0,.69-1.38c0-.35,1.73-.35,1.73-.35a19.3,19.3,0,0,0,2.54-1.84.72.72,0,0,0,.11-.81l-.11-.92,3.45-.58v.93l.23,1.26,1.85-.46.7-.82,1.27-8-1.09-1.27-2.54-2.73s-.18-3.44-.36-4-.73-3.45-.73-3.45l-.91-5.44L648,325.14l-3.08-2v-1.81l2.36-2.54.18-2.36L645.29,313l-.25-2.69-1.71-.62s-1.82-1.2-2-1.81.81-1-1.61-2.41a13.38,13.38,0,0,0-3.42-1.61l-5.24-1-1.61-2.42v-.8l-1.41,1-2.41,3.23s-3.63,0-4,.6-1.21,2-1.21,2l-2,2.22-3-.2s-2.42-.81-2.42-1.41a10.56,10.56,0,0,1,.61-2.22l.4-2.41v-1.62a11.14,11.14,0,0,1-2,.41,15.78,15.78,0,0,0-1.81.2h-4.43a.79.79,0,0,1-.8-.81c0-.8-.2-3.42-.2-3.42L602.59,296H601l-5.5-1.07-3.13-.84,0,.91,3,5,.81,1.21L594,303l1.61,1,.81,1.2-.4,1-.81.4.81.81s-.2-.2,1.61.6l1.81.81,2,1.21,1.82,3.62H600l-1-1.21-2.42-1s1.41-.41-.8-.41-2-1-2.22,0l-.2,1-1.21,3s-2.42-2-2.42,0a2,2,0,0,1-2,2l-.4-3.42-3-.6-3.22.6s-1.21,1-1.21,1.61-1.81.2,0,1.61,2.41,1.82,2.41,1.82l-2.67,1.41.06.13-.14,1.61,1.21,1.34-1.88,5.37s-3.62-.4-3.49.54a8,8,0,0,0,.81,2.15l2.95.53-1.34,4-2,2.42-.13,1.61-7,.27,1.07,4,1.88,3.36-1.34,3-2,4s1.07.27,1.07.81v2s-.81,1.48-.13,1.75.53,2.28.53,2.28.54,1.47.94,1.61a17,17,0,0,1,1.88,1.07l-.4.81-2.55,2.28,1.07,3.49L573,372.1l-2.81,4.56s3.62,4.43,4.16,4.56,15,3.09,15,3.09L585.07,391v7.52c0,.67-.94,4.43-.94,4.43v1.34s1.07.41,1.47.54a17.64,17.64,0,0,0,2.69.27l6,.13-.67-2.28.8-.8,4.16.53s4.43,2.82,5.24,3.22l.64.37-.24-1.57,3.43-.61a14.42,14.42,0,0,0,1.41,1.81,19.44,19.44,0,0,0,2.81,1.82l.41-2.62,6.24.2.8,2,7.46-1.61,4.83-2.21,1.41-2.22h4.43l3.22,2,2.21-1.82-1.81-2.61-3.42-3.43,1-2.41,3.82-1.41-.2-3.22,1.61-.61.81.41,1.81.6.88-4.75Z"/><path class="cls-4" d="M669.48,355.29l-.14.11Z"/><path class="cls-4" d="M669.29,355.45l-.11.09Z"/><path class="cls-4" d="M669.51,355.27l.19-.13Z"/><path class="cls-4" d="M614.73,415.79l-1.2-1.61-2.82,1.21-3.63-1a13.62,13.62,0,0,1-2.21-2.41,2.23,2.23,0,0,1,.2-1.41l-.4-3.23-.17-1-.64-.37c-.81-.4-5.24-3.22-5.24-3.22l-4.16-.53-.8.8.67,2.28-6-.13a17.64,17.64,0,0,1-2.69-.27c-.4-.13-1.47-.54-1.47-.54l-1.35,1.75-.13,1.61-4-1.75-.53.81.67,1.48-4.57,6-5.5,6.44-2.15,5.77,2.69.14.67-3.36,5.64-1.21,1.07,3.63.8,4.16.44.46,4.19.44,2.27-.83,1.36.15h2l2.65-3-.38-2,.9-1.81,2.5-.83.45,3.48s2.42,1.43,2.72,1.58.22,1.44.22,1.44a27.07,27.07,0,0,0,1.59,2.26c.38.38,1.89-.6,1.89-.6l-.23-.91-.23-1.66,1.59-3.1.45-2.94h1.82v2.41l2.34-.07,2-1.06,1.66.23.68,1.28.91.3.6-.37-.3-1.36-1.13-2.42,1.05-.9,1.06-.84v1.74s1.13-.45,1.66-.68a2.77,2.77,0,0,0,1-.9l-.75-1.44Z"/><path class="cls-4" d="M569.36,355.32c0-.54-1.07-.81-1.07-.81l2-4,1.34-3-1.88-3.36-1.07-4,7-.27.13-1.61,2-2.42,1.34-4-2.95-.53a8,8,0,0,1-.81-2.15c-.13-.94,3.49-.54,3.49-.54l1.88-5.37-1.21-1.34.14-1.61-.06-.13,2.67-1.41-3.42,1.81-2.21-3-4.43.4-3.23.2h-1l-2.62,1.81-2.62,1.82v2l1.41,1.21,1.61.2.41.8-.41,4-.2,1-5.23,2.82-1-3,.8-2.62,1-.4a2.19,2.19,0,0,1-.8-1.61,6.18,6.18,0,0,0-.41-2h-2.21l-1,3.43-.6,4.22-.81,2.62s-1.41,3.43-2.41,3.63-2.62.4-2.62.4l.8,1,2.62,1.81a.9.9,0,0,1,.61.8,1.69,1.69,0,0,1-1.21,1.61c-.81.21-3.63,1.41-3.63,1.41l-2.21-1-1.21-1.21s-1-1-1.61-.2a2.58,2.58,0,0,0-.61,1.41l1.41.6,1.61.61,2,.6h1.21l2.61.6v.81c0,.6.61,1,0,1.21l-.6.2-1.21-.4a1.26,1.26,0,0,0-1.41-1.21h-5.43s.19.39-1.16,0l.28.39,2.29,2.42,4.16.94,4.83-.41v-2.82l4.3-.26,1.34,1.34,3.76.13,1.07.94,1.88,1.75L565.74,356l1.47.94,2.15.08Z"/><polygon class="cls-4" points="542.9 347.14 542.9 347.14 542.9 347.14 542.9 347.14"/><path class="cls-4" d="M573,372.1l-2.28-1.48-1.07-3.49,2.55-2.28.4-.81A17,17,0,0,0,570.7,363c-.4-.14-.94-1.61-.94-1.61s.14-2-.53-2.28.13-1.75.13-1.75V357l-2.15-.08-1.47-.94,1.07-4.43-1.88-1.75-1.07-.94-3.76-.13-1.34-1.34-4.3.26v2.82l-4.83.41-4.16-.94-2.29-2.42-.28-.39h0c-1.41-.41-6.24,3-7.05,3.22a9,9,0,0,0-1.1.43l1.77,4.94,3.22.54,1.48,4,8.05,2.55,1.75,5.78,2.28.53,3.89-2.41.27,3.89s3.36,2.82,4.57,3.22,1.21,1.61,4.43,1.75c1.14,0,2.75.07,4.36.09Z"/><path class="cls-4" d="M595.07,453.74l-.15.23Z"/><path class="cls-4" d="M594,455.42l0,0Z"/><path class="cls-4" d="M594.2,455.1a.63.63,0,0,1-.07.12A.63.63,0,0,0,594.2,455.1Z"/><path class="cls-4" d="M595.15,453.64l.09-.13h0Z"/><path class="cls-4" d="M594.09,455.29l0,.06Z"/><path class="cls-4" d="M594.66,454.36l-.1.16Z"/><path class="cls-4" d="M594.86,454.05l-.18.28Z"/><path class="cls-4" d="M594.55,454.53l-.17.28Z"/><path class="cls-4" d="M594.35,454.85l-.12.2Z"/><path class="cls-4" d="M593.75,425.89l.07,0Z"/><path class="cls-4" d="M594,426.05l.08,0Z"/><path class="cls-4" d="M593.89,426l0,0Z"/><path class="cls-4" d="M536.43,350.05l.16-.09Z"/><path class="cls-4" d="M536.77,349.86l.07,0Z"/><path class="cls-4" d="M536.25,350.15l.11-.06Z"/><path class="cls-4" d="M537,349.71h0Z"/><path class="cls-4" d="M535.8,350.35l.1,0Z"/><path class="cls-4" d="M534.72,350.77l.33-.14Z"/><path class="cls-4" d="M582.65,407.67l.13-1.61,1.35-1.75V403s.94-3.76.94-4.43V391l4.29-6.71s-14.5-2.95-15-3.09-4.16-4.56-4.16-4.56l.6-1c-1.61,0-3.22-.05-4.36-.09-3.22-.14-3.22-1.35-4.43-1.75s-4.57-3.22-4.57-3.22l-.27-3.89-3.89,2.41-2.28-.53-1.75-5.78-8.05-2.55-1.48-4-3.22-.54-1.77-4.94a34.19,34.19,0,0,1-4.34,1.78c-.6,0-3.62.41-3.62.41l-2,10.87-13.9,8.05-.8,1.62-2.42,1.2-10.67-1.2-1.41-3.63-1-1.61-3.42-.4-2.42,1,2.22,6.85s3,8.26.2,8.26-13.29.6-13.29.6l-3.22-5.23-8.46.2H461.7a10.26,10.26,0,0,1-2,1.81,12.23,12.23,0,0,0-2.42,2.42l4.63,2.41L459.28,388l15.31,8.66,6.84,6.65-.6,6.84,8.86,9.27,1.81,11.47-2.42,9.27L479,461.9l1.61,2.62,2.41.2.41,2.42,16.11,7.05h5.63l1.41-.81,3.22.2,8.26,3.63s-.81,2,.4,2.41,3.83,1.21,3.83,1.21l4.43-1,2.42,2.42,5.73-1.15a7.89,7.89,0,0,1-1.71-2.27,38.39,38.39,0,0,1,1-4l-1-2,3.43-5.44a2.39,2.39,0,0,0,2.41.4,69.47,69.47,0,0,0,5.84-4.43s4.83,2.42,5.44,2.62a6,6,0,0,1,1.61,1.41l3.82-2.62,1.82.81-.61,1.21-.6.8,1.41.4s1.21.81,1.41,1.41,2.41,2.42,2.41,2.42l5.44.2,5.24-.6,1-2.22,3.63-3.22a1.52,1.52,0,0,0,2-.2c.81-1,2-2.62,2-2.62a22.55,22.55,0,0,1,3.65-1l1.12-3.87v-2l-6.19.08-3.1-2.87,1.06-2.34-.08-3.55L573.89,443l-.08-1.21,4.08-.45,1.44-2.27L576.15,433l1.51-2.72,4.38.46-4.19-.44-.44-.46-.8-4.16L575.54,422l-5.64,1.21-.67,3.36-2.69-.14,2.15-5.77,5.5-6.44,4.57-6-.67-1.48.53-.81Z"/><path class="cls-4" d="M536.08,350.23l.1,0Z"/><path class="cls-4" d="M535.13,350.6c.19-.08.35-.15.48-.19C535.48,350.45,535.32,350.52,535.13,350.6Z"/><path class="cls-4" d="M535.94,350.3l.09,0Z"/><path class="cls-4" d="M534.89,481.09l-5.73,1.15-2.42-2.42-4.43,1s-2.62-.8-3.83-1.21-.4-2.41-.4-2.41l-8.26-3.63-3.22-.2-1.41.81h-5.63l-16.11-7.05-.41-2.42-2.41-.2L479,461.9l-7.66-.2s-2.81-2-4.43-2-4,.2-4.83.2a11.57,11.57,0,0,1-3-1.21,17.22,17.22,0,0,0-7.05-1.81,53.21,53.21,0,0,1-7.45-.4c-1.2-.2-8.86-4.63-8.86-4.63s-8.25-1.41-9.06-1.41-4.83.4-6,0a54.75,54.75,0,0,1-5.43-3s-1-1.41-1.82-1.21-8.66,5.23-8.66,5.23l-9.66,2.62,2.62,8.86.4,3s-2.22,1.81-2.22,2.42v3.82l-.07.95.28.06,5.84-3.42,2.61.2-1,2.21.2,2,5.84,1.61,7.85-.41,4.63.81.61,2.21,1.61,2v5l-8.66,3.63.6,10.67-4.83,1.81,1.41,2.42-2.42,6-4.43-1-.2,2.82,1.21,5,1,.61-4.23,7.85,1.61,3.42s1.61,1.21,1.61,2-7.05,7.25-7.05,7.25l-2,1.21,1.75,5,3.89-.38,5.43,3.42,1.82,3.83s-1.82,4.83-.41,5.84S419,564.8,419,564.8l6.24-5.24,5.84.61,3.22-3.22,12.29,1.2s5.64,1.41,6.24,1.41,3.83.41,4.43,0,1.81-1,1.81-1A12.2,12.2,0,0,0,461.9,560c.6,0,8.66-10.07,8.66-10.07h10.27l1.81-2s1-8.86,2-9.06S494.92,535,494.92,535s-3-9.47-3.62-10.07a17.11,17.11,0,0,1-1.61-3.63l15.1-18.72,20.94-7.65s5-3.43,5.64-4,3.42-3.42,3.62-4.83.81-4,.81-4-.41-.41-.91-1Z"/><path class="cls-4" d="M533.22,479l0,.07Z"/><path class="cls-4" d="M533.49,479.43l.07.1Z"/><path class="cls-4" d="M533.33,479.18a.41.41,0,0,0,0,.09A.41.41,0,0,1,533.33,479.18Z"/><path class="cls-4" d="M533.71,479.73l.06.08Z"/><path class="cls-4" d="M534.34,480.48l-.05-.05Z"/><path class="cls-4" d="M539.5,467.46l0,0Z"/><path class="cls-4" d="M539.23,467.63l0,0Z"/><path class="cls-4" d="M539.83,467.23l0,0Z"/><path class="cls-4" d="M540.18,467l0,0Z"/><path class="cls-4" d="M541,466.4l0,0Z"/><path class="cls-4" d="M540.56,466.71l0,0Z"/><path class="cls-4" d="M534.62,480.8l0,0Z"/><path class="cls-4" d="M414.76,560.83l.45.42Z"/><path class="cls-4" d="M414.3,560.41l.35.32Z"/><path class="cls-4" d="M413.73,559.89l.44.4Z"/><path class="cls-4" d="M397.87,539.23l2-1.21s7.05-6.45,7.05-7.25-1.61-2-1.61-2l-1.61-3.42,4.23-7.85-1-.61-1.21-5,.2-2.82,4.43,1,2.42-6-1.41-2.42,4.83-1.81-.6-10.67,8.66-3.63v-5l-1.61-2L422,476.2l-4.63-.81-7.85.41-5.84-1.61-.2-2,1-2.21-2.61-.2-5.84,3.42-.28-.06-1.13,15.36-10.88,19.13H382s-2.82,2.62-2.82,3.63-.4,4.83-.4,4.83l-.2,1.41,8.25-3.22-3.22,4-3.22,2.22.81,1a1.36,1.36,0,0,0,1.61.6c1-.4,5.43-1.21,5.43-1.21l-3.62,4s.2,6.44.2,7.25-4.83,9.06-4.83,9.06l.2,2.82h1.41l2-1.61,3,.2,2.62,1.21,3.83,2.21,3.22-1.41,3.22-.4,4-.4-3.89.38Z"/><path class="cls-4" d="M412.84,559.08l.3.27Z"/><path class="cls-4" d="M415.77,561.77l.36.34Z"/><path class="cls-4" d="M415.23,561.26l.44.42Z"/><path class="cls-4" d="M413.28,559.48l.43.39Z"/><path class="cls-4" d="M410.78,557.28l-.18-.14Z"/><path class="cls-4" d="M410.35,557a1,1,0,0,1,.19.14A1,1,0,0,0,410.35,557Z"/><path class="cls-4" d="M416.22,562.19l.87.8h0Z"/><path class="cls-4" d="M411.92,558.26l.79.7Z"/><path class="cls-4" d="M411.55,557.94l.26.22Z"/><path class="cls-4" d="M410.85,557.34l.28.23Z"/><path class="cls-4" d="M411.14,557.58l.31.27Z"/></g><path class="cls-5" d="M262.72,767.86c0-123.37,7.79-399.49-32.07-459.07-15.59,13.43-28.59,44.48-28.59,44.48S186.46,344,150.93,344s-51.12,9.23-51.12,9.23-13-31-28.6-44.48c-39.86,59.58-32.06,335.7-32.06,459.07Z"/><path d="M264.07,767.86h-2.71c0-15.71.13-34.22.26-53.82.49-69.71,1.09-156.47-2.76-234.2-2.09-42.24-5.35-77.49-9.69-104.76-4.83-30.37-11.15-52-18.8-64.22-14.67,13.58-26.94,42.63-27.06,42.93l-.6,1.44-1.34-.79c-5.32-3.13-22.72-9.05-50.44-9.05s-45.11,5.92-50.43,9.05l-1.39-2.34c.65-.38,16.33-9.42,51.82-9.42,30.09,0,45.94,6.49,50.46,8.71,2.73-6.23,14.4-31.6,28.38-43.63l1.16-1,.85,1.27c15.47,23.13,25.22,79.28,29.79,171.68,3.86,77.8,3.25,164.61,2.77,234.35C264.2,733.65,264.07,752.16,264.07,767.86Z"/><path d="M192.64,367.4a41.38,41.38,0,0,0-10-4.48c-6.21-2.05-16.76-4.5-31.74-4.5s-25.52,2.45-31.73,4.5a41.61,41.61,0,0,0-10,4.48l-1.57-2.21c.54-.39,13.66-9.48,43.28-9.48s42.74,9.09,43.28,9.48l-1.57,2.21.79-1.1Z"/><path d="M175.65,378.18c-.07-.05-7.73-5.29-24.72-5.29s-24.65,5.24-24.72,5.29L124.64,376c.33-.24,8.34-5.8,26.29-5.8s26,5.56,26.3,5.8l-1.58,2.21.79-1.11Z"/><polygon points="150.93 455.97 134.24 452.34 134.82 449.69 150.93 453.19 167.04 449.69 167.62 452.34 150.93 455.97"/><polygon points="161.55 476.23 150.93 473.92 140.31 476.23 139.74 473.57 150.93 471.14 162.13 473.57 161.55 476.23"/><rect y="453.76" width="53.14" height="2.71"/><rect x="27.6" y="407.06" width="2.71" height="52.55" transform="translate(-381.09 290.23) rotate(-66.94)"/><rect x="243.42" y="453.76" width="53.14" height="2.71"/><rect x="241.32" y="431.98" width="52.55" height="2.71" transform="translate(-148.36 139.46) rotate(-23.06)"/><path d="M95.93,452.12A9.89,9.89,0,1,1,113,442l-2.33,1.38a7.19,7.19,0,0,0-9.84-2.51,7.06,7.06,0,0,0-3.29,4.39,7.14,7.14,0,0,0,.77,5.44Z"/><rect x="149.57" y="454.58" width="2.71" height="17.95"/><circle cx="102.62" cy="443.63" r="4.35"/><path d="M186.4,452.12a9.9,9.9,0,0,1,17-10.09l-2.34,1.38a7.18,7.18,0,0,0-12.35,7.32Z"/><circle cx="193.09" cy="443.63" r="4.35"/><path d="M189.44,583.63l-32-39.87c-.77-.7-5.57-5.27-5.75-10.66a9.21,9.21,0,0,1,3-7c2.42-2.42,5-3.52,7.57-3.25a8,8,0,0,1,1.33.26,8,8,0,0,1-.14-1.72c.09-2.61,1.52-5,4.24-7.06a12,12,0,0,1,5.68-2.6l-1.84-1.84c-.43-.39-3.7-3.47-3.56-7.55.08-2.61,1.51-5,4.24-7.06,7.63-5.79,11.91-.8,15,2.85.68.8,1.33,1.55,2,2.22l.07.09,10.43,12.36a13.48,13.48,0,0,1,8.11-3.72c3-.14,5.91,1.13,8.53,3.74a9.73,9.73,0,0,1,3.19,7.81c-.35,4.56-4,8.37-6,10.09l19.57,20.89-2,1.88-21.63-23.09,1.25-.92c.06-.05,5.69-4.23,6.06-9.07a7,7,0,0,0-2.4-5.64,8.64,8.64,0,0,0-6.44-2.94c-4.08.18-7.24,3.86-7.27,3.9L199.67,517l-12.42-14.73c-.73-.73-1.43-1.54-2.1-2.33-3.32-3.87-5.72-6.67-11.29-2.45-2,1.54-3.09,3.21-3.15,4.95-.11,3,2.63,5.41,2.66,5.43l5.44,5.44a23.6,23.6,0,0,1,3.91,3.89l.16.18,3,3-2.2,1.89-.9-.9c-.67-.67-1.31-1.4-1.93-2.12l-4-4c-2-1.27-4.17-1.28-7.53,1.27-2,1.55-3.1,3.22-3.16,5a6.8,6.8,0,0,0,1.55,4.16,12.7,12.7,0,0,1,1.17,1.31l.09.08.28.43-2.11,1.37-.12.15-.05,0,0,0-.11-.15a12,12,0,0,1-1.2-1.34,6.59,6.59,0,0,0-3.71-1.88c-1.75-.18-3.53.65-5.33,2.45a6.55,6.55,0,0,0-2.14,5c.14,4.54,4.86,8.74,4.91,8.78l.17.17,32,40Z"/></g></g></svg>