<svg xmlns="http://www.w3.org/2000/svg" xmlns:xlink="http://www.w3.org/1999/xlink" viewBox="0 0 1920 1080"><defs><style>.cls-1,.cls-11,.cls-12,.cls-13,.cls-15,.cls-16,.cls-8{fill:none;}.cls-2{isolation:isolate;}.cls-18,.cls-24,.cls-26,.cls-3{mix-blend-mode:multiply;}.cls-3{fill:url(#Degradado_sin_nombre_58);}.cls-4{clip-path:url(#clip-path);}.cls-5{fill:#1980c7;}.cls-6{fill:#69ceed;}.cls-7{fill:#fff;}.cls-11,.cls-12,.cls-13,.cls-15,.cls-8{stroke:#000;}.cls-11,.cls-12,.cls-13,.cls-15,.cls-16,.cls-8{stroke-miterlimit:10;}.cls-9{fill:#427101;}.cls-10{fill:#82d188;}.cls-11,.cls-15{stroke-width:2px;}.cls-12,.cls-13{stroke-width:3px;}.cls-13,.cls-15{stroke-linecap:round;}.cls-14{fill:#1fa1e9;}.cls-16{stroke:#1fa1e9;stroke-width:4px;}.cls-17{fill:#dd7305;}.cls-18{fill:#4fa5e9;}.cls-19{fill:#fa9908;}.cls-20{fill:#ffda5b;}.cls-21{fill:#1b3f07;}.cls-22{fill:#71bf7a;}.cls-23{fill:#86d0ed;}.cls-25{fill:#f1a33a;}.cls-26{fill:#91d190;}</style><linearGradient id="Degradado_sin_nombre_58" x1="1573.68" y1="1014.13" x2="1314.77" y2="467.56" gradientUnits="userSpaceOnUse"><stop offset="0.29" stop-color="#fff"/><stop offset="0.34" stop-color="#fafdfa"/><stop offset="0.4" stop-color="#ebf7eb"/><stop offset="0.48" stop-color="#d2ecd2"/><stop offset="0.55" stop-color="#b0deb0"/><stop offset="0.61" stop-color="#91d190"/><stop offset="0.79" stop-color="#6c9c53"/><stop offset="0.93" stop-color="#567b2d"/><stop offset="1" stop-color="#4d6f1e"/></linearGradient><clipPath id="clip-path"><path class="cls-1" d="M1364.43,595.19l-.49.49c-28.41,33.4-56.1,69.73-80.5,109.36-94.54,153.53,115.3,313.55,242.71,186l.54-.53h0c28.39-33.39,56.06-69.7,80.45-109.32C1701.68,627.62,1491.84,467.59,1364.43,595.19Z"/></clipPath></defs><g class="cls-2"><g id="Capa_1" data-name="Capa 1"><path class="cls-3" d="M1364.43,595.19l-.49.49c-28.41,33.4-56.1,69.73-80.5,109.36-94.54,153.53,115.3,313.55,242.71,186l.54-.53h0c28.39-33.39,56.06-69.7,80.45-109.32C1701.68,627.62,1491.84,467.59,1364.43,595.19Z"/><g class="cls-4"><ellipse class="cls-5" cx="1436.13" cy="719.82" rx="28.72" ry="63.55" transform="translate(711.74 2153.65) rotate(-89.82)"/><rect class="cls-5" x="1376.94" y="701.76" width="117.95" height="129.19" rx="27.35" transform="translate(2.45 -4.57) rotate(0.18)"/><path class="cls-6" d="M1483.68,847.38c.17-55.89,4-162.41-13.93-189.46-7.08,6.06-13,20.11-13,20.11s-7-4.21-23.15-4.26-23.18,4.11-23.18,4.11-5.84-14.09-12.89-20.19c-11.52,17.1-14.66,135.95-15.32,189.37Z"/><path d="M1484.58,793.92c-.09,8.87-.27,46.35-.29,53.47h-1.23c0-7.12.2-44.6.29-53.47"/><path d="M1482.58,741.65c-.89-19.14-2.61-41.31-4.53-53.67-2.15-13.77-5-23.56-8.43-29.13-6.66,6.13-12.26,19.28-12.32,19.42l-.28.65-.6-.36c-2.41-1.43-10.28-4.13-22.84-4.17s-20.45,2.61-22.86,4l-.63-1.06c.3-.17,7.41-4.25,23.49-4.19,13.64,0,20.81,3,22.85,4,1.25-2.81,6.57-14.29,12.92-19.72l.53-.45.38.58c7,10.49,11.4,37.74,13.34,79.61"/><rect x="1376.46" y="711.88" width="1.23" height="24.07" transform="translate(648.78 2098.68) rotate(-89.82)"/><rect x="1377.58" y="702.15" width="1.23" height="23.81" transform="translate(178.2 1698.58) rotate(-66.76)"/><rect x="1486.75" y="712.23" width="1.23" height="24.07" transform="translate(758.36 2209.32) rotate(-89.82)"/><rect x="1474.41" y="713.78" width="23.81" height="1.23" transform="matrix(0.92, -0.39, 0.39, 0.92, -160.82, 634.03)"/><polygon points="1432.74 724.36 1425.18 722.69 1425.45 721.49 1432.74 723.1 1440.05 721.54 1440.3 722.74 1432.74 724.36"/><polygon points="1432.74 732.45 1427.33 731.26 1427.52 730.4 1432.74 731.55 1437.98 730.43 1438.16 731.29 1432.74 732.45"/><path d="M1415.55,719.28h-1.23a3.25,3.25,0,1,0-6.5,0h-1.23a4.48,4.48,0,1,1,9,0Z"/><path d="M1457,719.41h-1.23a3.26,3.26,0,0,0-6.51,0H1448a4.49,4.49,0,1,1,9,0Z"/><rect x="1428.66" y="727.18" width="8.13" height="1.23" transform="translate(700.37 2158.2) rotate(-89.82)"/><path d="M1445.93,675.09c3.52,2.78-.25,8.84-3.22,8.83s-2.52-3.61-2.5-9.83C1440.21,674.09,1445.61,674.84,1445.93,675.09Z"/><path d="M1430.72,673.62c1.6.1,6.84-.08,8.64.66-1.6,1.56-1.27,3.8-1.28,5.58,0,6.21-.45,11.25-3.91,11.24s-2.94-4.21-2.92-10.43A65.1,65.1,0,0,0,1430.72,673.62Z"/><path d="M1419.79,675.88c.27,4.52,1.35,8,5.12,8,4.48,0,4-3.85,4-9.65-1.66.24-3.6.21-5,.5C1422,675.1,1420.72,675.64,1419.79,675.88Z"/><path class="cls-7" d="M1413.35,847.39c-15.52-16.92-3.12-89.82,20.57-89.74,25.2.08,29.52,69.24,29.52,89.65,0,4.74-25.7,2-25.7,2S1417.25,851.64,1413.35,847.39Z"/><path class="cls-5" d="M1417.16,780.28c-5.42,27.42-14,23.5-14,23.5s1.13-4.83,1.85-7.15c2.07-6.7,2.71-10.54,5.34-19.86,3.12-9.23-12.11-33.22-25.94-46.4l.09,0a13.51,13.51,0,0,1,15,4.38C1409.35,747.22,1420.79,761.89,1417.16,780.28Z"/><path class="cls-6" d="M1371.68,705.47a6.83,6.83,0,0,0-9.58-1.27,5.81,5.81,0,0,0-1.76,2.49l-2.76-2.67-4.65-4.5a6.89,6.89,0,0,0-10.08,9.38,8,8,0,0,0-4.82-2,6.82,6.82,0,0,0-6.9,6.75c0,2,1.38,4,3,5.76l-.26-.25a6.89,6.89,0,1,0-9.58,9.91l4.65,4.5,55.31,50.55s3.29-51,2.64-51.68L1372.06,718a.61.61,0,0,0,.23-.4C1372.91,713,1374,708.47,1371.68,705.47Z"/><path class="cls-8" d="M1329,733.58l-4.65-4.5a6.89,6.89,0,1,1,9.58-9.91l.26.25c-1.67-1.79-3.07-3.78-3-5.76a6.82,6.82,0,0,1,6.9-6.75,8,8,0,0,1,4.82,2,6.89,6.89,0,0,1,10.08-9.38l4.65,4.5,2.76,2.67a5.81,5.81,0,0,1,1.76-2.49,6.83,6.83,0,0,1,9.58,1.27c2.29,3,1.23,7.54.61,12.17a.61.61,0,0,1-.23.4l14.88,14.41"/><path class="cls-6" d="M1507.39,752.46a.6.6,0,0,0-.41.22l-25.47-25.86c-.62-.66-9.58,46.27-9.58,46.27l18.86,22.42,4.43,4.72a6.89,6.89,0,1,0,10-9.43l-.25-.27c1.77,1.7,3.74,3.14,5.72,3.14a6.83,6.83,0,0,0,6.86-6.8,8,8,0,0,0-1.93-4.85,6.89,6.89,0,0,0,9.54-9.92l-4.43-4.73-2.63-2.8a5.76,5.76,0,0,0,2.52-1.72,6.82,6.82,0,0,0-1.12-9.59C1516.59,750.92,1512,751.91,1507.39,752.46Z"/><path class="cls-8" d="M1490.79,795.51l4.43,4.72a6.89,6.89,0,1,0,10-9.43l-.25-.27c1.77,1.7,3.74,3.14,5.72,3.14a6.83,6.83,0,0,0,6.86-6.8,8,8,0,0,0-1.93-4.85,6.89,6.89,0,0,0,9.54-9.92l-4.43-4.73-2.63-2.8a5.76,5.76,0,0,0,2.52-1.72,6.82,6.82,0,0,0-1.12-9.59c-3-2.34-7.52-1.35-12.16-.8a.6.6,0,0,0-.41.22l-25.47-25.86"/><path class="cls-5" d="M1485.37,811c2.58-1.06-1.41-24,1.17-25a106.48,106.48,0,0,1-1.93-60.21l-.09,0c-5.62,1.24-9.93,6.26-10.7,12.46C1471.68,755.5,1469,778.58,1485.37,811Z"/><path class="cls-9" d="M1567.06,808.78c.06-15.86-28.36-28.81-63.46-28.92S1440,792.52,1440,808.38c0,3.75,1.59,7.34,4.48,10.64l-.23,73.14a27.36,27.36,0,0,0,27.26,27.45l63.25.2a27.36,27.36,0,0,0,27.44-27.27l.23-73C1565.38,816.22,1567.05,812.59,1567.06,808.78Z"/><path class="cls-10" d="M1519.76,877.87a6.83,6.83,0,0,0,6.86,6.8,5.93,5.93,0,0,0,2.91-.93l.59,3.8,1,6.4a6.9,6.9,0,0,0,13.7-1.41,8,8,0,0,0,2.64,4.51,6.83,6.83,0,0,0,9.58-1.22c1.21-1.57,1.29-4,1-6.44l.06.36a6.89,6.89,0,1,0,13.62-2.11l-1-6.4-17.38-69.17s-29.64,34.2-29.5,35.09l3.16,20.47a.54.54,0,0,0-.42.18C1523.33,871.12,1519.74,874.1,1519.76,877.87Z"/><path class="cls-11" d="M1523.88,847.15l3.16,20.47a.54.54,0,0,0-.42.18c-3.29,3.32-6.88,6.3-6.86,10.07a6.83,6.83,0,0,0,6.86,6.8,5.93,5.93,0,0,0,2.91-.93l.59,3.8,1,6.4a6.9,6.9,0,0,0,13.7-1.41,8,8,0,0,0,2.64,4.51,6.83,6.83,0,0,0,9.58-1.22c1.21-1.57,1.29-4,1-6.44l.06.36a6.89,6.89,0,1,0,13.62-2.11l-1-6.4-17.38-69.17"/><path class="cls-10" d="M1554.38,932.63c.18-55.9,4-162.42-13.92-189.47-7.09,6.06-13,20.11-13,20.11s-7.06-4.21-23.15-4.26-23.18,4.11-23.18,4.11-5.85-14.09-12.89-20.19c-11.53,17.11-14.67,136-15.32,189.37Z"/><path class="cls-7" d="M1543.4,747.38a14.27,14.27,0,0,1-3.41,3.68c-1.83,1.19-6.89,4.82-5.36,8.75s7.43,2.27,7,5,3.68,6.55,7.86,6.77Z"/><path d="M1555.29,879.16c-.09,8.88-.27,46.35-.3,53.47h-1.22c0-7.13.2-44.6.29-53.48"/><path d="M1553.29,826.89c-.89-19.14-2.61-41.31-4.54-53.67-2.14-13.77-5-23.56-8.42-29.12-6.67,6.13-12.27,19.27-12.33,19.41l-.27.65-.61-.36c-2.4-1.43-10.28-4.13-22.84-4.17s-20.44,2.61-22.86,4l-.62-1.06c.29-.17,7.41-4.24,23.49-4.19,13.63,0,20.8,3,22.85,4,1.24-2.82,6.57-14.3,12.92-19.73l.52-.45.39.58c7,10.5,11.39,37.74,13.33,79.61"/><polygon points="1504.13 809.73 1496.57 808.06 1496.83 806.86 1504.13 808.47 1511.43 806.91 1511.69 808.11 1504.13 809.73"/><rect x="1447.17" y="797.12" width="1.23" height="24.07" transform="translate(634.01 2254.36) rotate(-89.82)"/><rect x="1448.28" y="787.39" width="1.23" height="23.81" transform="translate(142.67 1815.15) rotate(-66.76)"/><rect x="1557.45" y="797.47" width="1.23" height="24.07" transform="translate(743.6 2364.99) rotate(-89.82)"/><rect x="1545.11" y="799.02" width="23.81" height="1.23" transform="translate(-188.39 668.23) rotate(-22.88)"/><rect x="1500.05" y="812.55" width="8.13" height="1.23" transform="translate(686.16 2314.68) rotate(-89.82)"/><path d="M1482.67,796.75h0c4,0,7.29,2.9,7.28,6.44s-3.28,6.4-7.3,6.4h0c-4,0-7.29-2.9-7.28-6.45s3.27-6.39,7.29-6.39m0-3c-5.66,0-10.28,4.21-10.29,9.38a9,9,0,0,0,3.13,6.81,10.8,10.8,0,0,0,7.14,2.65c5.69,0,10.31-4.21,10.33-9.39s-4.59-9.43-10.27-9.45h0Z"/><path d="M1523.79,796.88h0c4,0,7.29,2.9,7.28,6.44s-3.28,6.4-7.3,6.4h0c-4,0-7.29-2.9-7.27-6.44s3.27-6.4,7.29-6.4m0-3c-5.66,0-10.28,4.21-10.29,9.39a9,9,0,0,0,3.13,6.8,10.8,10.8,0,0,0,7.14,2.65c5.69,0,10.31-4.21,10.33-9.39s-4.6-9.43-10.27-9.45h0Z"/><path class="cls-12" d="M1490,801.31s4.79-2,14.17-2c6.41,0,7.61.79,12.35,2.08"/><polygon points="1504.2 809.6 1496.64 807.94 1496.91 806.74 1504.2 808.34 1511.51 806.78 1511.77 807.98 1504.2 809.6"/><polygon points="1504.2 817.69 1498.79 816.5 1498.98 815.64 1504.2 816.79 1509.44 815.67 1509.62 816.53 1504.2 817.69"/><path d="M1487,804.52h-1.23a3.25,3.25,0,1,0-6.5,0h-1.23a4.48,4.48,0,1,1,9,0Z"/><path d="M1528.44,804.65h-1.23a3.26,3.26,0,1,0-6.51,0h-1.23a4.49,4.49,0,0,1,9,0Z"/><rect x="1500.12" y="812.42" width="8.13" height="1.23" transform="translate(686.36 2314.63) rotate(-89.82)"/><line class="cls-13" x1="1532.14" y1="801.91" x2="1552.97" y2="791.68"/><line class="cls-13" x1="1473.78" y1="801.84" x2="1456.62" y2="795.98"/><path class="cls-7" d="M1554.42,845.36s-4.57-12.66-11.19-15.18-3.26-11.4-.48-11.52c4.41-.18,10-4.35,10.11,0S1554.42,845.36,1554.42,845.36Z"/><rect class="cls-14" x="1368.04" y="898" width="183.25" height="62.84" rx="14.57" transform="translate(2.97 -4.64) rotate(0.18)"/><path class="cls-6" d="M1492.74,929.22,1426.6,929a15.56,15.56,0,0,1-15.51-15.61h0c0-8.59-.39-15.56-.39-15.56l97.7.31-.05,15.56h0A15.56,15.56,0,0,1,1492.74,929.22Z"/><path class="cls-15" d="M1508.35,913.71h0a15.56,15.56,0,0,1-15.61,15.51L1426.6,929a15.56,15.56,0,0,1-15.51-15.61h0c0-8.59-.39-15.56-.39-15.56"/><path class="cls-5" d="M1394.49,897.79s-.34,8.49,3.68,15.57-11.55,20.38-7.53,25.36,18.6,6.88,42.5,5.41,63.92,6.1,69.82,4.88,48.26,3.25,48.31-10.09c-.07,20.48-8.62,22.18-25.07,22.13l-136.31-.44s-22,3.49-21.88-20.41-2.76-42.5,20-42.43Z"/><path class="cls-16" d="M1400,898.93s27.43-17.67,59.56-17.57,65.82,19.22,65.82,19.22"/><path class="cls-10" d="M1483.43,870.56a.62.62,0,0,0-.42-.18l3.29-20.45c.15-.89-29.27-35.28-29.27-35.28l-17.82,69.06-1,6.4a6.89,6.89,0,0,0,13.61,2.2l0-.36c-.26,2.44-.2,4.87,1,6.44a6.82,6.82,0,0,0,9.57,1.28,8,8,0,0,0,2.67-4.49,6.89,6.89,0,0,0,13.68,1.49l1-6.39.61-3.79a5.81,5.81,0,0,0,2.9.94,6.83,6.83,0,0,0,6.91-6.75C1490.27,876.91,1486.7,873.91,1483.43,870.56Z"/><path class="cls-8" d="M1439.21,883.71l-1,6.4a6.89,6.89,0,0,0,5.7,7.9,7.21,7.21,0,0,0,8-6.06s-.2,4.87,1,6.44a6.82,6.82,0,0,0,9.57,1.28,8,8,0,0,0,2.67-4.49,6.89,6.89,0,0,0,13.68,1.49l1-6.39.61-3.79a5.81,5.81,0,0,0,2.9.94,6.83,6.83,0,0,0,6.91-6.75c0-3.77-3.53-6.77-6.8-10.12a.62.62,0,0,0-.42-.18l3.29-20.45"/><path class="cls-7" d="M1457.8,847.1c-2.25.26-5.68-.76-8.72-1.93l-3.87,15a24.19,24.19,0,0,0,4.65,3.48c5.39,2.93,12.08,3.28,17.86-2.53S1462.65,846.55,1457.8,847.1Z"/></g><path class="cls-17" d="M1665.21,215a57.28,57.28,0,0,1-81.67,80.35A11.64,11.64,0,1,1,1600.13,279,34,34,0,1,0,1642,226.05a11.64,11.64,0,0,1,12.1-19.88A57.33,57.33,0,0,1,1665.21,215Z"/><path class="cls-18" d="M1704.39,369.89a73.87,73.87,0,1,0-73.27,74.46A73.87,73.87,0,0,0,1704.39,369.89Zm-40.61.32a33.26,33.26,0,1,1-33.53-33A33.26,33.26,0,0,1,1663.78,370.21Z"/><ellipse class="cls-19" cx="1306.86" cy="809.61" rx="28.72" ry="63.55" transform="translate(493.09 2113.89) rotate(-89.82)"/><rect class="cls-19" x="1247.67" y="791.55" width="117.95" height="129.19" rx="27.35" transform="translate(2.73 -4.16) rotate(0.18)"/><path class="cls-20" d="M1354.41,937.18c.17-55.9,4-162.42-13.93-189.47-7.08,6.06-13,20.11-13,20.11s-7-4.21-23.15-4.26-23.17,4.11-23.17,4.11-5.85-14.09-12.9-20.19c-11.52,17.1-14.66,135.95-15.32,189.37Z"/><path d="M1355.31,883.71c-.09,8.87-.27,46.35-.29,53.47h-1.23c0-7.12.2-44.6.29-53.47"/><path d="M1353.31,831.44c-.88-19.14-2.61-41.31-4.53-53.67-2.15-13.77-5-23.56-8.43-29.13-6.66,6.13-12.26,19.28-12.32,19.42l-.27.65-.61-.36c-2.41-1.43-10.28-4.13-22.84-4.17s-20.45,2.61-22.86,4l-.63-1.06c.3-.17,7.41-4.24,23.49-4.19,13.64,0,20.81,3,22.85,4,1.25-2.81,6.57-14.29,12.92-19.72l.53-.45.39.58c7,10.5,11.39,37.74,13.33,79.61"/><path d="M1323.18,774.21a19.15,19.15,0,0,0-4.52-2.05,51.79,51.79,0,0,0-28.75-.09,19.25,19.25,0,0,0-4.53,2l-.71-1c.25-.17,6.2-4.27,19.63-4.23s19.35,4.18,19.59,4.36l-.71,1,.35-.5Z"/><path d="M1315.47,779.07s-3.5-2.41-11.2-2.44S1293.1,779,1293.06,779l-.71-1c.15-.11,3.79-2.61,11.93-2.59s11.75,2.56,11.9,2.67Z"/><polygon points="1304.15 814.27 1296.6 812.61 1296.86 811.41 1304.15 813.02 1311.46 811.46 1311.72 812.66 1304.15 814.27"/><polygon points="1304.15 822.37 1298.74 821.17 1298.93 820.31 1304.16 821.46 1309.39 820.35 1309.57 821.21 1304.15 822.37"/><rect x="1247.19" y="801.67" width="1.23" height="24.07" transform="translate(430.13 2058.92) rotate(-89.82)"/><rect x="1248.31" y="791.94" width="1.23" height="23.81" transform="translate(17.44 1634.16) rotate(-66.76)"/><rect x="1357.48" y="802.02" width="1.23" height="24.07" transform="translate(539.71 2169.55) rotate(-89.82)"/><rect x="1345.14" y="803.57" width="23.81" height="1.23" transform="translate(-205.89 590.84) rotate(-22.88)"/><path d="M1287,809.19h-1.22a3.26,3.26,0,0,0-6.51,0H1278a4.48,4.48,0,0,1,9,0Z"/><path d="M1328.39,809.33h-1.23a3.26,3.26,0,0,0-6.51,0h-1.23a4.49,4.49,0,1,1,9,0Z"/><rect x="1300.07" y="817.1" width="8.13" height="1.23" transform="translate(482.28 2119.24) rotate(-89.82)"/><path class="cls-19" d="M1287.89,870.07c-5.42,27.42-14,23.5-14,23.5s1.12-4.83,1.84-7.15c2.07-6.7,2.71-10.54,5.34-19.86,3.12-9.23-12.11-33.22-25.94-46.4l.09,0a13.52,13.52,0,0,1,15,4.38C1280.08,837,1291.52,851.68,1287.89,870.07Z"/><path class="cls-19" d="M1356.1,900.78c2.58-1-1.41-21.94,1.17-22.88a89.66,89.66,0,0,1-2-55.13l-.1,0a13.51,13.51,0,0,0-10.69,11.4C1342.4,850,1339.67,871.1,1356.1,900.78Z"/><path class="cls-20" d="M1368.06,809a.59.59,0,0,0,.23.41l-15.1,14.17c-.66.62,1.64,45.82,1.64,45.82l56.28-43.8,4.72-4.43a6.89,6.89,0,1,0-9.43-10.06l-.26.25c1.7-1.76,3.13-3.73,3.14-5.71a6.83,6.83,0,0,0-6.8-6.86,8,8,0,0,0-4.85,1.93,6.9,6.9,0,0,0-9.93-9.55l-4.72,4.43-2.8,2.64a6,6,0,0,0-1.73-2.53,6.83,6.83,0,0,0-9.59,1.13C1366.53,799.75,1367.52,804.31,1368.06,809Z"/><path class="cls-8" d="M1411.11,825.55l4.72-4.43a6.89,6.89,0,1,0-9.43-10.06l-.26.25c1.7-1.76,3.13-3.73,3.14-5.71a6.83,6.83,0,0,0-6.8-6.86,8,8,0,0,0-4.85,1.93,6.9,6.9,0,0,0-9.93-9.55l-4.72,4.43-2.8,2.64a6,6,0,0,0-1.73-2.53,6.83,6.83,0,0,0-9.59,1.13c-2.33,3-1.34,7.52-.8,12.16a.59.59,0,0,0,.23.41l-15.1,14.17"/><path class="cls-21" d="M1276.76,905.15c-.4-.38-10-9.35-22.83-9.39s-21.77,8.91-22.14,9.29l-.55.57.56.54,1.13,1.1.56.56.55-.57c.08-.08,8.4-8.38,19.88-8.35s20.59,8.45,20.68,8.53l.57.54.54-.57,1.08-1.14.54-.57Z"/><rect class="cls-22" x="1191.92" y="905.59" width="124.48" height="78.76" rx="11.42" transform="translate(3.02 -3.99) rotate(0.18)"/><path class="cls-21" d="M1209,905.45l-11,0a6,6,0,0,0-6,6l0,10.75Z"/><path class="cls-21" d="M1299.58,905.74l11,0a6,6,0,0,1,6,6l0,10.74Z"/><path class="cls-21" d="M1208.74,984.2l-11,0a6,6,0,0,1-6-6l0-10.74Z"/><path class="cls-21" d="M1299.33,984.49l11,0a6,6,0,0,0,6-6l0-10.75Z"/><path class="cls-20" d="M1278,880.71a.62.62,0,0,0-.4-.22l5.16-20c.23-.88-25.89-37.84-25.89-37.84l-24.12,67.13-1.62,6.26a6.89,6.89,0,0,0,13.35,3.45l.09-.35c-.49,2.4-.65,4.83.41,6.51a6.82,6.82,0,0,0,9.41,2.15,8,8,0,0,0,3.07-4.22,6.89,6.89,0,0,0,13.49,2.75l1.62-6.27,1-3.72a5.87,5.87,0,0,0,2.8,1.21,6.82,6.82,0,0,0,7.5-6.09C1284.26,887.66,1281,884.34,1278,880.71Z"/><path class="cls-8" d="M1232.78,889.73l-1.62,6.26a6.89,6.89,0,0,0,13.35,3.45l.09-.35c-.49,2.4-.65,4.83.41,6.51a6.82,6.82,0,0,0,9.41,2.15,8,8,0,0,0,3.07-4.22,6.89,6.89,0,0,0,13.49,2.75l1.62-6.27,1-3.72a5.87,5.87,0,0,0,2.8,1.21,6.82,6.82,0,0,0,7.5-6.09c.4-3.75-2.88-7.07-5.83-10.7a.62.62,0,0,0-.4-.22l5.16-20"/><path class="cls-23" d="M238.26,242.66a56.59,56.59,0,1,0,56.12,57A56.59,56.59,0,0,0,238.26,242.66Zm-.67,82.06a25.48,25.48,0,1,1,25.69-25.27A25.47,25.47,0,0,1,237.59,324.72Z"/><g class="cls-24"><path class="cls-25" d="M717.72,937.47c-110.88,109.1-289.85,107.65-399-3.23s-107.65-289.86,3.23-399A57.32,57.32,0,1,1,402.4,617c-65.83,64.76-66.69,171-1.92,236.84s171,66.69,236.85,1.92A168.49,168.49,0,0,0,663,823.37,57.32,57.32,0,1,1,761,883,283,283,0,0,1,717.72,937.47Z"/></g><path class="cls-26" d="M510.5,619.92v.36A459.37,459.37,0,0,0,521,689.53c21.52,90.47,156.42,72.3,156.35-20.7v-.4h0a458.91,458.91,0,0,0-10.53-69.21C645.33,508.75,510.43,526.92,510.5,619.92Z"/></g></g></svg>