<svg id="SvgjsSvg1001" width="288" height="288" xmlns="http://www.w3.org/2000/svg" version="1.1" xmlns:xlink="http://www.w3.org/1999/xlink" xmlns:svgjs="http://svgjs.com/svgjs"><defs id="SvgjsDefs1002"></defs><g id="SvgjsG1008" transform="matrix(1,0,0,1,0,0)"><svg xmlns="http://www.w3.org/2000/svg" viewBox="0 0 1009.27 948.67" width="288" height="288"><g data-name="Capa 2" fill="#ff6699" class="color000 svgShape"><path fill="#3fd6f5" d="M911.27,795.06C700.7,1002.25,360.81,999.5,153.61,788.92S-50.83,238.46,159.75,31.26A108.85,108.85,0,0,1,312.44,186.44c-125,123-126.65,324.78-3.65,449.79s324.79,126.65,449.8,3.65a319.49,319.49,0,0,0,48.83-61.52,108.85,108.85,0,0,1,186,113.2A537.07,537.07,0,0,1,911.27,795.06Z" data-name="Capa 1" class="colorf6d971 svgShape"></path></g></svg></g></svg>