<svg xmlns="http://www.w3.org/2000/svg" xmlns:xlink="http://www.w3.org/1999/xlink" viewBox="0 0 1309.63 522.84"><defs><style>.cls-1,.cls-11,.cls-12,.cls-13,.cls-15,.cls-16,.cls-8{fill:none;}.cls-2{isolation:isolate;}.cls-3{mix-blend-mode:multiply;fill:url(#Degradado_sin_nombre_58);}.cls-4{clip-path:url(#clip-path);}.cls-5{fill:#1980c7;}.cls-6{fill:#69ceed;}.cls-7{fill:#fff;}.cls-11,.cls-12,.cls-13,.cls-15,.cls-8{stroke:#000;}.cls-11,.cls-12,.cls-13,.cls-15,.cls-16,.cls-8{stroke-miterlimit:10;}.cls-9{fill:#427101;}.cls-10{fill:#82d188;}.cls-11{stroke-width:2px;}.cls-12,.cls-13{stroke-width:3px;}.cls-13,.cls-15{stroke-linecap:round;}.cls-14{fill:#1fa1e9;}.cls-16{stroke:#1fa1e9;stroke-width:4px;}.cls-17{fill:#fa9908;}.cls-18{fill:#ffda5b;}.cls-19{fill:#1b3f07;}.cls-20{fill:#71bf7a;}</style><linearGradient id="Degradado_sin_nombre_58" x1="1252.42" y1="465.32" x2="993.52" y2="-81.25" gradientUnits="userSpaceOnUse"><stop offset="0.29" stop-color="#fff"/><stop offset="0.34" stop-color="#fafdfa"/><stop offset="0.4" stop-color="#ebf7eb"/><stop offset="0.48" stop-color="#d2ecd2"/><stop offset="0.55" stop-color="#b0deb0"/><stop offset="0.61" stop-color="#91d190"/><stop offset="0.79" stop-color="#6c9c53"/><stop offset="0.93" stop-color="#567b2d"/><stop offset="1" stop-color="#4d6f1e"/></linearGradient><clipPath id="clip-path"><path class="cls-1" d="M1043.17,46.38l-.49.49c-28.4,33.4-56.09,69.73-80.5,109.36-94.54,153.53,115.31,313.55,242.71,186l.54-.53h0c28.39-33.39,56.06-69.7,80.46-109.32C1380.43,78.81,1170.58-81.22,1043.17,46.38Z"/></clipPath></defs><g class="cls-2"><g id="Capa_2" data-name="Capa 2"><g id="Capa_1-2" data-name="Capa 1"><path class="cls-3" d="M1043.17,46.38l-.49.49c-28.4,33.4-56.09,69.73-80.5,109.36-94.54,153.53,115.31,313.55,242.71,186l.54-.53h0c28.39-33.39,56.06-69.7,80.46-109.32C1380.43,78.81,1170.58-81.22,1043.17,46.38Z"/><g class="cls-4"><ellipse class="cls-5" cx="1114.87" cy="171.01" rx="28.72" ry="63.55" transform="translate(940.31 1285.33) rotate(-89.82)"/><rect class="cls-5" x="1055.68" y="152.95" width="117.95" height="129.19" rx="27.35" transform="translate(0.7 -3.55) rotate(0.18)"/><path class="cls-6" d="M1162.42,298.58c.18-55.9,4-162.42-13.92-189.47-7.09,6.06-13,20.11-13,20.11s-7.06-4.21-23.16-4.26-23.17,4.11-23.17,4.11-5.85-14.09-12.89-20.19c-11.53,17.1-14.67,136-15.32,189.37Z"/><path d="M1163.32,245.11c-.09,8.87-.26,46.35-.29,53.47h-1.23c0-7.12.2-44.6.29-53.47"/><path d="M1161.32,192.84c-.88-19.14-2.6-41.31-4.53-53.67-2.14-13.77-5-23.56-8.42-29.13-6.67,6.13-12.27,19.28-12.33,19.42l-.27.65-.61-.36c-2.41-1.43-10.28-4.13-22.84-4.17s-20.45,2.61-22.86,4l-.62-1.06c.29-.17,7.41-4.24,23.49-4.19,13.63,0,20.8,3,22.85,4,1.24-2.81,6.57-14.29,12.92-19.72l.52-.45.39.58c7,10.5,11.39,37.74,13.33,79.61"/><rect x="1055.2" y="163.07" width="1.23" height="24.07" transform="translate(877.35 1230.36) rotate(-89.82)"/><rect x="1056.32" y="153.34" width="1.23" height="23.81" transform="translate(487.99 1071.18) rotate(-66.76)"/><rect x="1165.49" y="163.42" width="1.23" height="24.07" transform="translate(986.93 1341) rotate(-89.82)"/><rect x="1153.15" y="164.97" width="23.81" height="1.23" transform="translate(27.27 465.97) rotate(-22.88)"/><polygon points="1111.48 175.55 1103.93 173.88 1104.19 172.68 1111.48 174.29 1118.79 172.73 1119.05 173.93 1111.48 175.55"/><polygon points="1111.48 183.64 1106.07 182.45 1106.26 181.59 1111.49 182.74 1116.72 181.62 1116.9 182.48 1111.48 183.64"/><path d="M1094.29,170.47h-1.22a3.26,3.26,0,0,0-6.51,0h-1.23a4.48,4.48,0,1,1,9,0Z"/><path d="M1135.72,170.6h-1.23a3.26,3.26,0,1,0-6.51,0h-1.23a4.49,4.49,0,1,1,9,0Z"/><rect x="1107.4" y="178.37" width="8.13" height="1.23" transform="translate(928.94 1289.88) rotate(-89.82)"/><path d="M1124.67,126.28c3.53,2.78-.25,8.84-3.21,8.83s-2.53-3.61-2.51-9.82C1119,125.29,1124.35,126,1124.67,126.28Z"/><path d="M1109.46,124.81c1.6.1,6.84-.08,8.65.66-1.61,1.56-1.28,3.8-1.28,5.58,0,6.21-.45,11.25-3.92,11.24s-2.94-4.21-2.92-10.43A62.63,62.63,0,0,0,1109.46,124.81Z"/><path d="M1098.53,127.07c.27,4.52,1.36,8,5.12,8,4.49,0,4.06-3.86,4-9.66-1.66.24-3.59.21-5,.5C1100.73,126.3,1099.47,126.83,1098.53,127.07Z"/><path class="cls-7" d="M1092.09,298.58c-15.51-16.92-3.11-89.82,20.57-89.74,25.2.08,29.52,69.24,29.52,89.65,0,4.74-25.69,2-25.69,2S1096,302.83,1092.09,298.58Z"/><path class="cls-5" d="M1095.9,231.47c-5.41,27.42-14,23.5-14,23.5s1.12-4.83,1.84-7.15c2.07-6.7,2.71-10.54,5.35-19.86,3.11-9.23-12.12-33.22-25.95-46.4l.09,0a13.52,13.52,0,0,1,15,4.38C1088.09,198.41,1099.53,213.08,1095.9,231.47Z"/><path class="cls-6" d="M1050.42,156.66a6.83,6.83,0,0,0-9.57-1.27,5.83,5.83,0,0,0-1.77,2.49l-2.76-2.67-4.65-4.5a6.89,6.89,0,0,0-10.07,9.39,8,8,0,0,0-4.82-2,6.83,6.83,0,0,0-6.91,6.75c0,2,1.38,4,3.06,5.76l-.27-.25a6.89,6.89,0,0,0-9.58,9.91l4.65,4.5L1063,235.32s3.29-51,2.64-51.68l-14.88-14.41a.55.55,0,0,0,.23-.4C1051.65,164.2,1052.71,159.66,1050.42,156.66Z"/><path class="cls-8" d="M1007.73,184.77l-4.65-4.5a6.89,6.89,0,0,1,9.58-9.91l.27.25c-1.68-1.79-3.08-3.78-3.06-5.76a6.83,6.83,0,0,1,6.91-6.75,8,8,0,0,1,4.82,2,6.89,6.89,0,0,1,10.07-9.39l4.65,4.5,2.76,2.67a5.83,5.83,0,0,1,1.77-2.49,6.83,6.83,0,0,1,9.57,1.27c2.29,3,1.23,7.54.61,12.17a.55.55,0,0,1-.23.4l14.88,14.41"/><path class="cls-6" d="M1186.13,203.65a.59.59,0,0,0-.4.22L1160.25,178c-.62-.66-9.58,46.28-9.58,46.28l18.86,22.41,4.43,4.72A6.89,6.89,0,0,0,1184,242l-.25-.27c1.77,1.71,3.73,3.14,5.71,3.14a6.83,6.83,0,0,0,6.86-6.8,8,8,0,0,0-1.92-4.85,6.89,6.89,0,0,0,9.54-9.92l-4.43-4.73-2.63-2.8a5.82,5.82,0,0,0,2.52-1.72,6.83,6.83,0,0,0-1.13-9.59C1195.33,202.11,1190.77,203.1,1186.13,203.65Z"/><path class="cls-8" d="M1169.53,246.7l4.43,4.72A6.89,6.89,0,0,0,1184,242l-.25-.27c1.77,1.71,3.73,3.14,5.71,3.14a6.83,6.83,0,0,0,6.86-6.8,8,8,0,0,0-1.92-4.85,6.89,6.89,0,0,0,9.54-9.92l-4.43-4.73-2.63-2.8a5.82,5.82,0,0,0,2.52-1.72,6.83,6.83,0,0,0-1.13-9.59c-3-2.34-7.52-1.35-12.16-.8a.59.59,0,0,0-.4.22L1160.25,178"/><path class="cls-5" d="M1164.12,262.18c2.57-1.06-1.42-24,1.17-25a106.45,106.45,0,0,1-1.94-60.2l-.09,0c-5.61,1.23-9.93,6.26-10.7,12.45C1150.42,206.69,1147.69,229.77,1164.12,262.18Z"/><path class="cls-9" d="M1245.81,260c0-15.86-28.36-28.81-63.46-28.92s-63.59,12.66-63.64,28.52c0,3.75,1.58,7.34,4.47,10.64l-.23,73.15a27.36,27.36,0,0,0,27.27,27.44l63.24.2a27.35,27.35,0,0,0,27.44-27.27l.23-73C1244.13,267.41,1245.8,263.78,1245.81,260Z"/><path class="cls-10" d="M1198.5,329.06a6.83,6.83,0,0,0,6.87,6.8,6,6,0,0,0,2.91-.93l.58,3.8,1,6.4a6.89,6.89,0,0,0,13.69-1.41,8.08,8.08,0,0,0,2.64,4.51,6.83,6.83,0,0,0,9.58-1.22c1.21-1.57,1.3-4,1-6.44l.06.36a6.89,6.89,0,1,0,13.62-2.11l-1-6.4-17.38-69.17s-29.64,34.2-29.5,35.09l3.16,20.47a.59.59,0,0,0-.42.18C1202.07,322.31,1198.48,325.29,1198.5,329.06Z"/><path class="cls-11" d="M1202.62,298.34l3.16,20.47a.59.59,0,0,0-.42.18c-3.29,3.32-6.88,6.3-6.86,10.07a6.83,6.83,0,0,0,6.87,6.8,6,6,0,0,0,2.91-.93l.58,3.8,1,6.4a6.89,6.89,0,0,0,13.69-1.41,8.08,8.08,0,0,0,2.64,4.51,6.83,6.83,0,0,0,9.58-1.22c1.21-1.57,1.3-4,1-6.44l.06.36a6.89,6.89,0,1,0,13.62-2.11l-1-6.4-17.38-69.17"/><path class="cls-10" d="M1233.12,383.82c.18-55.9,4.05-162.42-13.92-189.47-7.09,6.06-13,20.11-13,20.11s-7-4.2-23.15-4.26-23.18,4.11-23.18,4.11S1154,200.23,1147,194.12c-11.52,17.11-14.66,136-15.32,189.38Z"/><path class="cls-7" d="M1222.14,198.57a14.27,14.27,0,0,1-3.41,3.68c-1.83,1.19-6.89,4.82-5.36,8.75s7.43,2.27,7,5,3.68,6.55,7.86,6.77Z"/><path d="M1234,330.35c-.09,8.88-.27,46.35-.29,53.47h-1.23c0-7.13.2-44.6.29-53.48"/><path d="M1232,278.08c-.89-19.14-2.61-41.31-4.54-53.67-2.14-13.76-5-23.56-8.42-29.12-6.67,6.13-12.27,19.27-12.32,19.41l-.28.65-.61-.36c-2.4-1.43-10.27-4.13-22.83-4.17s-20.45,2.61-22.87,4l-.62-1.06c.3-.17,7.41-4.24,23.49-4.19,13.63,0,20.8,3,22.85,4,1.24-2.82,6.57-14.3,12.92-19.73l.53-.45.38.58c7,10.5,11.39,37.74,13.33,79.61"/><polygon points="1182.87 260.92 1175.31 259.25 1175.58 258.05 1182.87 259.66 1190.18 258.1 1190.43 259.3 1182.87 260.92"/><rect x="1125.91" y="248.31" width="1.23" height="24.07" transform="translate(862.59 1386.04) rotate(-89.82)"/><rect x="1127.02" y="238.58" width="1.23" height="23.81" transform="translate(452.46 1187.74) rotate(-66.76)"/><rect x="1236.2" y="248.66" width="1.23" height="24.07" transform="translate(972.17 1496.68) rotate(-89.82)"/><rect x="1223.85" y="250.22" width="23.81" height="1.23" transform="translate(-0.3 500.16) rotate(-22.88)"/><rect x="1178.79" y="263.74" width="8.13" height="1.23" transform="translate(914.74 1446.36) rotate(-89.82)"/><path d="M1161.41,249.94h0c4,0,7.29,2.9,7.28,6.44s-3.27,6.4-7.29,6.4h0c-4,0-7.29-2.9-7.28-6.44s3.28-6.4,7.29-6.4m0-3c-5.66,0-10.27,4.21-10.29,9.39a9,9,0,0,0,3.14,6.8,10.78,10.78,0,0,0,7.13,2.65c5.7,0,10.31-4.21,10.33-9.39a9,9,0,0,0-3.13-6.8,10.82,10.82,0,0,0-7.14-2.65h0Z"/><path d="M1202.53,250.07h0c4,0,7.29,2.9,7.28,6.44s-3.28,6.4-7.3,6.4h0c-4,0-7.29-2.9-7.28-6.44s3.27-6.4,7.29-6.4m0-3c-5.66,0-10.27,4.21-10.29,9.39a9,9,0,0,0,3.13,6.8,10.82,10.82,0,0,0,7.14,2.65c5.69,0,10.31-4.21,10.33-9.39a9,9,0,0,0-3.14-6.8,10.78,10.78,0,0,0-7.13-2.65h0Z"/><path class="cls-12" d="M1168.73,254.5s4.78-2,14.16-2c6.41,0,7.61.79,12.35,2.09"/><polygon points="1182.94 260.79 1175.39 259.13 1175.65 257.93 1182.95 259.54 1190.25 257.97 1190.51 259.18 1182.94 260.79"/><polygon points="1182.94 268.88 1177.53 267.69 1177.72 266.83 1182.95 267.98 1188.18 266.86 1188.37 267.72 1182.94 268.88"/><path d="M1165.76,255.71h-1.23a3.26,3.26,0,1,0-6.51,0h-1.23a4.49,4.49,0,1,1,9,0Z"/><path d="M1207.18,255.84H1206a3.25,3.25,0,1,0-6.5,0h-1.23a4.48,4.48,0,0,1,9,0Z"/><rect x="1178.87" y="263.62" width="8.13" height="1.23" transform="translate(914.93 1446.31) rotate(-89.82)"/><line class="cls-13" x1="1210.88" y1="253.1" x2="1231.72" y2="242.88"/><line class="cls-13" x1="1152.52" y1="253.03" x2="1135.36" y2="247.17"/><path class="cls-7" d="M1233.17,296.56s-4.57-12.67-11.2-15.19-3.26-11.4-.47-11.52c4.41-.18,10-4.35,10.11,0S1233.17,296.56,1233.17,296.56Z"/><rect class="cls-14" x="1046.78" y="349.19" width="183.25" height="62.84" rx="14.57" transform="translate(1.22 -3.62) rotate(0.18)"/><path class="cls-6" d="M1171.49,380.41l-66.15-.21a15.56,15.56,0,0,1-15.51-15.61h0c0-8.59-.39-15.56-.39-15.56l97.7.31-.05,15.56h0A15.54,15.54,0,0,1,1171.49,380.41Z"/><path class="cls-15" d="M1187.09,364.9h0a15.54,15.54,0,0,1-15.6,15.51l-66.15-.21a15.56,15.56,0,0,1-15.51-15.61h0c0-8.59-.39-15.56-.39-15.56"/><path class="cls-5" d="M1073.23,349s-.33,8.49,3.68,15.57-11.55,20.38-7.53,25.36,18.6,6.89,42.5,5.41,63.92,6.1,69.82,4.88,48.27,3.26,48.31-10.09c-.07,20.48-8.62,22.18-25.07,22.13l-136.31-.43s-22,3.48-21.88-20.42-2.76-42.5,20-42.43Z"/><path class="cls-16" d="M1078.79,350.12s27.42-17.67,59.56-17.57,65.82,19.22,65.82,19.22"/><path class="cls-10" d="M1162.18,321.75a.66.66,0,0,0-.43-.18l3.3-20.44c.14-.9-29.28-35.29-29.28-35.29L1118,334.91l-1,6.39a6.89,6.89,0,0,0,13.61,2.2l.06-.36c-.27,2.44-.2,4.87,1,6.44a6.82,6.82,0,0,0,9.57,1.28,8,8,0,0,0,2.67-4.49,6.89,6.89,0,0,0,13.68,1.5l1-6.4.61-3.79a5.81,5.81,0,0,0,2.9.94,6.82,6.82,0,0,0,6.91-6.75C1169,328.1,1165.45,325.1,1162.18,321.75Z"/><path class="cls-8" d="M1118,334.91l-1,6.39a6.88,6.88,0,0,0,5.7,7.9,7.21,7.21,0,0,0,8-6.06s-.2,4.87,1,6.44a6.82,6.82,0,0,0,9.57,1.28,8,8,0,0,0,2.67-4.49,6.89,6.89,0,0,0,13.68,1.5l1-6.4.61-3.79a5.81,5.81,0,0,0,2.9.94,6.82,6.82,0,0,0,6.91-6.75c0-3.77-3.52-6.77-6.79-10.12a.66.66,0,0,0-.43-.18l3.3-20.44"/><path class="cls-7" d="M1136.54,298.29c-2.24.26-5.68-.76-8.72-1.93l-3.87,15a24.51,24.51,0,0,0,4.65,3.48c5.4,2.93,12.08,3.28,17.86-2.53S1141.39,297.74,1136.54,298.29Z"/></g><ellipse class="cls-17" cx="985.6" cy="260.8" rx="28.72" ry="63.55" transform="translate(721.66 1245.57) rotate(-89.82)"/><rect class="cls-17" x="926.42" y="242.74" width="117.95" height="129.19" rx="27.35" transform="translate(0.98 -3.14) rotate(0.18)"/><path class="cls-18" d="M1033.15,388.37c.18-55.9,4-162.42-13.92-189.47-7.09,6.06-13,20.11-13,20.11s-7.06-4.21-23.15-4.26-23.18,4.11-23.18,4.11S954,204.77,947,198.67c-11.53,17.1-14.67,136-15.32,189.37Z"/><path d="M1034.05,334.9c-.09,8.87-.26,46.35-.29,53.47h-1.23c0-7.12.21-44.6.3-53.47"/><path d="M1032.06,282.63c-.89-19.14-2.61-41.31-4.54-53.67-2.14-13.77-5-23.56-8.42-29.13-6.67,6.14-12.27,19.28-12.33,19.42l-.27.65-.61-.36c-2.4-1.43-10.28-4.13-22.84-4.17s-20.44,2.61-22.86,4l-.62-1.06c.29-.17,7.41-4.24,23.49-4.19,13.63,0,20.8,3,22.85,4,1.24-2.81,6.57-14.29,12.92-19.72l.52-.45.39.58c7,10.5,11.39,37.74,13.33,79.61"/><path d="M1001.92,225.4a18.91,18.91,0,0,0-4.51-2.05,51.82,51.82,0,0,0-28.76-.09,19.25,19.25,0,0,0-4.53,2l-.7-1c.24-.17,6.2-4.27,19.62-4.23s19.35,4.18,19.6,4.36l-.72,1,.36-.5Z"/><path d="M994.21,230.26s-3.5-2.41-11.2-2.44-11.17,2.34-11.2,2.36l-.71-1c.15-.11,3.78-2.61,11.92-2.59s11.75,2.56,11.9,2.67Z"/><polygon points="982.89 265.47 975.34 263.8 975.6 262.6 982.9 264.21 990.2 262.64 990.46 263.85 982.89 265.47"/><polygon points="982.9 273.56 977.48 272.36 977.67 271.5 982.9 272.65 988.13 271.54 988.32 272.4 982.9 273.56"/><rect x="925.94" y="252.86" width="1.23" height="24.07" transform="translate(658.7 1190.6) rotate(-89.82)"/><rect x="927.05" y="243.13" width="1.23" height="23.81" transform="translate(327.23 1006.76) rotate(-66.76)"/><rect x="1036.22" y="253.21" width="1.23" height="24.07" transform="translate(768.29 1301.24) rotate(-89.82)"/><rect x="1023.88" y="254.76" width="23.81" height="1.23" transform="translate(-17.8 422.77) rotate(-22.88)"/><path d="M965.71,260.38h-1.23a3.26,3.26,0,0,0-6.51,0h-1.23a4.49,4.49,0,0,1,9,0Z"/><path d="M1007.13,260.52h-1.23a3.25,3.25,0,1,0-6.5,0h-1.23a4.48,4.48,0,1,1,9,0Z"/><rect x="978.82" y="268.29" width="8.13" height="1.23" transform="translate(710.85 1250.93) rotate(-89.82)"/><path class="cls-17" d="M966.63,321.26c-5.41,27.42-14,23.5-14,23.5s1.12-4.83,1.84-7.15c2.07-6.7,2.71-10.54,5.35-19.86,3.11-9.23-12.12-33.22-25.95-46.4l.09,0a13.52,13.52,0,0,1,15,4.38C958.82,288.2,970.26,302.87,966.63,321.26Z"/><path class="cls-17" d="M1034.85,352c2.57-1-1.42-21.94,1.16-22.88a89.66,89.66,0,0,1-2-55.13l-.09,0a13.52,13.52,0,0,0-10.7,11.4C1021.14,301.16,1018.41,322.29,1034.85,352Z"/><path class="cls-18" d="M1046.81,260.14a.6.6,0,0,0,.22.41l-15.1,14.17c-.65.62,1.64,45.82,1.64,45.82l56.29-43.8,4.72-4.43a6.89,6.89,0,0,0-9.43-10.05l-.27.25c1.7-1.77,3.13-3.74,3.14-5.72a6.83,6.83,0,0,0-6.8-6.86,8,8,0,0,0-4.85,1.93,6.89,6.89,0,0,0-9.92-9.54l-4.73,4.42-2.8,2.64a5.76,5.76,0,0,0-1.72-2.52,6.82,6.82,0,0,0-9.59,1.12C1045.27,250.94,1046.26,255.5,1046.81,260.14Z"/><path class="cls-8" d="M1089.86,276.74l4.72-4.43a6.89,6.89,0,0,0-9.43-10.05l-.27.25c1.7-1.77,3.13-3.74,3.14-5.72a6.83,6.83,0,0,0-6.8-6.86,8,8,0,0,0-4.85,1.93,6.89,6.89,0,0,0-9.92-9.54l-4.73,4.42-2.8,2.64a5.76,5.76,0,0,0-1.72-2.52,6.82,6.82,0,0,0-9.59,1.12c-2.34,3-1.35,7.52-.8,12.16a.6.6,0,0,0,.22.41l-15.1,14.17"/><path class="cls-19" d="M955.5,356.34c-.4-.38-10-9.35-22.82-9.39s-21.78,8.91-22.15,9.3l-.55.56.56.54,1.13,1.11.56.55.55-.57c.08-.08,8.41-8.38,19.89-8.34s20.58,8.44,20.67,8.52l.57.54.54-.57,1.08-1.14.54-.57Z"/><rect class="cls-20" x="870.66" y="356.78" width="124.48" height="78.76" rx="11.42" transform="translate(1.27 -2.97) rotate(0.18)"/><path class="cls-19" d="M887.73,356.64l-11,0a6,6,0,0,0-6,6l0,10.75Z"/><path class="cls-19" d="M978.33,356.93l11,0a6,6,0,0,1,6,6l0,10.74Z"/><path class="cls-19" d="M887.48,435.39l-11,0a6,6,0,0,1-6-6l0-10.74Z"/><path class="cls-19" d="M978.07,435.68l11,0a6,6,0,0,0,6-6l0-10.75Z"/><path class="cls-18" d="M956.77,331.9a.6.6,0,0,0-.4-.22l5.17-20.05c.22-.88-25.9-37.84-25.9-37.84l-24.11,67.13-1.62,6.27a6.89,6.89,0,0,0,13.35,3.44l.09-.35c-.5,2.41-.65,4.83.4,6.51a6.82,6.82,0,0,0,9.41,2.15,7.93,7.93,0,0,0,3.07-4.22,6.89,6.89,0,0,0,13.49,2.75l1.62-6.27,1-3.72a5.87,5.87,0,0,0,2.81,1.21,6.83,6.83,0,0,0,7.5-6.09C963,338.85,959.72,335.54,956.77,331.9Z"/><path class="cls-8" d="M911.53,340.92l-1.62,6.27a6.89,6.89,0,0,0,13.35,3.44l.09-.35c-.5,2.41-.65,4.83.4,6.51a6.82,6.82,0,0,0,9.41,2.15,7.93,7.93,0,0,0,3.07-4.22,6.89,6.89,0,0,0,13.49,2.75l1.62-6.27,1-3.72a5.87,5.87,0,0,0,2.81,1.21,6.83,6.83,0,0,0,7.5-6.09c.39-3.75-2.89-7.06-5.84-10.7a.6.6,0,0,0-.4-.22l5.17-20.05"/><path class="cls-14" d="M341.74,465.23c-79,77.7-206.43,76.67-284.13-2.3S-19.06,256.5,59.91,178.8A40.82,40.82,0,1,1,117.17,237,119.28,119.28,0,1,0,302.79,384a40.82,40.82,0,1,1,69.74,42.45A201.67,201.67,0,0,1,341.74,465.23Z"/><path class="cls-20" d="M185.27,224.08v.25a326.49,326.49,0,0,0,7.5,49.32c15.32,64.43,111.39,51.49,111.34-14.74v-.28h0a327.65,327.65,0,0,0-7.49-49.3C281.29,144.9,185.22,157.84,185.27,224.08Z"/></g></g></g></svg>