<svg xmlns="http://www.w3.org/2000/svg" xmlns:xlink="http://www.w3.org/1999/xlink" viewBox="0 0 1393 499.53"><defs><style>.cls-1,.cls-11,.cls-12,.cls-13,.cls-15,.cls-16,.cls-8{fill:none;}.cls-2{isolation:isolate;}.cls-19,.cls-21,.cls-3{mix-blend-mode:multiply;}.cls-3{fill:url(#Degradado_sin_nombre_58);}.cls-4{clip-path:url(#clip-path);}.cls-5{fill:#1980c7;}.cls-6{fill:#69ceed;}.cls-7{fill:#fff;}.cls-11,.cls-12,.cls-13,.cls-15,.cls-8{stroke:#000;}.cls-11,.cls-12,.cls-13,.cls-15,.cls-16,.cls-8{stroke-miterlimit:10;}.cls-9{fill:#427101;}.cls-10{fill:#82d188;}.cls-11,.cls-15{stroke-width:2px;}.cls-12,.cls-13{stroke-width:3px;}.cls-13,.cls-15{stroke-linecap:round;}.cls-14{fill:#1fa1e9;}.cls-16{stroke:#1fa1e9;stroke-width:4px;}.cls-17{fill:#fa9908;}.cls-18{fill:#ffda5b;}.cls-20{fill:#f1a33a;}.cls-21{fill:#91d190;}</style><linearGradient id="Degradado_sin_nombre_58" x1="1335.79" y1="495.31" x2="1076.89" y2="-51.27" gradientUnits="userSpaceOnUse"><stop offset="0.29" stop-color="#fff"/><stop offset="0.34" stop-color="#fafdfa"/><stop offset="0.4" stop-color="#ebf7eb"/><stop offset="0.48" stop-color="#d2ecd2"/><stop offset="0.55" stop-color="#b0deb0"/><stop offset="0.61" stop-color="#91d190"/><stop offset="0.79" stop-color="#6c9c53"/><stop offset="0.93" stop-color="#567b2d"/><stop offset="1" stop-color="#4d6f1e"/></linearGradient><clipPath id="clip-path"><path class="cls-1" d="M1126.55,76.37l-.49.49c-28.41,33.4-56.1,69.73-80.51,109.36-94.53,153.53,115.31,313.55,242.72,186l.53-.54h0c28.4-33.39,56.06-69.69,80.46-109.31C1463.8,108.79,1254-51.23,1126.55,76.37Z"/></clipPath></defs><g class="cls-2"><g id="Capa_2" data-name="Capa 2"><g id="Capa_1-2" data-name="Capa 1"><path class="cls-3" d="M1126.55,76.37l-.49.49c-28.41,33.4-56.1,69.73-80.51,109.36-94.53,153.53,115.31,313.55,242.72,186l.53-.54h0c28.4-33.39,56.06-69.69,80.46-109.31C1463.8,108.79,1254-51.23,1126.55,76.37Z"/><g class="cls-4"><ellipse class="cls-5" cx="1198.24" cy="201" rx="28.72" ry="63.55" transform="translate(993.43 1398.6) rotate(-89.82)"/><rect class="cls-5" x="1139.06" y="182.94" width="117.95" height="129.19" rx="27.35" transform="translate(0.79 -3.81) rotate(0.18)"/><path class="cls-6" d="M1245.79,328.56c.18-55.89,4-162.41-13.92-189.47-7.09,6.06-13,20.11-13,20.11s-7-4.2-23.15-4.25-23.18,4.11-23.18,4.11-5.84-14.09-12.89-20.2c-11.52,17.11-14.66,136-15.32,189.38Z"/><path d="M1246.7,275.09c-.09,8.88-.27,46.36-.29,53.47h-1.23c0-7.12.2-44.6.29-53.48"/><path d="M1244.7,222.83c-.89-19.15-2.61-41.31-4.54-53.68-2.14-13.76-5-23.55-8.42-29.12-6.67,6.13-12.27,19.28-12.32,19.41l-.28.65-.61-.36c-2.4-1.42-10.27-4.13-22.83-4.17s-20.45,2.62-22.87,4l-.62-1.06c.3-.18,7.41-4.25,23.49-4.2,13.63,0,20.8,3,22.85,4,1.24-2.81,6.57-14.29,12.92-19.72l.53-.46.38.58c7,10.5,11.39,37.75,13.33,79.62"/><rect x="1138.58" y="193.06" width="1.23" height="24.07" transform="translate(930.47 1343.63) rotate(-89.82)"/><rect x="1139.69" y="183.33" width="1.23" height="23.81" transform="translate(510.91 1165.94) rotate(-66.76)"/><rect x="1248.86" y="193.41" width="1.23" height="24.07" transform="translate(1040.06 1454.26) rotate(-89.82)"/><rect x="1236.52" y="194.96" width="23.81" height="1.23" transform="translate(22.18 500.74) rotate(-22.88)"/><polygon points="1194.86 205.54 1187.3 203.87 1187.57 202.67 1194.86 204.28 1202.16 202.72 1202.42 203.92 1194.86 205.54"/><polygon points="1194.86 213.63 1189.44 212.43 1189.63 211.57 1194.86 212.72 1200.09 211.61 1200.28 212.47 1194.86 213.63"/><path d="M1177.67,200.45h-1.23a3.26,3.26,0,0,0-6.51,0h-1.23a4.49,4.49,0,0,1,9,0Z"/><path d="M1219.09,200.59h-1.23a3.25,3.25,0,1,0-6.5,0h-1.23a4.48,4.48,0,1,1,9,0Z"/><rect x="1190.78" y="208.36" width="8.13" height="1.23" transform="translate(982.07 1403.15) rotate(-89.82)"/><path d="M1208,156.26c3.53,2.78-.24,8.85-3.21,8.84s-2.52-3.61-2.51-9.83A58,58,0,0,1,1208,156.26Z"/><path d="M1192.83,154.79c1.6.11,6.85-.07,8.65.67-1.61,1.56-1.27,3.8-1.28,5.57,0,6.22-.45,11.26-3.91,11.25s-3-4.21-2.93-10.43A60.48,60.48,0,0,0,1192.83,154.79Z"/><path d="M1181.91,157.05c.27,4.52,1.35,8,5.12,8,4.48,0,4-3.85,4-9.65-1.66.24-3.6.21-5,.5C1184.11,156.28,1182.84,156.82,1181.91,157.05Z"/><path class="cls-7" d="M1175.47,328.57c-15.52-16.92-3.12-89.82,20.57-89.74,25.2.08,29.52,69.24,29.52,89.65,0,4.74-25.7,2-25.7,2S1179.37,332.82,1175.47,328.57Z"/><path class="cls-5" d="M1179.27,261.46c-5.41,27.42-14,23.5-14,23.5s1.13-4.84,1.84-7.16c2.07-6.7,2.72-10.53,5.35-19.85,3.11-9.23-12.12-33.23-25.94-46.4l.08,0a13.5,13.5,0,0,1,15,4.38C1171.46,228.4,1182.9,243.07,1179.27,261.46Z"/><path class="cls-6" d="M1133.79,186.65a6.82,6.82,0,0,0-9.57-1.28,5.91,5.91,0,0,0-1.76,2.5l-2.76-2.68-4.66-4.5a6.89,6.89,0,0,0-10.07,9.39,8,8,0,0,0-4.82-2,6.83,6.83,0,0,0-6.9,6.76c0,2,1.37,4,3,5.76l-.26-.26a6.9,6.9,0,0,0-9.59,9.91l4.66,4.51,55.31,50.55s3.28-51.06,2.63-51.68l-14.87-14.41a.65.65,0,0,0,.23-.4C1135,194.18,1136.09,189.64,1133.79,186.65Z"/><path class="cls-8" d="M1091.11,214.76l-4.66-4.51a6.9,6.9,0,0,1,9.59-9.91l.26.26c-1.68-1.8-3.08-3.78-3-5.76a6.83,6.83,0,0,1,6.9-6.76,8,8,0,0,1,4.82,2,6.89,6.89,0,0,1,10.07-9.39l4.66,4.5,2.76,2.68a5.91,5.91,0,0,1,1.76-2.5,6.82,6.82,0,0,1,9.57,1.28c2.3,3,1.23,7.53.62,12.17a.65.65,0,0,1-.23.4l14.87,14.41"/><path class="cls-6" d="M1269.5,233.64a.59.59,0,0,0-.4.22L1243.63,208c-.62-.66-9.58,46.27-9.58,46.27l18.86,22.41,4.43,4.73a6.89,6.89,0,1,0,10.05-9.44l-.25-.26c1.77,1.7,3.73,3.13,5.71,3.14a6.82,6.82,0,0,0,6.86-6.8,8,8,0,0,0-1.92-4.85,6.89,6.89,0,0,0,9.54-9.93l-4.43-4.72-2.63-2.8a5.82,5.82,0,0,0,2.52-1.72,6.84,6.84,0,0,0-1.13-9.6C1278.7,232.1,1274.15,233.09,1269.5,233.64Z"/><path class="cls-8" d="M1252.91,276.68l4.43,4.73a6.89,6.89,0,1,0,10.05-9.44l-.25-.26c1.77,1.7,3.73,3.13,5.71,3.14a6.82,6.82,0,0,0,6.86-6.8,8,8,0,0,0-1.92-4.85,6.89,6.89,0,0,0,9.54-9.93l-4.43-4.72-2.63-2.8a5.82,5.82,0,0,0,2.52-1.72,6.84,6.84,0,0,0-1.13-9.6c-3-2.33-7.51-1.34-12.16-.79a.59.59,0,0,0-.4.22L1243.63,208"/><path class="cls-5" d="M1247.49,292.17c2.57-1.06-1.41-24,1.17-25a106.58,106.58,0,0,1-1.94-60.21l-.09,0c-5.61,1.24-9.93,6.26-10.69,12.46C1233.8,236.68,1231.07,259.75,1247.49,292.17Z"/><path class="cls-9" d="M1329.18,290c0-15.86-28.36-28.81-63.46-28.92s-63.59,12.65-63.64,28.51c0,3.76,1.59,7.35,4.48,10.64l-.24,73.15a27.36,27.36,0,0,0,27.27,27.44l63.24.2a27.34,27.34,0,0,0,27.44-27.26l.24-73C1327.5,297.4,1329.17,293.77,1329.18,290Z"/><path class="cls-10" d="M1281.87,359.05a6.83,6.83,0,0,0,6.87,6.79,5.81,5.81,0,0,0,2.91-.92l.59,3.8,1,6.39a6.89,6.89,0,0,0,13.7-1.4,8,8,0,0,0,2.63,4.5,6.83,6.83,0,0,0,9.58-1.21c1.22-1.57,1.3-4,1-6.44l0,.36a6.9,6.9,0,0,0,13.63-2.11l-1-6.4-17.37-69.18s-29.64,34.21-29.5,35.1l3.16,20.46a.63.63,0,0,0-.43.19C1285.44,352.3,1281.86,355.28,1281.87,359.05Z"/><path class="cls-11" d="M1286,328.33l3.16,20.46a.63.63,0,0,0-.43.19c-3.29,3.32-6.87,6.3-6.86,10.07a6.83,6.83,0,0,0,6.87,6.79,5.81,5.81,0,0,0,2.91-.92l.59,3.8,1,6.39a6.89,6.89,0,0,0,13.7-1.4,8,8,0,0,0,2.63,4.5,6.83,6.83,0,0,0,9.58-1.21c1.22-1.57,1.3-4,1-6.44l0,.36a6.9,6.9,0,0,0,13.63-2.11l-1-6.4-17.37-69.18"/><path class="cls-10" d="M1316.5,413.8c.17-55.89,4-162.41-13.93-189.46-7.08,6.06-13,20.11-13,20.11s-7-4.21-23.15-4.26-23.17,4.11-23.17,4.11-5.85-14.09-12.9-20.2c-11.52,17.11-14.66,136-15.32,189.38Z"/><path class="cls-7" d="M1305.51,228.56a14.36,14.36,0,0,1-3.4,3.68c-1.83,1.18-6.89,4.81-5.36,8.75s7.42,2.26,7,5,3.68,6.55,7.86,6.76Z"/><path d="M1317.4,360.34c-.09,8.87-.27,46.35-.29,53.47h-1.23c0-7.12.2-44.6.29-53.48"/><path d="M1315.4,308.07c-.88-19.14-2.61-41.31-4.53-53.67-2.15-13.77-5-23.56-8.43-29.13-6.66,6.13-12.26,19.28-12.32,19.42l-.27.65-.61-.37c-2.41-1.42-10.28-4.12-22.84-4.16s-20.45,2.61-22.86,4l-.63-1.06c.3-.17,7.41-4.25,23.49-4.19,13.64,0,20.81,3,22.85,4,1.25-2.81,6.57-14.29,12.92-19.72l.53-.45.39.57c7,10.5,11.39,37.75,13.33,79.62"/><polygon points="1266.24 290.9 1258.69 289.24 1258.95 288.04 1266.24 289.65 1273.55 288.08 1273.81 289.29 1266.24 290.9"/><rect x="1209.28" y="278.3" width="1.23" height="24.07" transform="translate(915.71 1499.3) rotate(-89.82)"/><rect x="1210.4" y="268.57" width="1.23" height="23.81" transform="translate(475.38 1282.5) rotate(-66.76)"/><rect x="1319.57" y="278.65" width="1.23" height="24.07" transform="translate(1025.29 1609.94) rotate(-89.82)"/><rect x="1307.23" y="280.2" width="23.81" height="1.23" transform="translate(-5.4 534.93) rotate(-22.88)"/><rect x="1262.16" y="293.73" width="8.13" height="1.23" transform="translate(967.86 1559.63) rotate(-89.82)"/><path d="M1244.79,277.92h0c4,0,7.29,2.9,7.27,6.45s-3.27,6.39-7.29,6.39h0c-4,0-7.29-2.89-7.28-6.44s3.28-6.4,7.3-6.4m0-3c-5.66,0-10.28,4.22-10.3,9.39a9,9,0,0,0,3.14,6.8,10.74,10.74,0,0,0,7.13,2.65c5.7,0,10.32-4.21,10.33-9.38s-4.59-9.44-10.27-9.46h0Z"/><path d="M1285.9,278.06h0c4,0,7.29,2.89,7.28,6.44s-3.27,6.4-7.29,6.4h0c-4,0-7.29-2.9-7.28-6.45s3.28-6.39,7.29-6.39m0-3c-5.65,0-10.27,4.21-10.29,9.38a9,9,0,0,0,3.14,6.8,10.73,10.73,0,0,0,7.13,2.66c5.7,0,10.32-4.22,10.33-9.39a9,9,0,0,0-3.13-6.8,10.75,10.75,0,0,0-7.14-2.65h0Z"/><path class="cls-12" d="M1252.1,282.49s4.79-2,14.17-2c6.41,0,7.61.78,12.35,2.08"/><polygon points="1266.32 290.78 1258.76 289.11 1259.03 287.91 1266.32 289.52 1273.63 287.96 1273.88 289.16 1266.32 290.78"/><polygon points="1266.32 298.87 1260.9 297.68 1261.09 296.81 1266.32 297.97 1271.55 296.85 1271.74 297.71 1266.32 298.87"/><path d="M1249.13,285.7h-1.23a3.26,3.26,0,0,0-6.51,0h-1.23a4.49,4.49,0,1,1,9,0Z"/><path d="M1290.55,285.83h-1.23a3.25,3.25,0,1,0-6.5,0h-1.23a4.48,4.48,0,1,1,9,0Z"/><rect x="1262.24" y="293.6" width="8.13" height="1.23" transform="translate(968.06 1559.58) rotate(-89.82)"/><line class="cls-13" x1="1294.26" y1="283.09" x2="1315.09" y2="272.86"/><line class="cls-13" x1="1235.89" y1="283.02" x2="1218.73" y2="277.16"/><path class="cls-7" d="M1316.54,326.54s-4.57-12.67-11.19-15.19-3.26-11.4-.48-11.51c4.41-.19,10-4.36,10.11,0S1316.54,326.54,1316.54,326.54Z"/><rect class="cls-14" x="1130.16" y="379.17" width="183.25" height="62.84" rx="14.57" transform="translate(1.31 -3.89) rotate(0.18)"/><path class="cls-6" d="M1254.86,410.4l-66.15-.21a15.57,15.57,0,0,1-15.51-15.61h0c0-8.59-.38-15.56-.38-15.56l97.7.31,0,15.56h0A15.56,15.56,0,0,1,1254.86,410.4Z"/><path class="cls-15" d="M1270.47,394.89h0a15.56,15.56,0,0,1-15.61,15.51l-66.15-.21a15.57,15.57,0,0,1-15.51-15.61h0c0-8.59-.38-15.56-.38-15.56"/><path class="cls-5" d="M1156.61,379s-.34,8.49,3.67,15.57-11.55,20.38-7.53,25.35,18.6,6.89,42.51,5.42,63.91,6.1,69.81,4.87,48.27,3.26,48.31-10.08c-.06,20.48-8.62,22.18-25.07,22.13l-136.3-.44s-22,3.48-21.89-20.42-2.76-42.5,20-42.42Z"/><path class="cls-16" d="M1162.16,380.11s27.42-17.67,59.56-17.57,65.82,19.22,65.82,19.22"/><path class="cls-10" d="M1245.55,351.74a.58.58,0,0,0-.42-.18l3.29-20.45c.14-.89-29.28-35.28-29.28-35.28l-17.81,69.06-1,6.39a6.89,6.89,0,1,0,13.61,2.2l.06-.36c-.27,2.44-.2,4.87,1,6.45a6.84,6.84,0,0,0,9.58,1.28,8,8,0,0,0,2.66-4.49,6.89,6.89,0,0,0,13.69,1.49l1-6.39.61-3.8a5.86,5.86,0,0,0,2.91.95,6.84,6.84,0,0,0,6.91-6.75C1252.39,358.09,1248.82,355.09,1245.55,351.74Z"/><path class="cls-8" d="M1201.33,364.89l-1,6.39a6.9,6.9,0,0,0,5.71,7.91,7.22,7.22,0,0,0,8-6.07s-.2,4.87,1,6.45a6.84,6.84,0,0,0,9.58,1.28,8,8,0,0,0,2.66-4.49,6.89,6.89,0,0,0,13.69,1.49l1-6.39.61-3.8a5.86,5.86,0,0,0,2.91.95,6.84,6.84,0,0,0,6.91-6.75c0-3.77-3.53-6.77-6.8-10.12a.58.58,0,0,0-.42-.18l3.29-20.45"/><path class="cls-7" d="M1219.92,328.28c-2.25.25-5.68-.76-8.72-1.93l-3.88,15a23.91,23.91,0,0,0,4.66,3.49c5.39,2.93,12.07,3.27,17.86-2.54S1224.77,327.73,1219.92,328.28Z"/></g><ellipse class="cls-17" cx="1068.98" cy="290.79" rx="28.72" ry="63.55" transform="translate(774.78 1358.83) rotate(-89.82)"/><rect class="cls-17" x="1009.79" y="272.73" width="117.95" height="129.19" rx="27.35" transform="translate(1.08 -3.4) rotate(0.18)"/><path class="cls-18" d="M1116.52,418.35c.18-55.89,4-162.41-13.92-189.47-7.09,6.06-13,20.11-13,20.11s-7-4.2-23.15-4.25-23.18,4.11-23.18,4.11-5.84-14.09-12.89-20.2c-11.52,17.11-14.66,136-15.32,189.38Z"/><path d="M1117.43,364.89c-.09,8.87-.27,46.35-.29,53.46h-1.23c0-7.12.2-44.6.29-53.48"/><path d="M1115.43,312.62c-.89-19.15-2.61-41.31-4.53-53.67-2.15-13.77-5-23.56-8.43-29.13-6.67,6.13-12.27,19.28-12.32,19.41l-.28.65-.6-.36c-2.41-1.42-10.28-4.13-22.84-4.17s-20.45,2.62-22.87,4l-.62-1.06c.3-.18,7.41-4.25,23.49-4.2,13.63,0,20.8,3,22.85,4,1.25-2.81,6.57-14.29,12.92-19.72l.53-.46.38.58c7,10.5,11.39,37.75,13.34,79.62"/><path d="M1085.29,255.39a18.43,18.43,0,0,0-4.51-2,51.82,51.82,0,0,0-28.76-.09,18.52,18.52,0,0,0-4.52,2l-.71-1c.25-.17,6.2-4.28,19.62-4.23s19.35,4.18,19.6,4.36l-.72,1,.36-.49Z"/><path d="M1077.58,260.24s-3.5-2.41-11.19-2.43-11.18,2.34-11.21,2.36l-.71-1c.15-.11,3.79-2.62,11.92-2.59s11.76,2.56,11.91,2.66Z"/><polygon points="1066.27 295.45 1058.71 293.79 1058.98 292.58 1066.27 294.19 1073.58 292.63 1073.83 293.83 1066.27 295.45"/><polygon points="1066.27 303.54 1060.86 302.35 1061.05 301.49 1066.27 302.64 1071.51 301.52 1071.69 302.38 1066.27 303.54"/><rect x="1009.31" y="282.85" width="1.23" height="24.07" transform="translate(711.82 1303.86) rotate(-89.82)"/><rect x="1010.42" y="273.12" width="1.23" height="23.81" transform="translate(350.15 1101.51) rotate(-66.76)"/><rect x="1119.6" y="283.2" width="1.23" height="24.07" transform="translate(821.41 1414.5) rotate(-89.82)"/><rect x="1107.25" y="284.75" width="23.81" height="1.23" transform="translate(-22.9 457.55) rotate(-22.88)"/><path d="M1049.08,290.37h-1.23a3.25,3.25,0,1,0-6.5,0h-1.23a4.48,4.48,0,1,1,9,0Z"/><path d="M1090.51,290.5h-1.23a3.26,3.26,0,1,0-6.51,0h-1.23a4.49,4.49,0,0,1,9,0Z"/><rect x="1062.19" y="298.27" width="8.13" height="1.23" transform="translate(763.97 1364.19) rotate(-89.82)"/><path class="cls-17" d="M1050,351.25c-5.41,27.42-14,23.5-14,23.5s1.13-4.84,1.84-7.16c2.07-6.7,2.72-10.53,5.35-19.85,3.12-9.23-12.11-33.23-25.94-46.4l.09,0a13.49,13.49,0,0,1,15,4.38C1042.19,318.19,1053.63,332.86,1050,351.25Z"/><path class="cls-17" d="M1118.22,382c2.58-1-1.42-21.94,1.16-22.89a89.7,89.7,0,0,1-2-55.12h-.09a13.5,13.5,0,0,0-10.69,11.41C1104.51,331.15,1101.79,352.27,1118.22,382Z"/><path class="cls-18" d="M1130.18,290.13a.59.59,0,0,0,.22.4l-15.09,14.18c-.66.62,1.63,45.82,1.63,45.82l56.29-43.8,4.72-4.43a6.89,6.89,0,0,0-9.43-10.06l-.27.25c1.71-1.77,3.14-3.73,3.15-5.71a6.84,6.84,0,0,0-6.8-6.86,8,8,0,0,0-4.85,1.92,6.89,6.89,0,0,0-9.93-9.54l-4.72,4.43-2.81,2.63a5.82,5.82,0,0,0-1.72-2.52A6.83,6.83,0,0,0,1131,278C1128.64,280.93,1129.64,285.48,1130.18,290.13Z"/><path class="cls-8" d="M1173.23,306.73l4.72-4.43a6.89,6.89,0,0,0-9.43-10.06l-.27.25c1.71-1.77,3.14-3.73,3.15-5.71a6.84,6.84,0,0,0-6.8-6.86,8,8,0,0,0-4.85,1.92,6.89,6.89,0,0,0-9.93-9.54l-4.72,4.43-2.81,2.63a5.82,5.82,0,0,0-1.72-2.52A6.83,6.83,0,0,0,1131,278c-2.34,3-1.34,7.51-.8,12.16a.59.59,0,0,0,.22.4l-15.09,14.18"/><path class="cls-18" d="M1040.15,361.89a.58.58,0,0,0-.4-.22l5.16-20.06c.23-.87-25.9-37.83-25.9-37.83L994.9,370.9l-1.62,6.27a6.89,6.89,0,1,0,13.35,3.45l.09-.35c-.49,2.4-.65,4.83.4,6.5a6.84,6.84,0,0,0,9.42,2.16,8,8,0,0,0,3.07-4.22,6.89,6.89,0,0,0,13.49,2.75l1.62-6.27,1-3.72a5.81,5.81,0,0,0,2.8,1.2,6.82,6.82,0,0,0,7.5-6.08C1046.37,368.84,1043.09,365.52,1040.15,361.89Z"/><path class="cls-8" d="M994.9,370.9l-1.62,6.27a6.89,6.89,0,1,0,13.35,3.45l.09-.35c-.49,2.4-.65,4.83.4,6.5a6.84,6.84,0,0,0,9.42,2.16,8,8,0,0,0,3.07-4.22,6.89,6.89,0,0,0,13.49,2.75l1.62-6.27,1-3.72a5.81,5.81,0,0,0,2.8,1.2,6.82,6.82,0,0,0,7.5-6.08c.39-3.75-2.89-7.07-5.83-10.7a.58.58,0,0,0-.4-.22l5.16-20.06"/><g class="cls-19"><path class="cls-20" d="M479.84,418.65C369,527.75,190,526.3,80.89,415.41s-107.65-289.85,3.23-399a57.32,57.32,0,0,1,80.4,81.71c-65.83,64.77-66.69,171-1.92,236.84s171,66.69,236.84,1.92a168.24,168.24,0,0,0,25.72-32.39,57.31,57.31,0,0,1,97.91,59.61A283.23,283.23,0,0,1,479.84,418.65Z"/></g><path class="cls-21" d="M272.62,101.1v.36a459.37,459.37,0,0,0,10.52,69.25C304.66,261.18,439.55,243,439.48,150v-.39h0A458.87,458.87,0,0,0,429,80.4C407.45-10.08,272.55,8.09,272.62,101.1Z"/></g></g></g></svg>