<svg xmlns="http://www.w3.org/2000/svg" xmlns:xlink="http://www.w3.org/1999/xlink" viewBox="0 0 237.01 138.72"><defs><style>.cls-1{fill:url(#Degradado_sin_nombre_86);}</style><linearGradient id="Degradado_sin_nombre_86" x1="117.22" y1="-4.63" x2="118.74" y2="126.58" gradientUnits="userSpaceOnUse"><stop offset="0" stop-color="#fff"/><stop offset="0.15" stop-color="#fff" stop-opacity="0.87"/><stop offset="0.5" stop-color="#fff" stop-opacity="0.53"/><stop offset="1" stop-color="#fff" stop-opacity="0"/></linearGradient></defs><g id="Capa_2" data-name="Capa 2"><g id="DEGRADADO"><path class="cls-1" d="M205,74.72a32.77,32.77,0,0,0-4.57.33A44.11,44.11,0,0,0,160.9,50.48c-1,0-2,.05-3,.11a68.06,68.06,0,0,0-81.2-46A44.12,44.12,0,0,0,24.89,74.24c0,.42.07.84.1,1.26a32,32,0,1,0,31,52.37,68,68,0,0,0,75-.84,44.1,44.1,0,0,0,53.92,4.58A32,32,0,1,0,205,74.72Z"/></g></g></svg>