<svg xmlns="http://www.w3.org/2000/svg" xmlns:xlink="http://www.w3.org/1999/xlink" viewBox="0 0 1469.18 841.23"><defs><style>.cls-1{fill:url(#Degradado_sin_nombre_86);}.cls-2{fill:#fff;}</style><linearGradient id="Degradado_sin_nombre_86" x1="2796.09" y1="-829.12" x2="2802.65" y2="-261.72" gradientTransform="translate(-491.14 2762.61) rotate(-48.98)" gradientUnits="userSpaceOnUse"><stop offset="0" stop-color="#fff"/><stop offset="0.15" stop-color="#fff" stop-opacity="0.87"/><stop offset="0.5" stop-color="#fff" stop-opacity="0.53"/><stop offset="1" stop-color="#fff" stop-opacity="0"/></linearGradient></defs><g id="Capa_2" data-name="Capa 2"><g id="DEGRADADO"><path class="cls-1" d="M1226.41,47.56a140,140,0,0,0-11.88,15.83A190.72,190.72,0,0,0,1022.1,122.7c-2.88,3.31-5.58,6.72-8.19,10.16C899,82,759.67,109.09,672.85,208.91a294.06,294.06,0,0,0-39.52,58.27A189.9,189.9,0,0,0,562.9,318c-69.15,79.5-60.76,200,18.74,269.16a190.07,190.07,0,0,0,132,46.67c1.45,1.13,3,2.18,4.41,3.28a138.36,138.36,0,1,0,258.86,47.43,294.15,294.15,0,0,0,210.07-247,190.68,190.68,0,0,0,168-162.93,138.36,138.36,0,1,0-128.52-227Z"/></g><g id="Capa_2-2" data-name="Capa 2"><path class="cls-2" d="M624.45,416.22a66.15,66.15,0,0,0-44.26-.39,91.61,91.61,0,0,0-108.45-29.3A141.29,141.29,0,0,0,278.92,352a102.13,102.13,0,0,0-10.21-16,66.43,66.43,0,0,0-87.26-65.59A102.3,102.3,0,1,0,93.16,437.21a102.31,102.31,0,0,0,125.56,59.32A141.3,141.3,0,0,0,470,554.74c1.9.84,3.83,1.62,5.81,2.34a91.58,91.58,0,0,0,94.6-19.88,66.42,66.42,0,1,0,54.05-121Z"/></g></g></svg>