<svg xmlns="http://www.w3.org/2000/svg" xmlns:xlink="http://www.w3.org/1999/xlink" viewBox="0 0 261.13 178.57"><defs><style>.cls-1{fill:url(#Degradado_sin_nombre_54);}.cls-2{fill:#fff;}.cls-3{fill:#ba5648;}.cls-4{fill:#606060;}.cls-5{fill:#81cf87;}</style><linearGradient id="Degradado_sin_nombre_54" x1="10.88" y1="11.13" x2="165.92" y2="203.44" gradientUnits="userSpaceOnUse"><stop offset="0.23" stop-color="#fff"/><stop offset="0.29" stop-color="#fff" stop-opacity="0.85"/><stop offset="0.43" stop-color="#fff" stop-opacity="0.48"/><stop offset="0.59" stop-color="#fff" stop-opacity="0"/></linearGradient></defs><g id="Capa_2" data-name="Capa 2"><g id="Capa_2-2" data-name="Capa 2"><path class="cls-1" d="M15.19,86.91A21.32,21.32,0,0,1,30.05,50.37a21.56,21.56,0,0,1,6.36,1,42.62,42.62,0,0,1,76.68,25.36l40.41-.12A42.61,42.61,0,0,1,196.25,119h0a42.61,42.61,0,0,1-42.48,42.75l-111,.35A42.61,42.61,0,0,1,0,119.66H0A42.52,42.52,0,0,1,15.19,86.91Z"/><path class="cls-2" d="M162.06,42.74s-29.42,14.92-30.84,23.9,5.32,22.28-1.95,43.94,32.54-6.29,32.54-6.29S148.54,59,162.06,42.74Z"/><polygon class="cls-3" points="74.63 110.9 36.98 123.31 74.12 124.79 74.63 110.9"/><ellipse class="cls-2" cx="76.55" cy="117.83" rx="7.15" ry="9.55" transform="translate(-43.53 190.8) rotate(-88.27)"/><path d="M51.62,124.16H50.1v-.5h.72c4.68,0,11.74,0,13.94-2.17a2.07,2.07,0,0,0,.64-1.5h.5a2.52,2.52,0,0,1-.79,1.85C62.9,124.05,56.35,124.16,51.62,124.16Z"/><path class="cls-3" d="M202.24,166.35a.76.76,0,0,1-.38-.11l-18.51-10.92,0,0L168.7,142a.76.76,0,0,1,0-1.06.75.75,0,0,1,1.06-.05l14.54,13.2L202.63,165a.76.76,0,0,1,.26,1A.75.75,0,0,1,202.24,166.35Z"/><path class="cls-3" d="M199.34,168.08a.73.73,0,0,1-.71-.51l-1.71-5,5.91-1.65a.75.75,0,0,1,.92.53.74.74,0,0,1-.52.92l-4.38,1.22,1.2,3.55a.75.75,0,0,1-.47.95A.67.67,0,0,1,199.34,168.08Z"/><path class="cls-2" d="M195.87,157.89s20.07,6.83,20.82,2.08-3.13-9.37-3.13-9.37l-22.79-8.1c14.68-17.49,3.45-55.9,5.83-71S212.93,49,227.55,45c13.72-3.76,29.13-7.2,29.13-7.2C242.37,33.57,232,34.18,232,34.18s8.64-1.69,29.11-2.8c-14.12-5.46-34.47-3-34.47-3l30.25-13.09c-9.39-.68-35.1,9.1-35.1,9.1L249.47,3.94c-9.5,2-31.89,17.34-31.89,17.34S223,16.5,238.34,0c-22.57,4.24-74.49,53.44-74.49,53.44s-2.53,35.35-21.73,53.08-37.86,14.86-44.53,13.81-15.76-8.39-15.76-8.39-17,5.43-7.77,12.77c1.64,1.31,16.08.85,44.46,10"/><path class="cls-4" d="M188.22,141.62l25.33,9a18.16,18.16,0,0,1,3.52,7.12c1.39,4.87-28.85-13.75-28.85-13.75Z"/><path class="cls-4" d="M192,145c14.53-17.87,2.58-56.43,4.75-71.68s16.11-23,30.79-27.28c13.77-4,29.27-7.73,29.27-7.73-14.51-4-25-3.22-25-3.22s8.69-1.85,29.31-3.29c-14.32-5.28-34.81-2.51-34.81-2.51l30.31-13.69c-9.49-.54-35.26,9.74-35.26,9.74L249,4.25c-9.55,2.21-31.89,18-31.89,18s5.4-4.9,20.6-21.79c-9.88,2-25.23,12.72-39.41,24.16l-7,5.74s5.17-3.65,7.21.06,6.48,5.63,4.89,9.26S184.56,55,185.19,59.58s-.69,36.51-3.5,45.75-4,10-6.74,8.29,4.33,5.71,2.32,10.78-7.78,4.68-5.53,7.14,7.17,10,12,10.69Z"/><path d="M79.51,118.25l.64.21a3.82,3.82,0,0,0-2.45-4.64,3.7,3.7,0,0,0-1.23-.21A3.87,3.87,0,0,0,72.92,116l.64.21a3.13,3.13,0,0,1,2.91-1.92,2.94,2.94,0,0,1,1,.17A3.14,3.14,0,0,1,79.51,118.25Z"/><path class="cls-3" d="M204,176.34a1,1,0,0,1-.48-.12l-25.37-14-.08-.06-20-17a1,1,0,0,1-.11-1.41,1,1,0,0,1,1.4-.11l19.94,17,25.19,13.94a1,1,0,0,1-.48,1.87Z"/><path class="cls-3" d="M200,178.57a1,1,0,0,1-.94-.66l-2.37-6.57,8.12-2.11a1,1,0,0,1,.5,1.94l-6,1.56,1.63,4.5a1,1,0,0,1-.61,1.28A1,1,0,0,1,200,178.57Z"/><path class="cls-5" d="M102.69,123.17c3.48-22.4,8.68-65.33,17.59-75,2.46,2.88,4,8.89,4,8.89s3.09-1.24,9.54-.24,9,3.11,9,3.11,3.23-5.27,6.44-7.27c3.53,7.58-2.74,55.4-5.87,76.85Z"/><rect x="152.98" y="75.58" width="0.5" height="9.77" transform="translate(50.25 219.56) rotate(-81.19)"/><rect x="148.58" y="76.19" width="9.66" height="0.5" transform="translate(-14.1 40.12) rotate(-14.25)"/><rect x="108.77" y="68.73" width="0.5" height="9.77" transform="translate(19.58 170.07) rotate(-81.19)"/><rect x="109.82" y="64.89" width="0.5" height="9.66" transform="translate(-7.26 126.39) rotate(-58.13)"/><polygon points="130.9 77.11 134.03 76.92 134 76.42 130.98 76.61 128.15 75.52 127.97 75.98 130.9 77.11"/><polygon points="130.39 80.35 132.63 80.22 132.61 79.86 130.44 79.99 128.42 79.21 128.29 79.54 130.39 80.35"/><path d="M138.11,76.16l.49.08a1.32,1.32,0,0,1,2.61.4l.49.08a1.82,1.82,0,0,0-3.59-.56Z"/><path d="M121.5,73.59l.5.08a1.32,1.32,0,0,1,1.5-1.11,1.34,1.34,0,0,1,1.11,1.51l.49.08a1.82,1.82,0,0,0-3.6-.56Z"/><rect x="129.04" y="78.24" width="3.3" height="0.5" transform="translate(33.11 195.62) rotate(-81.19)"/><path d="M128.74,56.53c-1.59.89-.46,3.56.73,3.75s1.24-1.29,1.63-3.78C131.1,56.5,128.88,56.45,128.74,56.53Z"/><path d="M134.93,56.91a16.64,16.64,0,0,0-3.51-.29,2.87,2.87,0,0,1,.16,2.32c-.38,2.49-.53,4.54.86,4.75s1.44-1.5,1.83-4A23.93,23.93,0,0,1,134.93,56.91Z"/><path d="M139.22,58.13c-.39,1.79-1.1,3.49-2.61,3.25-1.8-.28-1.34-2.14-1-4.46.65.2,1.51.51,2.06.72C138.46,57.92,138.86,58,139.22,58.13Z"/><path class="cls-2" d="M131.73,127.67c2-7.24,3.38-36.24-4.92-37.53-8.83-1.37-14.71,26.1-16,34.28-.3,1.9,8.87,2.22,8.87,2.22S131.12,129.93,131.73,127.67Z"/><path class="cls-5" d="M128.53,110.55a2.54,2.54,0,0,0,2,3,2.23,2.23,0,0,0,1.13-.11l-.09,1.43-.14,2.4a2.56,2.56,0,0,0,5.09.57,3,3,0,0,0,.61,1.84,2.54,2.54,0,0,0,3.58.31,3.43,3.43,0,0,0,.88-2.26v.14a2.56,2.56,0,0,0,5.12.3l.15-2.4,1.7-26.49s-16,10.07-16.07,10.41l-.46,7.69a.26.26,0,0,0-.17,0C130.36,108.37,128.82,109.17,128.53,110.55Z"/><path d="M133.49,120.29a1.43,1.43,0,0,0,.29,0,2.86,2.86,0,0,0,2.57-1.26,2.84,2.84,0,0,0,.48.85,2.88,2.88,0,0,0,4,.35,2.35,2.35,0,0,0,.64-.91,2.76,2.76,0,0,0,.42.61,2.91,2.91,0,0,0,4.09.24,2.92,2.92,0,0,0,1-2l.14-2.4,1.92-29.24-.67,0-1.92,29.24-.14,2.4a2.24,2.24,0,0,1-2.36,2.1,2.21,2.21,0,0,1-1.53-.75,2.17,2.17,0,0,1-.56-1.61v-.14l-.67-.05a3.07,3.07,0,0,1-.77,2,2.21,2.21,0,0,1-3.11-.27,2.68,2.68,0,0,1-.52-1.65l-.15-3.23-.52,3.19a2.23,2.23,0,0,1-4.42-.49L132,113l-.47.16a1.93,1.93,0,0,1-.95.1,2.22,2.22,0,0,1-1.71-2.62c.23-1,1.37-1.78,2.58-2.55l.53-.33.33.06.48-8.07-.66,0-.45,7.44,0,0-.56.36c-1.33.84-2.59,1.64-2.87,3a2.87,2.87,0,0,0,2.22,3.4,2.15,2.15,0,0,0,.84,0l-.2,3.37a2.87,2.87,0,0,0,2.43,3Z"/></g></g></svg>