<?xml version="1.0" encoding="utf-8"?>
<!-- Generator: Adobe Illustrator 18.0.0, SVG Export Plug-In . SVG Version: 6.00 Build 0)  -->
<!DOCTYPE svg PUBLIC "-//W3C//DTD SVG 1.1//EN" "http://www.w3.org/Graphics/SVG/1.1/DTD/svg11.dtd">
<svg version="1.1" xmlns="http://www.w3.org/2000/svg" xmlns:xlink="http://www.w3.org/1999/xlink" x="0px" y="0px"
	 viewBox="0 0 268.5 97" enable-background="new 0 0 268.5 97" xml:space="preserve">
<g id="Capa_1">
</g>
<g id="Capa_3">
</g>
<g id="Capa_2">
	<path fill="#29B3C1" d="M81.3,38.4h9.1v3.8c1.4-2.9,3.7-4.4,7-4.4c1.9,0,3.7,0.5,5.3,1.4c1.6,1,2.9,2.3,3.8,4
		c0.9,1.7,1.4,3.6,1.4,5.7c0,2.1-0.5,4-1.4,5.7c-1,1.7-2.3,3-3.9,4s-3.4,1.4-5.2,1.4c-3.3,0-5.6-1.5-7.1-4.4v9.6l-9.1,1.7V38.4z
		 M97.8,51.9c0.8-0.9,1.3-1.9,1.3-3c0-1.2-0.4-2.2-1.3-3.1c-0.8-0.8-1.9-1.3-3-1.3c-1.2,0-2.2,0.4-3,1.2c-0.8,0.8-1.3,1.8-1.3,2.9
		v0.2c0,1.2,0.4,2.2,1.3,3.1c0.9,0.8,1.9,1.3,3,1.3C95.9,53.2,97,52.8,97.8,51.9z"/>
	<path fill="#29B3C1" d="M115.4,58.6c-1.6-1-2.9-2.3-3.9-4.1c-1-1.7-1.5-3.6-1.5-5.7c0-2.1,0.5-4,1.5-5.6c1-1.7,2.3-3,3.9-4
		c1.6-1,3.4-1.4,5.2-1.4c1.5,0,2.9,0.4,4.2,1.3c1.3,0.8,2.3,2.1,2.9,3.8v-5h9.1v21.9h-9.1v-4c-1.4,2.9-3.8,4.4-7.1,4.4
		C118.8,60.1,117,59.6,115.4,58.6z M126.4,52c0.8-0.8,1.3-1.8,1.3-2.9v-0.3c-0.1-1.2-0.5-2.1-1.4-2.9c-0.8-0.8-1.8-1.2-2.9-1.2
		c-1.2,0-2.2,0.4-3.1,1.3c-0.9,0.9-1.3,1.9-1.3,3c0,1.2,0.4,2.2,1.3,3.1c0.9,0.8,1.9,1.3,3.1,1.3C124.6,53.2,125.6,52.8,126.4,52z"
		/>
	<path fill="#F49D11" d="M144.6,58.5c-1.6-1-2.9-2.4-3.8-4.1c-0.9-1.7-1.4-3.5-1.4-5.5c0-2,0.5-3.9,1.4-5.6c1-1.7,2.3-3.1,3.9-4
		c1.6-1,3.4-1.5,5.2-1.5c1.7,0,3.1,0.3,4.3,1c1.2,0.7,2.1,1.8,2.8,3.3V31.2l9.1-1.3v29.8h-9.1v-4c-1.4,2.9-3.7,4.4-7.1,4.4
		C148,60.1,146.2,59.5,144.6,58.5z M155.9,51.9c0.8-0.9,1.2-1.9,1.2-3v-0.2c0-1.1-0.4-2.1-1.3-2.9c-0.9-0.8-1.9-1.2-3-1.2
		c-1.2,0-2.2,0.4-3,1.3c-0.8,0.9-1.2,1.9-1.2,3c0,1.2,0.4,2.2,1.3,3.1c0.8,0.8,1.9,1.3,3,1.3C154,53.2,155,52.8,155.9,51.9z"/>
	<path fill="#F49D11" d="M171.9,57.7c-1.4-1.6-2-3.7-2-6.4v-9.4h9.2v9c0,0.7,0.2,1.2,0.5,1.5c0.4,0.4,0.8,0.5,1.4,0.5
		s1.2-0.2,1.8-0.5l0.5,6c-0.6,0.5-1.5,0.9-2.5,1.1c-1,0.3-2.1,0.4-3.2,0.4C175.1,60.1,173.3,59.3,171.9,57.7z"/>
	<path fill="#3E936F" d="M185.9,38.4h8.7v4.4c1.7-3.3,4.3-5,7.9-5c2.8,0,4.9,1,6.5,3c1.6,2,2.4,4.7,2.4,8.2v10.8h-9.1V48
		c0-1.2-0.3-2.2-0.8-2.9c-0.5-0.7-1.3-1-2.2-1c-0.7,0-1.4,0.2-2,0.7c-0.7,0.4-1.2,1.1-1.6,1.9c-0.4,0.8-0.6,1.8-0.6,2.9v10.1h-9.1
		V38.4z"/>
	<path fill="#3E936F" d="M222.8,69.1l0.7-6.4c1.1,0.2,2.2,0.3,3.1,0.3c1.8,0,3.1-0.5,4.1-1.6c0.9-1.1,1.5-2.8,1.6-5.3
		c-1.7,2.4-4.3,3.6-7.8,3.6c-1.9,0-3.7-0.5-5.2-1.5c-1.6-1-2.9-2.3-3.8-4c-0.9-1.7-1.4-3.5-1.4-5.5c0-2,0.5-3.9,1.4-5.6
		c0.9-1.7,2.2-3,3.8-4c1.6-1,3.3-1.5,5.2-1.5c1.8,0,3.3,0.5,4.6,1.4c1.3,0.9,2.2,2.1,2.6,3.7v-5h9.1v16.5c0,5-1.1,8.9-3.4,11.5
		c-2.3,2.6-5.6,3.9-10,3.9C225.8,69.6,224.3,69.4,222.8,69.1z M230.3,52c0.8-0.8,1.3-1.8,1.3-2.9v-0.3c-0.1-1.1-0.5-2.1-1.4-2.9
		c-0.9-0.8-1.8-1.3-3-1.3c-1.2,0-2.2,0.4-3,1.3c-0.8,0.9-1.3,1.9-1.3,3c0,1.2,0.4,2.2,1.3,3c0.8,0.9,1.8,1.3,3,1.3
		C228.5,53.2,229.5,52.8,230.3,52z"/>
	<path fill="#F49D11" d="M174.4,39.9L174.4,39.9c-2.7,0-4.6-2.1-4.6-4.6l0-2.7c0-2.6,2-4.6,4.6-4.6l0,0c2.7,0,4.6,2.1,4.6,4.6l0,2.7
		C179.1,37.8,177.2,39.9,174.4,39.9z"/>
	<circle fill="none" cx="54.1" cy="37.4" r="5.2"/>
	<circle fill="none" cx="40.5" cy="59.7" r="5.2"/>
	<path fill="#29B3C1" d="M66.9,37.2c-0.1-7.2-6-13-13.2-13c-7.5,0.1-12.7,6.2-13.1,13.2c-0.1,2.4-0.3,5.7,0.1,9.2l0,0
		c-0.1-7.4,10.6-8.9,12.4-1.7c0.5,1.8,0.7,3.7,0.9,5.5C61.1,50.3,66.9,44.4,66.9,37.2z M54.1,42.5c-2.9,0-5.2-2.3-5.2-5.1
		s2.3-5.2,5.1-5.2c2.9,0,5.2,2.3,5.2,5.1S57,42.5,54.1,42.5z"/>
	<path fill="#F49D11" d="M53.9,50.4c0.1,7.4-10.6,8.9-12.4,1.7c-0.5-1.8-0.7-3.7-0.9-5.5l0,0c-7.2,0.1-13,6-13,13.2
		c0.1,7.2,6,13,13.2,13h0c7.5-0.1,12.7-6.2,13.1-13.2C54.1,57.2,54.2,53.9,53.9,50.4L53.9,50.4L53.9,50.4z M40.5,64.9
		c-2.9,0-5.2-2.3-5.2-5.1s2.3-5.2,5.1-5.2c2.9,0,5.2,2.3,5.2,5.1C45.7,62.5,43.4,64.8,40.5,64.9z"/>
	<path fill="#3E936F" d="M40.6,46.6L40.6,46.6c0.2,1.8,0.4,3.7,0.9,5.5c1.8,7.2,12.5,5.6,12.4-1.7l0,0l0,0c-0.2-1.8-0.4-3.6-0.9-5.5
		C51.3,37.7,40.6,39.3,40.6,46.6z"/>
</g>
</svg>
