<svg xmlns="http://www.w3.org/2000/svg" viewBox="0 0 1523.17 239.88"><defs><style>.cls-1{isolation:isolate;}.cls-2{fill:#dd7305;}.cls-3{fill:#4fa5e9;mix-blend-mode:multiply;}.cls-4{fill:#86d0ed;}</style></defs><g class="cls-1"><g id="Capa_2" data-name="Capa 2"><g id="Capa_1-2" data-name="Capa 1"><path class="cls-2" d="M1484,10.48a57.28,57.28,0,0,1-81.67,80.35,11.64,11.64,0,1,1,16.59-16.32A34,34,0,0,0,1467.4,26.8a34.65,34.65,0,0,0-6.58-5.22,11.64,11.64,0,1,1,12.1-19.88A57.33,57.33,0,0,1,1484,10.48Z"/><path class="cls-3" d="M1523.17,165.42a73.87,73.87,0,1,0-73.27,74.46A73.87,73.87,0,0,0,1523.17,165.42Zm-40.61.33a33.26,33.26,0,1,1-33.52-33A33.26,33.26,0,0,1,1482.56,165.75Z"/><path class="cls-4" d="M57,38.19a56.59,56.59,0,1,0,56.13,57.05A56.59,56.59,0,0,0,57,38.19Zm-.66,82.06A25.48,25.48,0,1,1,82.06,95,25.48,25.48,0,0,1,56.38,120.25Z"/></g></g></g></svg>