<svg xmlns="http://www.w3.org/2000/svg" viewBox="0 0 224.16 178.57"><defs><style>.cls-1{fill:#fff;}.cls-2{fill:#c1c1c1;}.cls-3{fill:#ba5648;}.cls-4{fill:#606060;}</style></defs><g id="Capa_2" data-name="Capa 2"><g id="Capa_2-2" data-name="Capa 2"><path class="cls-1" d="M63.55,124C67,101.62,72.23,58.7,81.14,49c2.46,2.87,4,8.88,4,8.88s3.09-1.24,9.54-.24,9,3.12,9,3.12,3.23-5.28,6.44-7.28c3.53,7.59-2.74,55.41-5.87,76.85Z"/><rect x="113.84" y="76.43" width="0.5" height="9.77" transform="translate(16.26 181.61) rotate(-81.19)"/><rect x="109.44" y="77.04" width="9.66" height="0.5" transform="translate(-15.51 30.51) rotate(-14.25)"/><rect x="69.63" y="69.58" width="0.5" height="9.77" transform="translate(-14.41 132.12) rotate(-81.19)"/><rect x="70.68" y="65.75" width="0.5" height="9.66" transform="translate(-26.46 93.55) rotate(-58.13)"/><polygon points="91.76 77.97 94.89 77.78 94.86 77.28 91.84 77.46 89.01 76.37 88.83 76.84 91.76 77.97"/><polygon points="91.25 81.21 93.49 81.07 93.47 80.71 91.3 80.84 89.28 80.06 89.15 80.4 91.25 81.21"/><path d="M99,77l.49.07a1.32,1.32,0,1,1,2.61.41l.49.08A1.82,1.82,0,1,0,99,77Z"/><path d="M82.36,74.45l.5.07a1.31,1.31,0,0,1,1.5-1.1,1.33,1.33,0,0,1,1.11,1.51L86,75a1.82,1.82,0,0,0-3.6-.55Z"/><rect x="89.9" y="79.09" width="3.3" height="0.5" transform="translate(-0.88 157.66) rotate(-81.19)"/><path d="M89.6,57.39c-1.59.89-.46,3.56.73,3.74s1.24-1.29,1.63-3.78C92,57.35,89.74,57.31,89.6,57.39Z"/><path d="M95.79,57.76a16.65,16.65,0,0,0-3.51-.28,2.86,2.86,0,0,1,.16,2.32c-.38,2.49-.53,4.53.86,4.75s1.44-1.5,1.83-4A24,24,0,0,1,95.79,57.76Z"/><path d="M100.08,59c-.39,1.79-1.1,3.49-2.61,3.26-1.8-.28-1.34-2.15-1-4.47.65.2,1.51.52,2.06.73C99.32,58.78,99.72,58.83,100.08,59Z"/><path class="cls-2" d="M92.59,128.53c2-7.24,3.38-36.25-4.92-37.54-8.83-1.36-14.71,26.11-16,34.29-.3,1.9,8.87,2.22,8.87,2.22S92,130.78,92.59,128.53Z"/><path class="cls-1" d="M89.39,111.4a2.54,2.54,0,0,0,2,3,2.12,2.12,0,0,0,1.13-.11l-.09,1.43-.14,2.4a2.56,2.56,0,0,0,5.09.57,3,3,0,0,0,.61,1.85,2.55,2.55,0,0,0,3.58.31,3.45,3.45,0,0,0,.88-2.26v.13a2.56,2.56,0,0,0,5.12.31l.15-2.41,1.7-26.49S93.32,100.22,93.3,100.55l-.46,7.69a.22.22,0,0,0-.17,0C91.22,109.23,89.68,110,89.39,111.4Z"/><path d="M94.35,121.15l.29,0a2.89,2.89,0,0,0,2.58-1.27,2.51,2.51,0,0,0,.47.85,2.88,2.88,0,0,0,4,.35,2.35,2.35,0,0,0,.64-.91,2.76,2.76,0,0,0,.42.61,2.9,2.9,0,0,0,5.06-1.75l.14-2.41,1.92-29.23-.67,0-1.92,29.24-.14,2.41a2.21,2.21,0,0,1-.75,1.53,2.16,2.16,0,0,1-1.61.56,2.22,2.22,0,0,1-2.09-2.36v-.13l-.67-.06a3.07,3.07,0,0,1-.77,2,2.21,2.21,0,0,1-3.11-.27,2.65,2.65,0,0,1-.52-1.64l-.15-3.24-.52,3.2a2.23,2.23,0,0,1-4.42-.5l.25-4.32-.47.15a1.72,1.72,0,0,1-1,.1,2.21,2.21,0,0,1-1.71-2.61c.23-1.06,1.37-1.78,2.58-2.55l.53-.34.33.06.49-8.07-.67,0L92.52,108l0,0-.56.35c-1.33.85-2.59,1.65-2.87,3a2.88,2.88,0,0,0,2.22,3.41,2.37,2.37,0,0,0,.84,0l-.2,3.37a2.89,2.89,0,0,0,2.43,3Z"/><polygon class="cls-3" points="37.65 110.9 0 123.31 37.14 124.79 37.65 110.9"/><ellipse class="cls-1" cx="39.57" cy="117.83" rx="7.15" ry="9.55" transform="translate(-79.4 153.84) rotate(-88.27)"/><path d="M14.64,124.16H13.12v-.5h.72c4.68,0,11.74,0,13.94-2.17a2.07,2.07,0,0,0,.64-1.5h.5a2.52,2.52,0,0,1-.79,1.85C25.92,124.05,19.37,124.16,14.64,124.16Z"/><path class="cls-3" d="M165.26,166.35a.79.79,0,0,1-.38-.11l-18.5-10.92-.06,0L131.73,142a.76.76,0,0,1-.06-1.06.75.75,0,0,1,1.06-.05l14.54,13.2L165.65,165a.76.76,0,0,1,.26,1A.75.75,0,0,1,165.26,166.35Z"/><path class="cls-3" d="M162.36,168.08a.74.74,0,0,1-.71-.51l-1.71-5,5.91-1.65a.76.76,0,0,1,.93.53.75.75,0,0,1-.53.92l-4.38,1.22,1.2,3.55a.75.75,0,0,1-.47.95A.67.67,0,0,1,162.36,168.08Z"/><path class="cls-1" d="M158.89,157.89S179,164.72,179.71,160s-3.13-9.37-3.13-9.37l-22.79-8.1c14.68-17.49,3.45-55.9,5.83-71S176,49,190.57,45c13.72-3.76,29.13-7.2,29.13-7.2C205.39,33.57,195,34.18,195,34.18s8.64-1.69,29.11-2.8c-14.12-5.46-34.47-3-34.47-3l30.26-13.09c-9.4-.68-35.1,9.1-35.1,9.1L212.5,3.94C203,6,180.6,21.28,180.6,21.28S186,16.5,201.36,0c-22.57,4.24-74.48,53.44-74.48,53.44s-2.54,35.35-21.73,53.08-37.87,14.86-44.53,13.81-15.77-8.39-15.77-8.39-17,5.43-7.77,12.77c1.64,1.31,16.08.85,44.46,10"/><path class="cls-4" d="M151.25,141.62l25.32,9a18.16,18.16,0,0,1,3.52,7.12c1.39,4.87-28.84-13.75-28.84-13.75Z"/><path class="cls-4" d="M155,145c14.53-17.87,2.58-56.43,4.75-71.68s16.11-23,30.79-27.28c13.77-4,29.27-7.73,29.27-7.73-14.51-4-25-3.22-25-3.22s8.69-1.85,29.32-3.29c-14.33-5.28-34.82-2.51-34.82-2.51l30.31-13.69c-9.49-.54-35.26,9.74-35.26,9.74L212,4.25c-9.55,2.21-31.89,18-31.89,18s5.4-4.9,20.6-21.79c-9.88,2-25.23,12.72-39.41,24.16l-7,5.74s5.17-3.65,7.21.06,6.48,5.63,4.89,9.26S147.58,55,148.21,59.58s-.68,36.51-3.49,45.75-4,10-6.75,8.29,4.33,5.71,2.32,10.78-7.78,4.68-5.53,7.14,7.17,10,12,10.69Z"/><path d="M42.53,118.25l.64.21a3.81,3.81,0,0,0-2.45-4.64,3.7,3.7,0,0,0-1.23-.21A3.84,3.84,0,0,0,36,116l.63.21a3.14,3.14,0,0,1,2.91-1.92,2.9,2.9,0,0,1,1,.17A3.13,3.13,0,0,1,42.53,118.25Z"/><path class="cls-3" d="M167,176.34a1,1,0,0,1-.48-.12l-25.37-14-.08-.06-20-17a1,1,0,1,1,1.3-1.52l19.93,17,25.2,13.94a1,1,0,0,1-.49,1.87Z"/><path class="cls-3" d="M163,178.57a1,1,0,0,1-.94-.66l-2.37-6.57,8.12-2.11a1,1,0,0,1,.51,1.94l-6,1.56,1.62,4.5a1,1,0,0,1-.6,1.28A1.06,1.06,0,0,1,163,178.57Z"/></g></g></svg>