<svg xmlns="http://www.w3.org/2000/svg" viewBox="0 0 448.43 357.23"><defs><style>.cls-1{fill:#fff;}.cls-2{fill:#fdda5a;}.cls-3{fill:#ba5648;}.cls-4,.cls-5,.cls-7{fill:none;stroke-miterlimit:10;}.cls-4{stroke:#000;}.cls-5,.cls-7{stroke:#ba5648;stroke-linecap:round;}.cls-5{stroke-width:3px;}.cls-6{fill:#606060;}.cls-7{stroke-width:4px;}</style></defs><g id="Capa_2" data-name="Capa 2"><g id="Capa_2-2" data-name="Capa 2"><path class="cls-1" d="M257.78,91.39s-58.82,29.83-61.67,47.8,10.64,44.54-3.9,87.87,65.09-12.57,65.09-12.57S230.76,124,257.78,91.39Z"/><path class="cls-2" d="M127.06,248.25c6.94-44.82,17.35-130.66,35.18-150.06,4.91,5.75,7.88,17.76,7.88,17.76s6.19-2.47,19.09-.47,18,6.23,18,6.23,6.47-10.55,12.9-14.55c7.06,15.17-5.49,110.8-11.74,153.7Z"/><rect x="227.64" y="153.06" width="1" height="19.53" transform="translate(32.29 363.34) rotate(-81.19)"/><rect x="218.83" y="154.28" width="19.32" height="1" transform="translate(-31.07 61.02) rotate(-14.25)"/><rect x="139.22" y="139.36" width="1" height="19.53" transform="translate(-29.05 264.35) rotate(-81.19)"/><rect x="141.31" y="131.69" width="1" height="19.32" transform="translate(-53.1 187.15) rotate(-58.13)"/><polygon points="183.47 156.12 189.74 155.75 189.68 154.75 183.63 155.12 177.98 152.94 177.62 153.87 183.47 156.12"/><polygon points="182.45 162.61 186.94 162.34 186.89 161.62 182.56 161.88 178.51 160.32 178.25 160.99 182.45 162.61"/><path d="M197.89,154.23l1,.15a2.64,2.64,0,0,1,5.21.81l1,.15a3.64,3.64,0,1,0-7.19-1.11Z"/><path d="M164.68,149.08l1,.16a2.64,2.64,0,1,1,5.21.8l1,.16a3.64,3.64,0,0,0-7.19-1.12Z"/><rect x="179.75" y="158.38" width="6.6" height="1" transform="translate(-1.99 315.44) rotate(-81.19)"/><path d="M179.15,115c-3.17,1.78-.92,7.12,1.46,7.48s2.48-2.57,3.25-7.55C183.86,114.9,179.44,114.81,179.15,115Z"/><path d="M191.53,115.72c-1.3-.12-5.48-.93-7-.57,1.08,1.46.53,3.21.31,4.63-.77,5-1.06,9.08,1.71,9.51s2.9-3,3.67-8A49.59,49.59,0,0,1,191.53,115.72Z"/><path d="M200.12,118.15c-.79,3.59-2.22,7-5.24,6.52-3.59-.56-2.67-4.29-1.91-8.93,1.29.4,3,1,4.12,1.44C198.59,117.74,199.4,117.85,200.12,118.15Z"/><path class="cls-1" d="M185.13,257.25c3.92-14.48,6.76-72.5-9.84-75.07-17.65-2.73-29.42,52.21-32,68.57-.6,3.8,17.74,4.44,17.74,4.44S183.9,261.75,185.13,257.25Z"/><path class="cls-2" d="M178.72,223a5.08,5.08,0,0,0,3.93,6,4.34,4.34,0,0,0,2.26-.21l-.17,2.85-.29,4.81a5.13,5.13,0,0,0,10.19,1.13,5.88,5.88,0,0,0,1.21,3.69,5.07,5.07,0,0,0,7.15.63c1.13-.95,1.57-2.7,1.77-4.52v.27a5.13,5.13,0,0,0,10.24.61l.28-4.81,3.41-53s-32.1,20.16-32.14,20.83l-.92,15.38a.45.45,0,0,0-.33.07C182.38,218.65,179.3,220.25,178.72,223Z"/><path d="M188.66,242.49l.57.06a5.79,5.79,0,0,0,5.15-2.53,5.65,5.65,0,0,0,1,1.7,5.76,5.76,0,0,0,8.1.7,4.68,4.68,0,0,0,1.28-1.82,5.8,5.8,0,0,0,11-2.29l.28-4.81L219.78,175l-1.33-.09-3.84,58.47-.28,4.82a4.46,4.46,0,1,1-8.9-.53v-.27l-1.33-.11c-.23,2.06-.73,3.4-1.54,4.07a4.4,4.4,0,0,1-6.21-.54,5.22,5.22,0,0,1-1.06-3.29L195,231.1l-1,6.39a4.46,4.46,0,0,1-8.86-1l.52-8.65-.94.31a3.71,3.71,0,0,1-1.92.2,4.42,4.42,0,0,1-3.4-5.23c.45-2.12,2.73-3.57,5.15-5.1l1.06-.68.67.13,1-16.14-1.33-.08L185,216.15l-.07,0c-.37.24-.74.48-1.12.71-2.66,1.69-5.18,3.29-5.74,5.95a5.77,5.77,0,0,0,4.44,6.82,4.31,4.31,0,0,0,1.68,0l-.4,6.75a5.78,5.78,0,0,0,4.87,6.07Z"/><polygon class="cls-3" points="75.32 221.86 0 246.68 74.3 249.65 75.32 221.86"/><ellipse class="cls-1" cx="79.17" cy="235.73" rx="14.31" ry="19.1" transform="translate(-158.84 307.76) rotate(-88.27)"/><path class="cls-4" d="M26.25,247.89c11.15,0,31.11.39,31.11-7.85"/><polyline class="cls-5" points="264.53 283 293.73 309.51 330.62 331.29"/><polyline class="cls-5" points="324.8 334.75 321.9 326.14 332.2 323.28"/><path class="cls-1" d="M317.86,315.87S358,329.52,359.53,320s-6.28-18.75-6.28-18.75l-45.59-16.21c29.37-35,6.9-111.82,11.67-142S352,98,381.25,90c27.44-7.53,58.28-14.4,58.28-14.4-28.64-8.4-49.45-7.18-49.45-7.18s17.29-3.39,58.24-5.61c-28.24-10.91-69-6.07-69-6.07l60.53-26.19c-18.8-1.36-70.22,18.21-70.22,18.21L425.11,7.87c-19,4.08-63.81,34.69-63.81,34.69S372.16,33,402.83,0c-45.16,8.48-149,106.91-149,106.91s-5.07,70.72-43.47,106.18-75.76,29.74-89.09,27.63S89.72,224,89.72,224s-33.9,10.85-15.53,25.53c3.28,2.62,32.15,1.71,88.93,19.9"/><path class="cls-6" d="M310.12,290c29.07-35.75,5.17-112.9,9.5-143.41s32.23-46,61.6-54.56c27.56-8,58.55-15.46,58.55-15.46-29-8-50-6.45-50-6.45s17.39-3.69,58.65-6.59c-28.65-10.55-69.64-5-69.64-5L439.42,31.1c-19-1.07-70.54,19.5-70.54,19.5L424.14,8.51c-19.11,4.42-63.8,36-63.8,36s10.8-9.81,41.21-43.6c-19.76,4-50.47,25.44-78.85,48.33L308.78,60.73s10.34-7.3,14.42.13,13,11.27,9.8,18.53S295.24,110,296.51,119.18s-1.38,73.06-7,91.53-8,20-13.49,16.59,8.65,11.43,4.64,21.57-15.56,9.35-11.07,14.27,14.34,20,24,21.4Z"/><path d="M85.08,236.56l1.28.43a7.62,7.62,0,0,0-4.89-9.29,7.65,7.65,0,0,0-9.56,4.36l1.28.43A6.25,6.25,0,0,1,79,228.64a6.39,6.39,0,0,1,2,.33A6.3,6.3,0,0,1,85.08,236.56Z"/><polyline class="cls-7" points="243.46 288.74 283.49 322.8 334.07 350.78"/><polyline class="cls-7" points="326.1 355.24 322.12 344.16 336.24 340.49"/><path class="cls-6" d="M310.12,286l43.13,15.33s3.64,3.84,6,12.13S310.12,290,310.12,290Z"/></g></g></svg>