<svg xmlns="http://www.w3.org/2000/svg" viewBox="0 0 712.44 718.58"><defs><style>.cls-1{isolation:isolate;}.cls-2{fill:#82d188;}.cls-3{fill:#fff;}.cls-4{fill:#71bf7a;}.cls-5{fill:#6dad70;mix-blend-mode:multiply;}.cls-6{fill:#f8db71;}.cls-7{fill:none;stroke:#000;stroke-miterlimit:10;stroke-width:3px;}.cls-8{fill:#f7be72;}</style></defs><g class="cls-1"><g id="Capa_2" data-name="Capa 2"><g id="Capa_1-2" data-name="Capa 1"><path class="cls-2" d="M531,718.58c0-194,12.27-563.76-50.41-657.47-24.53,21.12-45,70-45,70s-24.53-14.52-80.4-14.52-80.4,14.52-80.4,14.52-20.44-48.83-45-69.95c-39.81,59.51-49.39,472-51.08,657.47Z"/><path class="cls-3" d="M490.79,75.73S485.34,84.4,479,88.54s-23.86,16.8-18.5,30.43,25.8,7.79,24.34,17.28,12.85,22.69,27.36,23.4Z"/><path class="cls-3" d="M530.42,628.63S513,573.08,484.79,561s-12-49.85,0-49.85c19.09,0,44.08-17,43.68,1.77S530.42,628.63,530.42,628.63Z"/><polygon points="355.18 292.56 328.94 286.86 329.84 282.69 355.18 288.2 380.51 282.69 381.42 286.86 355.18 292.56"/><path d="M433.66,316.87l-78.48,1.74-71.89,4.24S311.08,365,352,365C408.13,365,433.66,316.87,433.66,316.87Z"/><rect x="117.83" y="289.09" width="83.56" height="4.27"/><rect x="161.24" y="215.65" width="4.27" height="82.63" transform="translate(-137.06 306.63) rotate(-66.94)"/><rect x="500.62" y="289.09" width="83.56" height="4.27"/><rect x="497.32" y="254.83" width="82.63" height="4.27" transform="translate(-57.61 231.52) rotate(-23.06)"/><rect x="353.04" y="290.38" width="4.27" height="28.23"/><path class="cls-4" d="M317,352s20.22-12.63,36.87-12.63,33.64,13.51,33.64,13.51-18.1,7.48-30.57,7.48C331.09,360.39,317,352,317,352Z"/><circle cx="280.69" cy="277.28" r="6.84"/><circle cx="423.4" cy="277.28" r="6.84"/><path d="M280.69,254.7c14,0,25.34,10,25.34,22.28s-11.35,22.28-25.34,22.28-25.34-10-25.34-22.28,11.35-22.28,25.34-22.28m0-7c-17.83,0-32.34,13.13-32.34,29.28s14.51,29.28,32.34,29.28S313,293.12,313,277s-14.51-29.28-32.34-29.28Z"/><path d="M423.4,254.7c14,0,25.34,10,25.34,22.28s-11.34,22.28-25.34,22.28-25.33-10-25.33-22.28,11.34-22.28,25.33-22.28m0-7c-17.83,0-32.33,13.13-32.33,29.28s14.5,29.28,32.33,29.28,32.34-13.14,32.34-29.28S441.23,247.7,423.4,247.7Z"/><path d="M397.15,273.83c-3-.82-5.67-1.59-8-2.27-10.48-3-16.25-4.71-34-4.71-31.3,0-47.62,6.75-47.79,6.82l-2.74-6.44c.7-.3,17.63-7.38,50.53-7.38,18.7,0,25.18,1.88,35.91,5,2.31.67,4.92,1.43,7.89,2.23Z"/><path d="M533.52,533c-.22,30.81-.42,160.88-.42,185.59h-4.27c0-24.72.2-154.81.42-185.62"/><path d="M522.77,296.81c-3.44-50.41-8.11-100.05-13.1-131.45-7.6-47.75-17.54-81.71-29.56-101-23.07,21.35-42.37,67-42.57,67.51l-.94,2.27-2.11-1.25c-8.37-4.92-35.72-14.22-79.31-14.22s-70.95,9.3-79.32,14.22l-2.17-3.68c1-.6,25.68-14.81,81.49-14.81,47.31,0,72.23,10.21,79.35,13.69,4.29-9.78,22.64-49.68,44.62-68.6L481,57.92l1.34,2c22.06,33,37,113.77,44.92,236.88Z"/><path d="M452.33,268.62a3.49,3.49,0,0,1-1.55-6.63L523,226.27a3.5,3.5,0,1,1,3.1,6.27l-72.19,35.72A3.42,3.42,0,0,1,452.33,268.62Z"/><path d="M251.74,269.69a3.64,3.64,0,0,1-1.12-.18L189,248.69a3.5,3.5,0,1,1,2.24-6.63l61.6,20.82a3.5,3.5,0,0,1-1.12,6.81Z"/><polygon class="cls-5" points="180.42 605.59 193.46 611.02 381.42 551.86 529.13 559.67 528.83 526.23 375.57 521.7 193.46 588.58 180.42 580.07 180.42 605.59"/><polygon class="cls-6" points="11.88 221.45 167.91 238.22 345.06 188.91 541.51 206.77 661.66 132.66 698.83 466.69 599.81 551.86 377.64 544.33 193.46 597.8 52.07 582.57 11.88 221.45"/><path class="cls-2" d="M710.32,348.13C705.45,324.18,683.44,296,683.44,296a6.4,6.4,0,0,0-6.51-5.47l-16.11.42-20.4,1.22c-12.22.73-22,11-21.51,23.19a22.33,22.33,0,0,0,21.33,21.43c-6.11,1-11.45,3-15.33,7.13a22.12,22.12,0,0,0,1,31.26c4.68,4.39,13.3,5.18,21.26,5.11,0,0-23.72,2.53-22.89,24.71.45,12.1,12,20.83,24.08,20.11l20.4-1.21,21.15-3.32C696.31,419.61,717,380.73,710.32,348.13Z"/><path class="cls-7" d="M647.89,425.73a22.32,22.32,0,0,1-23.61-21c-.74-12.31,10.58-23.71,22.89-24.45,0,0-16.51-.18-21.19-4.56a22.11,22.11,0,0,1-1-31.26c3.88-4.14,9.22-6.13,15.33-7.13a22.33,22.33,0,0,1-.35-44.59L679,291.12c2.08-.09,28.83,34.81,31.37,57.56,3.92,35.13-13.95,71.28-20.12,72Z"/><polygon class="cls-8" points="377.64 544.33 345.06 188.91 541.51 206.77 599.81 551.86 377.64 544.33"/><polygon class="cls-8" points="11.88 221.45 52.07 582.57 193.46 597.8 167.91 238.22 11.88 221.45"/><path class="cls-2" d="M29.8,452.38l21.4.95,20.4-1c12.09-.62,22.6-10.58,21.72-22.65-1.63-22.14-24.65-21.91-24.65-21.91,7.91-.81,15.56-2.67,19.72-7.55A22.12,22.12,0,0,0,85.93,369c-4.32-3.68-9.84-5.07-16-5.39A22.33,22.33,0,0,0,88.73,340c-.87-12.21-11.71-21.29-23.94-20.66l-20.41,1-16.06,1.36a6.41,6.41,0,0,0-5.86,6.16S3.7,358.25,1.51,382.59C-1.48,415.72,23.33,452.09,29.8,452.38Z"/><path class="cls-7" d="M72.13,452.81a22.32,22.32,0,0,0,21.15-23.44c-.63-12.31-12.3-21.72-24.62-21.09,0,0,15.56-2.67,19.72-7.55a22.12,22.12,0,0,0-2.46-31.18c-4.31-3.68-9.84-5.07-16-5.39a22.32,22.32,0,0,0-4.58-44.35l-39,2.66c-2.08.14-24.8,37.78-24.81,60.67,0,35.35,21.74,69.3,28,69.35Z"/><path d="M595.89,15.67A24.93,24.93,0,0,1,602,27.91a20.42,20.42,0,0,1-1.83,12.7,18.49,18.49,0,0,1-6.66,8,20.08,20.08,0,0,1-8.06,3,62.37,62.37,0,0,1-10.12.25,42,42,0,0,0-9.45.5,6.57,6.57,0,0,0-4.71,3.78l-1,2.17-16-7.71a31,31,0,0,1,2.35-9.84q2.76-5.7,7.61-7.16a41.13,41.13,0,0,1,12-1.39,37.89,37.89,0,0,0,5.78-.3,2.94,2.94,0,0,0,2.3-1.57q1.77-3.64-7.25-8a40.88,40.88,0,0,0-16.27-4.19L557.45,0a64.56,64.56,0,0,1,13.31,1.85,61.26,61.26,0,0,1,12,4.2A40.44,40.44,0,0,1,595.89,15.67ZM556.37,69a12.29,12.29,0,0,1-.6,10,11.85,11.85,0,0,1-7.55,6.62q-5.09,1.5-10.91-1.32a14.23,14.23,0,0,1-7.61-7.82,12,12,0,0,1,.4-9.87,12.37,12.37,0,0,1,7.41-6.91c3.22-1,6.88-.55,11,1.44S555.15,65.68,556.37,69Z"/></g></g></g></svg>